<svg width="62" height="64" viewBox="0 0 62 64" fill="none" xmlns="http://www.w3.org/2000/svg">
<path d="M15.6289 49H0V14H15.6289C26.2873 14 33 20.6866 33 31.5C33 42.3134 26.2873 49 15.6289 49ZM15.6289 19.0672H5.48292V43.9328H15.6289C23.5714 43.9328 27.1584 40.4851 27.1584 31.5C27.1584 22.5149 23.5714 19.0672 15.6289 19.0672Z" fill="white"/>
<path d="M45.6372 49C35.0345 49 28 42.1014 28 31.5C28 20.8985 35.0345 14 45.6372 14C55.2714 14 62 19.0725 62 27.1884V27.8986H55.934V27.1884C55.934 22.0145 52.6207 19.2246 45.6882 19.2246C37.6852 19.2246 33.8111 23.029 33.8111 31.5C33.8111 39.971 37.6852 43.7246 45.6882 43.7246C52.6207 43.7246 55.934 40.9855 55.934 35.7609V35.1014H62V35.7609C62 43.9275 55.3223 49 45.6372 49Z" fill="white"/>
<path d="M13 15.6289L13 4.05446e-07L47 0L47 15.6289C47 26.2873 40.5045 33 30 33C19.4955 33 13 26.2873 13 15.6289ZM42.0776 15.6289L42.0776 5.48292L17.9224 5.48292L17.9224 15.6289C17.9224 23.5714 21.2716 27.1584 30 27.1584C38.7284 27.1584 42.0776 23.5714 42.0776 15.6289Z" fill="white"/>
<path d="M13 47.6372C13 37.0345 20.0957 30 31 30C41.9043 30 49 37.0345 49 47.6372C49 57.2714 43.7826 64 35.4348 64L34.7043 64L34.7043 57.934L35.4348 57.934C40.7565 57.934 43.6261 54.6207 43.6261 47.6882C43.6261 39.6852 39.713 35.8111 31 35.8111C22.287 35.8111 18.4261 39.6852 18.4261 47.6882C18.4261 54.6207 21.2435 57.934 26.6174 57.934L27.2957 57.934L27.2957 64L26.6174 64C18.2174 64 13 57.3223 13 47.6372Z" fill="white"/>
</svg>
