<svg width="128" height="128" viewBox="0 0 128 128" fill="none" xmlns="http://www.w3.org/2000/svg">
<rect width="128" height="128" fill="#090A28"/>
<path d="M43.075 88H20.2V37.75H43.075C58.675 37.75 68.5 47.35 68.5 62.875C68.5 78.4 58.675 88 43.075 88ZM43.075 45.025H28.225V80.725H43.075C54.7 80.725 59.95 75.775 59.95 62.875C59.95 49.975 54.7 45.025 43.075 45.025Z" fill="white"/>
<path d="M86.2 88.75C70.6 88.75 60.25 78.55 60.25 62.875C60.25 47.2 70.6 37 86.2 37C100.375 37 110.275 44.5 110.275 56.5V57.55H101.35V56.5C101.35 48.85 96.475 44.725 86.275 44.725C74.5 44.725 68.8 50.35 68.8 62.875C68.8 75.4 74.5 80.95 86.275 80.95C96.475 80.95 101.35 76.9 101.35 69.175V68.2H110.275V69.175C110.275 81.25 100.45 88.75 86.2 88.75Z" fill="white"/>
<path d="M39 40.075L39 17.2L89.25 17.2L89.25 40.075C89.25 55.675 79.65 65.5 64.125 65.5C48.6 65.5 39 55.675 39 40.075ZM81.975 40.075L81.975 25.225L46.275 25.225L46.275 40.075C46.275 51.7 51.225 56.95 64.125 56.95C77.025 56.95 81.975 51.7 81.975 40.075Z" fill="white"/>
<path d="M39.25 86.2C39.25 70.6 49.45 60.25 65.125 60.25C80.8 60.25 91 70.6 91 86.2C91 100.375 83.5 110.275 71.5 110.275L70.45 110.275L70.45 101.35L71.5 101.35C79.15 101.35 83.275 96.475 83.275 86.275C83.275 74.5 77.65 68.8 65.125 68.8C52.6 68.8 47.05 74.5 47.05 86.275C47.05 96.475 51.1 101.35 58.825 101.35L59.8 101.35L59.8 110.275L58.825 110.275C46.75 110.275 39.25 100.45 39.25 86.2Z" fill="white"/>
</svg>
