<svg width="851" height="150" viewBox="0 0 851 150" fill="none" xmlns="http://www.w3.org/2000/svg">
<rect width="851" height="150" fill="#262121" fill-opacity="0.8"/>
<g style="mix-blend-mode:lighten">
<path d="M183.043 40.1406C191.962 40.1406 199.059 43.1354 204.332 49.125C206.676 51.7292 208.401 54.6914 209.508 58.0117C210.68 61.332 211.266 64.6849 211.266 68.0703C211.266 71.4557 210.68 74.8086 209.508 78.1289C208.401 81.4492 206.676 84.4115 204.332 87.0156C199.059 93.0052 191.962 96 183.043 96H166.93C165.953 96 165.107 95.6419 164.391 94.9258C163.674 94.2096 163.316 93.3633 163.316 92.3867V43.8516C163.316 42.875 163.674 42.0286 164.391 41.3125C165.107 40.5312 165.953 40.1406 166.93 40.1406H183.043ZM182.164 89.1641C188.805 89.1641 194.143 87.2109 198.18 83.3047C202.151 79.3984 204.137 74.3203 204.137 68.0703C204.137 61.8203 202.151 56.7422 198.18 52.8359C194.143 48.9297 188.805 46.9766 182.164 46.9766H170.641V89.1641H182.164ZM223.375 57.2305C227.867 55.2773 232.522 54.3333 237.34 54.3984C242.743 54.3984 246.943 56.0586 249.938 59.3789C252.607 62.2435 253.974 65.8242 254.039 70.1211V92.7773C254.039 93.7539 253.648 94.6003 252.867 95.3164C252.151 96.0326 251.272 96.3906 250.23 96.3906C249.254 96.3906 248.408 96.0326 247.691 95.3164C246.975 94.6003 246.617 93.7539 246.617 92.7773V90.7266C245.185 92.224 243.264 93.6237 240.855 94.9258C238.447 96.1628 235.387 96.7812 231.676 96.7812C227.965 96.7812 224.872 95.707 222.398 93.5586C219.859 91.3451 218.59 88.4479 218.59 84.8672C218.59 80.8958 220.087 77.7708 223.082 75.4922C226.337 73.0182 230.96 71.8138 236.949 71.8789H246.617V71.1953C246.617 67.6146 245.738 65.0755 243.98 63.5781C242.288 62.0807 239.618 61.332 235.973 61.332C232.913 61.332 229.365 61.9505 225.328 63.1875C224.938 63.3177 224.449 63.3828 223.863 63.3828C223.342 63.3828 222.789 63.1224 222.203 62.6016C221.617 62.0156 221.292 61.1367 221.227 59.9648C221.227 58.7279 221.943 57.8164 223.375 57.2305ZM225.914 83.9883C225.914 88.2852 228.746 90.401 234.41 90.3359C236.884 90.3359 239.195 89.75 241.344 88.5781C243.557 87.3411 245.315 85.974 246.617 84.4766V77.7383H238.023C234.247 77.7383 231.285 78.2266 229.137 79.2031C226.988 80.1146 225.914 81.7096 225.914 83.9883ZM300.035 90.7266C300.556 91.3776 300.816 92.1914 300.816 93.168C300.816 94.0794 300.458 94.8607 299.742 95.5117C299.091 96.0977 298.342 96.3906 297.496 96.3906C296.194 96.3906 295.087 95.9023 294.176 94.9258L280.406 76.1758L273.473 82.5234V92.7773C273.473 93.7539 273.115 94.6003 272.398 95.3164C271.682 96.0326 270.836 96.3906 269.859 96.3906C268.883 96.3906 268.036 96.0326 267.32 95.3164C266.604 94.6003 266.246 93.7539 266.246 92.7773V40.8242C266.246 39.8477 266.572 39.0013 267.223 38.2852C267.939 37.569 268.818 37.2109 269.859 37.2109C270.836 37.2109 271.682 37.569 272.398 38.2852C273.115 39.0013 273.473 39.8477 273.473 40.8242V73.5391L292.516 55.9609C293.362 55.3099 294.306 54.9844 295.348 54.9844C296.454 54.9844 297.236 55.375 297.691 56.1562C298.212 56.8724 298.473 57.5234 298.473 58.1094C298.473 59.2812 298.017 60.3229 297.105 61.2344L285.582 71.5859L300.035 90.7266ZM327.867 54.3984C334.052 54.3984 339.033 56.3516 342.809 60.2578C346.585 64.2292 348.408 69.3398 348.277 75.5898C348.277 81.9049 346.454 87.0156 342.809 90.9219C339.033 94.8281 334.052 96.7812 327.867 96.7812C321.617 96.7812 316.669 94.8281 313.023 90.9219C309.247 87.0156 307.359 81.9049 307.359 75.5898C307.359 69.2096 309.247 64.099 313.023 60.2578C316.669 56.3516 321.617 54.3984 327.867 54.3984ZM318.883 86.918C320.185 88.0247 321.617 88.8385 323.18 89.3594C324.807 89.8802 326.37 90.1406 327.867 90.1406C329.365 90.1406 330.895 89.8802 332.457 89.3594C334.02 88.8385 335.452 87.9922 336.754 86.8203C339.618 84.2161 341.051 80.4401 341.051 75.4922C341.051 70.6745 339.618 66.931 336.754 64.2617C334.345 62.0482 331.383 60.974 327.867 61.0391C322.073 61.0391 318.069 63.6432 315.855 68.8516C315.074 70.7396 314.684 72.9857 314.684 75.5898C314.684 78.194 315.074 80.4401 315.855 82.3281C316.637 84.2161 317.646 85.7461 318.883 86.918ZM373.277 90.3359C374.71 90.3359 375.719 90.2383 376.305 90.043C376.956 89.7826 377.639 89.6523 378.355 89.6523C379.072 89.6523 379.723 89.9453 380.309 90.5312C380.895 91.0521 381.188 91.8659 381.188 92.9727C381.188 94.0143 380.667 94.763 379.625 95.2188C377.346 96.2604 375.393 96.7812 373.766 96.7812C372.138 96.7812 370.641 96.6836 369.273 96.4883C367.971 96.3581 366.702 95.9349 365.465 95.2188C362.535 93.526 361.07 90.5312 361.07 86.2344V61.4297H355.406C354.43 61.4297 353.909 60.9089 353.844 59.8672C353.844 59.4115 354.104 58.9883 354.625 58.5977L365.465 47.9531C365.921 47.4974 366.376 47.2695 366.832 47.2695C367.288 47.2044 367.646 47.3346 367.906 47.6602C368.167 47.9857 368.297 48.3763 368.297 48.832V55.1797H377.379C378.29 55.1797 379.039 55.4727 379.625 56.0586C380.211 56.6445 380.504 57.3932 380.504 58.3047C380.504 59.2161 380.211 59.9648 379.625 60.5508C379.039 61.1367 378.29 61.4297 377.379 61.4297H368.297V85.6484C368.297 87.6667 368.915 89.0339 370.152 89.75C370.803 90.1406 371.845 90.3359 373.277 90.3359ZM390.562 57.2305C395.055 55.2773 399.71 54.3333 404.527 54.3984C409.931 54.3984 414.13 56.0586 417.125 59.3789C419.794 62.2435 421.161 65.8242 421.227 70.1211V92.7773C421.227 93.7539 420.836 94.6003 420.055 95.3164C419.339 96.0326 418.46 96.3906 417.418 96.3906C416.441 96.3906 415.595 96.0326 414.879 95.3164C414.163 94.6003 413.805 93.7539 413.805 92.7773V90.7266C412.372 92.224 410.452 93.6237 408.043 94.9258C405.634 96.1628 402.574 96.7812 398.863 96.7812C395.152 96.7812 392.06 95.707 389.586 93.5586C387.047 91.3451 385.777 88.4479 385.777 84.8672C385.777 80.8958 387.275 77.7708 390.27 75.4922C393.525 73.0182 398.147 71.8138 404.137 71.8789H413.805V71.1953C413.805 67.6146 412.926 65.0755 411.168 63.5781C409.475 62.0807 406.806 61.332 403.16 61.332C400.1 61.332 396.552 61.9505 392.516 63.1875C392.125 63.3177 391.637 63.3828 391.051 63.3828C390.53 63.3828 389.977 63.1224 389.391 62.6016C388.805 62.0156 388.479 61.1367 388.414 59.9648C388.414 58.7279 389.13 57.8164 390.562 57.2305ZM393.102 83.9883C393.102 88.2852 395.934 90.401 401.598 90.3359C404.072 90.3359 406.383 89.75 408.531 88.5781C410.745 87.3411 412.503 85.974 413.805 84.4766V77.7383H405.211C401.435 77.7383 398.473 78.2266 396.324 79.2031C394.176 80.1146 393.102 81.7096 393.102 83.9883ZM497.496 86.0391C497.887 85.8438 498.473 85.7461 499.254 85.7461C500.035 85.7461 500.719 86.0716 501.305 86.7227C501.891 87.3086 502.184 87.9922 502.184 88.7734C502.184 90.2057 501.565 91.2474 500.328 91.8984C497.854 93.3307 495.185 94.5026 492.32 95.4141C489.521 96.3255 486.103 96.7812 482.066 96.7812C478.095 96.7812 474.384 96.1302 470.934 94.8281C467.548 93.526 464.618 91.638 462.145 89.1641C456.806 83.9557 454.137 76.9245 454.137 68.0703C454.137 59.2812 456.806 52.25 462.145 46.9766C467.288 41.8984 473.961 39.3594 482.164 39.3594C486.135 39.3594 489.521 39.8477 492.32 40.8242C495.185 41.8008 497.366 42.7122 498.863 43.5586C500.361 44.3398 501.272 44.9909 501.598 45.5117C501.988 45.9674 502.184 46.5859 502.184 47.3672C502.184 48.1484 501.891 48.8646 501.305 49.5156C500.719 50.1016 500.035 50.3945 499.254 50.3945C498.538 50.3945 497.952 50.2969 497.496 50.1016C495.348 48.9297 493.134 48.0182 490.855 47.3672C488.642 46.651 485.875 46.293 482.555 46.293C479.234 46.293 476.207 46.8789 473.473 48.0508C470.803 49.1576 468.557 50.6875 466.734 52.6406C463.154 56.5469 461.396 61.6901 461.461 68.0703C461.461 74.4505 463.219 79.5938 466.734 83.5C470.641 87.7318 476.012 89.8477 482.848 89.8477C485.973 89.8477 488.642 89.5221 490.855 88.8711C493.134 88.1549 495.348 87.2109 497.496 86.0391ZM532.164 61.1367C527.477 61.1367 523.082 63.7083 518.98 68.8516V92.7773C518.98 93.7539 518.622 94.6003 517.906 95.3164C517.19 96.0326 516.344 96.3906 515.367 96.3906C514.391 96.3906 513.544 96.0326 512.828 95.3164C512.112 94.6003 511.754 93.7539 511.754 92.7773V40.8242C511.754 39.7826 512.079 38.9362 512.73 38.2852C513.447 37.569 514.326 37.2109 515.367 37.2109C516.344 37.2109 517.19 37.569 517.906 38.2852C518.622 38.9362 518.98 39.7826 518.98 40.8242V61.8203C521.129 59.6068 522.984 58.0117 524.547 57.0352C527.542 55.2773 530.406 54.3984 533.141 54.3984C535.94 54.3984 538.219 54.8216 539.977 55.668C541.734 56.4492 543.232 57.5885 544.469 59.0859C546.943 62.0156 548.18 65.6615 548.18 70.0234V92.7773C548.18 93.7539 547.822 94.6003 547.105 95.3164C546.389 96.0326 545.543 96.3906 544.566 96.3906C543.59 96.3906 542.743 96.0326 542.027 95.3164C541.311 94.6003 540.953 93.7539 540.953 92.7773V70.8047C540.953 67.8099 540.27 65.4661 538.902 63.7734C537.535 62.0156 535.289 61.1367 532.164 61.1367ZM561.852 57.2305C566.344 55.2773 570.999 54.3333 575.816 54.3984C581.22 54.3984 585.419 56.0586 588.414 59.3789C591.083 62.2435 592.451 65.8242 592.516 70.1211V92.7773C592.516 93.7539 592.125 94.6003 591.344 95.3164C590.628 96.0326 589.749 96.3906 588.707 96.3906C587.73 96.3906 586.884 96.0326 586.168 95.3164C585.452 94.6003 585.094 93.7539 585.094 92.7773V90.7266C583.661 92.224 581.741 93.6237 579.332 94.9258C576.923 96.1628 573.863 96.7812 570.152 96.7812C566.441 96.7812 563.349 95.707 560.875 93.5586C558.336 91.3451 557.066 88.4479 557.066 84.8672C557.066 80.8958 558.564 77.7708 561.559 75.4922C564.814 73.0182 569.436 71.8138 575.426 71.8789H585.094V71.1953C585.094 67.6146 584.215 65.0755 582.457 63.5781C580.764 62.0807 578.095 61.332 574.449 61.332C571.389 61.332 567.841 61.9505 563.805 63.1875C563.414 63.3177 562.926 63.3828 562.34 63.3828C561.819 63.3828 561.266 63.1224 560.68 62.6016C560.094 62.0156 559.768 61.1367 559.703 59.9648C559.703 58.7279 560.419 57.8164 561.852 57.2305ZM564.391 83.9883C564.391 88.2852 567.223 90.401 572.887 90.3359C575.361 90.3359 577.672 89.75 579.82 88.5781C582.034 87.3411 583.792 85.974 585.094 84.4766V77.7383H576.5C572.724 77.7383 569.762 78.2266 567.613 79.2031C565.465 80.1146 564.391 81.7096 564.391 83.9883ZM625.133 61.1367C620.445 61.1367 616.051 63.7083 611.949 68.8516V92.7773C611.949 93.7539 611.591 94.6003 610.875 95.3164C610.159 96.0326 609.312 96.3906 608.336 96.3906C607.359 96.3906 606.513 96.0326 605.797 95.3164C605.081 94.6003 604.723 93.7539 604.723 92.7773V58.5C604.723 57.4583 605.048 56.5794 605.699 55.8633C606.415 55.1471 607.294 54.7891 608.336 54.7891C609.312 54.7891 610.159 55.1471 610.875 55.8633C611.591 56.5143 611.949 57.3932 611.949 58.5V61.8203C614.098 59.6068 615.953 58.0117 617.516 57.0352C620.51 55.2773 623.375 54.3984 626.109 54.3984C628.909 54.3984 631.188 54.8216 632.945 55.668C634.703 56.4492 636.201 57.5885 637.438 59.0859C639.911 62.0156 641.148 65.6615 641.148 70.0234V92.7773C641.148 93.7539 640.79 94.6003 640.074 95.3164C639.358 96.0326 638.512 96.3906 637.535 96.3906C636.559 96.3906 635.712 96.0326 634.996 95.3164C634.28 94.6003 633.922 93.7539 633.922 92.7773V70.8047C633.922 67.8099 633.238 65.4661 631.871 63.7734C630.504 62.0156 628.258 61.1367 625.133 61.1367ZM683.922 60.4531V58.5C683.922 57.5234 684.247 56.6771 684.898 55.9609C685.615 55.1797 686.461 54.7891 687.438 54.7891C688.414 54.7891 689.26 55.1471 689.977 55.8633C690.758 56.5794 691.148 57.4583 691.148 58.5V94.2422C691.148 101.013 689.521 106.189 686.266 109.77C683.01 113.415 678.388 115.238 672.398 115.238C666.018 115.238 660.289 113.839 655.211 111.039C654.299 110.453 653.844 109.639 653.844 108.598C653.844 107.556 654.137 106.677 654.723 105.961C655.374 105.31 656.025 104.984 656.676 104.984C657.327 104.984 657.913 105.082 658.434 105.277C662.47 107.296 666.865 108.305 671.617 108.305C679.82 108.305 683.922 103.975 683.922 95.3164V89.9453C680.146 93.9818 675.589 96 670.25 96C665.172 96 660.81 94.2747 657.164 90.8242C652.932 86.918 650.816 81.7096 650.816 75.1992C650.816 68.6237 652.932 63.3828 657.164 59.4766C660.81 56.026 665.237 54.3333 670.445 54.3984C675.654 54.3984 680.146 56.4167 683.922 60.4531ZM683.922 66.8984C682.424 65.3359 680.699 63.9688 678.746 62.7969C676.858 61.625 674.742 61.0391 672.398 61.0391C670.055 61.0391 668.036 61.332 666.344 61.918C664.716 62.5039 663.284 63.3828 662.047 64.5547C659.443 67.0286 658.141 70.5768 658.141 75.1992C658.141 82.1003 660.875 86.5273 666.344 88.4805C668.036 89.0664 670.055 89.3594 672.398 89.3594C676.305 89.3594 680.146 87.3737 683.922 83.4023V66.8984Z" fill="white"/>
</g>
</svg>
