<svg width="723" height="94" viewBox="0 0 723 94" fill="none" xmlns="http://www.w3.org/2000/svg">
<path d="M0 0H723V87H0V0Z" fill="#005B7B"/>
<path d="M185.926 28.875C186.674 28.875 187.293 29.1354 187.781 29.6562C188.302 30.1771 188.562 30.7956 188.562 31.5117V55.3887C188.562 55.877 188.383 56.3001 188.025 56.6582C187.667 57.0163 187.244 57.1953 186.756 57.1953C186.268 57.1953 185.844 57.0163 185.486 56.6582C185.128 56.3001 184.949 55.877 184.949 55.3887V32.6836L175.672 55.5352C175.477 56.0234 175.151 56.4303 174.695 56.7559C174.24 57.0488 173.719 57.1953 173.133 57.1953C172.547 57.1953 172.026 57.0488 171.57 56.7559C171.115 56.4629 170.773 56.056 170.545 55.5352L161.316 32.6836V55.3887C161.316 55.877 161.137 56.3001 160.779 56.6582C160.421 57.0163 159.982 57.1953 159.461 57.1953C158.973 57.1953 158.549 57.0163 158.191 56.6582C157.833 56.3001 157.654 55.877 157.654 55.3887V31.5117C157.654 30.7956 157.898 30.1771 158.387 29.6562C158.908 29.1354 159.542 28.875 160.291 28.875H161.609C162.13 28.875 162.602 29.0378 163.025 29.3633C163.481 29.6888 163.823 30.0794 164.051 30.5352L173.133 53.1914L182.215 30.5352C182.41 30.0794 182.719 29.6888 183.143 29.3633C183.598 29.0378 184.103 28.875 184.656 28.875H185.926ZM210.975 36.3945C211.495 36.3945 211.919 36.5736 212.244 36.9316C212.602 37.2897 212.781 37.6641 212.781 38.0547C212.781 38.4453 212.732 38.7383 212.635 38.9336L201.746 65.1543C201.421 66.0007 200.867 66.4238 200.086 66.4238C199.63 66.4238 199.223 66.2448 198.865 65.8867C198.54 65.5286 198.377 65.1706 198.377 64.8125C198.377 64.487 198.41 64.2103 198.475 63.9824L201.062 57.293L193.543 38.9824C193.445 38.722 193.396 38.4128 193.396 38.0547C193.396 37.6641 193.559 37.2897 193.885 36.9316C194.243 36.5736 194.633 36.3945 195.057 36.3945C195.936 36.3945 196.538 36.7689 196.863 37.5176L203.016 52.8008L209.314 37.5664C209.64 36.7526 210.193 36.362 210.975 36.3945ZM235.34 60.7109C235.503 61.0039 235.584 61.3294 235.584 61.6875C235.584 62.0781 235.421 62.4199 235.096 62.7129C234.803 63.0059 234.461 63.1523 234.07 63.1523C233.68 63.1523 233.387 63.0872 233.191 62.957C233.029 62.8268 232.866 62.6478 232.703 62.4199C230.783 60.1413 229.35 57.472 228.406 54.4121C227.495 51.3197 227.039 48.097 227.039 44.7441C227.039 41.3913 227.495 38.1686 228.406 35.0762C229.318 31.9837 230.75 29.2982 232.703 27.0195C232.898 26.8242 233.077 26.6615 233.24 26.5312C233.403 26.3685 233.68 26.2871 234.07 26.2871C234.461 26.2871 234.803 26.4336 235.096 26.7266C235.421 27.0195 235.584 27.3613 235.584 27.752C235.584 28.1426 235.503 28.4681 235.34 28.7285C232.215 33.9694 230.652 39.3079 230.652 44.7441C230.652 50.1478 232.215 55.4701 235.34 60.7109ZM257.605 28.875C258.061 28.875 258.484 29.0215 258.875 29.3145C259.266 29.6074 259.526 29.9655 259.656 30.3887L266.443 52.4102L273.133 30.3398C273.426 29.3633 274.044 28.875 274.988 28.875C275.509 28.875 275.932 29.0378 276.258 29.3633C276.583 29.6562 276.746 29.9818 276.746 30.3398C276.746 30.6979 276.697 31.0234 276.6 31.3164L268.787 55.3887C268.364 56.5931 267.566 57.1953 266.395 57.1953C265.874 57.1953 265.385 57.0326 264.93 56.707C264.507 56.3815 264.214 55.9421 264.051 55.3887L257.605 35.0273L251.16 55.3887C250.997 55.9095 250.688 56.349 250.232 56.707C249.809 57.0326 249.337 57.1953 248.816 57.1953C247.677 57.1953 246.88 56.5931 246.424 55.3887L238.611 31.3164C238.546 31.0234 238.514 30.6979 238.514 30.3398C238.514 29.9818 238.66 29.6562 238.953 29.3633C239.279 29.0378 239.686 28.875 240.174 28.875C241.15 28.875 241.769 29.3633 242.029 30.3398L248.768 52.4102L255.506 30.3887C255.636 29.9329 255.896 29.5749 256.287 29.3145C256.71 29.0215 257.15 28.875 257.605 28.875ZM283.289 48.1133C283.517 49.9036 284.201 51.3359 285.34 52.4102C286.512 53.4518 288.107 53.9727 290.125 53.9727C292.176 53.9727 293.917 53.6471 295.35 52.9961C295.805 52.7682 296.212 52.6543 296.57 52.6543C296.928 52.6217 297.254 52.752 297.547 53.0449C297.872 53.3379 298.035 53.6634 298.035 54.0215C298.035 54.7376 297.742 55.2422 297.156 55.5352C296.603 55.8281 296.098 56.0885 295.643 56.3164C295.187 56.5443 294.699 56.7396 294.178 56.9023C292.973 57.2279 291.574 57.3906 289.979 57.3906C286.691 57.3906 284.135 56.4792 282.312 54.6562C280.522 52.8008 279.627 50.1803 279.627 46.7949C279.627 43.8652 280.392 41.4238 281.922 39.4707C283.647 37.2897 286.072 36.1992 289.197 36.1992C292.192 36.1992 294.552 37.2083 296.277 39.2266C297.905 41.1146 298.719 43.4746 298.719 46.3066C298.719 46.7949 298.54 47.2181 298.182 47.5762C297.856 47.9342 297.433 48.1133 296.912 48.1133H283.289ZM289.197 39.2754C286.821 39.2754 285.096 40.3333 284.021 42.4492C283.631 43.1979 283.387 44.0931 283.289 45.1348H295.105C295.008 43.2467 294.308 41.7493 293.006 40.6426C291.964 39.7311 290.695 39.2754 289.197 39.2754ZM303.748 38.25C303.748 37.6966 303.927 37.2572 304.285 36.9316C304.643 36.5736 305.083 36.3945 305.604 36.3945C306.124 36.3945 306.548 36.5736 306.873 36.9316C307.199 37.2572 307.361 37.6966 307.361 38.25V55.3887C307.361 55.877 307.199 56.3001 306.873 56.6582C306.548 57.0163 306.124 57.1953 305.604 57.1953C305.083 57.1953 304.643 57.0163 304.285 56.6582C303.927 56.3001 303.748 55.877 303.748 55.3887V38.25ZM307.752 30.3887C307.752 30.9746 307.557 31.4629 307.166 31.8535C306.775 32.2441 306.287 32.4395 305.701 32.4395H305.457C304.871 32.4395 304.383 32.2441 303.992 31.8535C303.634 31.4629 303.455 30.9746 303.455 30.3887V30.2422C303.455 29.6562 303.65 29.168 304.041 28.7773C304.432 28.3867 304.904 28.1914 305.457 28.1914H305.701C306.287 28.1914 306.775 28.3867 307.166 28.7773C307.557 29.168 307.752 29.6562 307.752 30.2422V30.3887ZM317.469 39.959C319.357 37.4525 321.456 36.1992 323.768 36.1992H323.963C324.451 36.1992 324.858 36.3783 325.184 36.7363C325.542 37.0618 325.721 37.485 325.721 38.0059C325.721 38.5267 325.542 38.9499 325.184 39.2754C324.826 39.5684 324.386 39.7148 323.865 39.7148H323.67C322.335 39.7148 321.147 40.0404 320.105 40.6914C319.064 41.3424 318.185 42.1888 317.469 43.2305V55.3887C317.469 55.877 317.29 56.3001 316.932 56.6582C316.574 57.0163 316.15 57.1953 315.662 57.1953C315.174 57.1953 314.751 57.0163 314.393 56.6582C314.035 56.3001 313.855 55.877 313.855 55.3887V38.25C313.855 37.7617 314.018 37.3385 314.344 36.9805C314.702 36.5898 315.141 36.3945 315.662 36.3945C316.15 36.3945 316.574 36.5736 316.932 36.9316C317.29 37.2897 317.469 37.7292 317.469 38.25V39.959ZM344.568 54.3633C342.583 56.3815 340.304 57.3906 337.732 57.3906C335.193 57.3906 332.98 56.4954 331.092 54.7051C329.074 52.6868 328.048 50.0501 328.016 46.7949C328.016 43.6048 329.041 40.9844 331.092 38.9336C332.947 37.0781 335.161 36.1667 337.732 36.1992C340.304 36.1992 342.583 37.2083 344.568 39.2266V29.4121C344.568 28.8913 344.731 28.4681 345.057 28.1426C345.415 27.7845 345.854 27.6055 346.375 27.6055C346.896 27.6055 347.319 27.7845 347.645 28.1426C348.003 28.4681 348.182 28.8913 348.182 29.4121V55.3887C348.182 55.877 348.003 56.3001 347.645 56.6582C347.319 57.0163 346.896 57.1953 346.375 57.1953C345.854 57.1953 345.415 57.0163 345.057 56.6582C344.731 56.3001 344.568 55.877 344.568 55.3887V54.3633ZM344.568 42.5957C342.745 40.5775 340.63 39.5846 338.221 39.6172C335.161 39.6172 333.159 40.9681 332.215 43.6699C331.889 44.5814 331.71 45.623 331.678 46.7949C331.678 49.0736 332.296 50.8802 333.533 52.2148C334.673 53.4193 336.235 54.0052 338.221 53.9727C340.63 53.9727 342.745 52.9798 344.568 50.9941V42.5957ZM356.922 48.1133C357.15 49.9036 357.833 51.3359 358.973 52.4102C360.145 53.4518 361.74 53.9727 363.758 53.9727C365.809 53.9727 367.55 53.6471 368.982 52.9961C369.438 52.7682 369.845 52.6543 370.203 52.6543C370.561 52.6217 370.887 52.752 371.18 53.0449C371.505 53.3379 371.668 53.6634 371.668 54.0215C371.668 54.7376 371.375 55.2422 370.789 55.5352C370.236 55.8281 369.731 56.0885 369.275 56.3164C368.82 56.5443 368.331 56.7396 367.811 56.9023C366.606 57.2279 365.206 57.3906 363.611 57.3906C360.324 57.3906 357.768 56.4792 355.945 54.6562C354.155 52.8008 353.26 50.1803 353.26 46.7949C353.26 43.8652 354.025 41.4238 355.555 39.4707C357.28 37.2897 359.705 36.1992 362.83 36.1992C365.825 36.1992 368.185 37.2083 369.91 39.2266C371.538 41.1146 372.352 43.4746 372.352 46.3066C372.352 46.7949 372.173 47.2181 371.814 47.5762C371.489 47.9342 371.066 48.1133 370.545 48.1133H356.922ZM362.83 39.2754C360.454 39.2754 358.729 40.3333 357.654 42.4492C357.264 43.1979 357.02 44.0931 356.922 45.1348H368.738C368.641 43.2467 367.941 41.7493 366.639 40.6426C365.597 39.7311 364.327 39.2754 362.83 39.2754ZM380.848 39.959C382.736 37.4525 384.835 36.1992 387.146 36.1992H387.342C387.83 36.1992 388.237 36.3783 388.562 36.7363C388.921 37.0618 389.1 37.485 389.1 38.0059C389.1 38.5267 388.921 38.9499 388.562 39.2754C388.204 39.5684 387.765 39.7148 387.244 39.7148H387.049C385.714 39.7148 384.526 40.0404 383.484 40.6914C382.443 41.3424 381.564 42.1888 380.848 43.2305V55.3887C380.848 55.877 380.669 56.3001 380.311 56.6582C379.952 57.0163 379.529 57.1953 379.041 57.1953C378.553 57.1953 378.13 57.0163 377.771 56.6582C377.413 56.3001 377.234 55.877 377.234 55.3887V38.25C377.234 37.7617 377.397 37.3385 377.723 36.9805C378.081 36.5898 378.52 36.3945 379.041 36.3945C379.529 36.3945 379.952 36.5736 380.311 36.9316C380.669 37.2897 380.848 37.7292 380.848 38.25V39.959ZM392.908 63.1523C392.55 63.1523 392.208 63.0059 391.883 62.7129C391.557 62.4199 391.395 62.0781 391.395 61.6875C391.395 61.3294 391.476 61.0039 391.639 60.7109C394.764 55.4701 396.326 50.1478 396.326 44.7441C396.326 39.3079 394.764 33.9694 391.639 28.7285C391.476 28.4681 391.395 28.1426 391.395 27.752C391.395 27.3613 391.557 27.0195 391.883 26.7266C392.208 26.4336 392.55 26.2871 392.908 26.2871C393.299 26.2871 393.592 26.3522 393.787 26.4824C393.982 26.6126 394.161 26.7917 394.324 27.0195C396.245 29.2982 397.661 31.9837 398.572 35.0762C399.484 38.1686 399.939 41.3913 399.939 44.7441C399.939 48.097 399.484 51.3197 398.572 54.4121C397.661 57.472 396.245 60.1413 394.324 62.4199C394.129 62.6152 393.934 62.778 393.738 62.9082C393.576 63.071 393.299 63.1523 392.908 63.1523ZM437.732 28.875C438.221 28.875 438.644 29.054 439.002 29.4121C439.36 29.7702 439.539 30.2096 439.539 30.7305V55.3887C439.539 55.877 439.36 56.3001 439.002 56.6582C438.644 57.0163 438.221 57.1953 437.732 57.1953C437.244 57.1953 436.821 57.0163 436.463 56.6582C436.105 56.3001 435.926 55.877 435.926 55.3887V44.793H420.74V55.3887C420.74 55.877 420.561 56.3001 420.203 56.6582C419.845 57.0163 419.406 57.1953 418.885 57.1953C418.396 57.1953 417.973 57.0163 417.615 56.6582C417.257 56.3001 417.078 55.877 417.078 55.3887V30.7305C417.078 30.2422 417.257 29.819 417.615 29.4609C417.973 29.0703 418.396 28.875 418.885 28.875C419.373 28.875 419.796 29.054 420.154 29.4121C420.545 29.7702 420.74 30.2096 420.74 30.7305V41.375H435.926V30.7305C435.926 30.2422 436.105 29.819 436.463 29.4609C436.821 29.0703 437.244 28.875 437.732 28.875ZM455.555 36.1992C458.647 36.1992 461.137 37.1758 463.025 39.1289C464.913 41.1146 465.825 43.6699 465.76 46.7949C465.76 49.9525 464.848 52.5078 463.025 54.4609C461.137 56.4141 458.647 57.3906 455.555 57.3906C452.43 57.3906 449.956 56.4141 448.133 54.4609C446.245 52.5078 445.301 49.9525 445.301 46.7949C445.301 43.6048 446.245 41.0495 448.133 39.1289C449.956 37.1758 452.43 36.1992 455.555 36.1992ZM451.062 52.459C451.714 53.0124 452.43 53.4193 453.211 53.6797C454.025 53.9401 454.806 54.0703 455.555 54.0703C456.303 54.0703 457.068 53.9401 457.85 53.6797C458.631 53.4193 459.347 52.9961 459.998 52.4102C461.43 51.1081 462.146 49.2201 462.146 46.7461C462.146 44.3372 461.43 42.4655 459.998 41.1309C458.794 40.0241 457.312 39.487 455.555 39.5195C452.658 39.5195 450.656 40.8216 449.549 43.4258C449.158 44.3698 448.963 45.4928 448.963 46.7949C448.963 48.097 449.158 49.2201 449.549 50.1641C449.939 51.1081 450.444 51.873 451.062 52.459ZM474.451 39.2266C476.437 37.2083 478.715 36.1992 481.287 36.1992C483.891 36.1992 486.105 37.1107 487.928 38.9336C489.946 40.9518 490.971 43.5723 491.004 46.7949C491.004 50.0501 489.979 52.6868 487.928 54.7051C486.04 56.528 483.81 57.4232 481.238 57.3906C478.699 57.3906 476.437 56.3815 474.451 54.3633V55.3887C474.451 55.877 474.272 56.3001 473.914 56.6582C473.589 57.0163 473.165 57.1953 472.645 57.1953C472.124 57.1953 471.684 57.0163 471.326 56.6582C471.001 56.3001 470.838 55.877 470.838 55.3887V29.4121C470.838 28.8913 471.001 28.4681 471.326 28.1426C471.684 27.7845 472.124 27.6055 472.645 27.6055C473.165 27.6055 473.589 27.7845 473.914 28.1426C474.272 28.4681 474.451 28.8913 474.451 29.4121V39.2266ZM474.451 50.9941C476.274 53.0124 478.39 54.0052 480.799 53.9727C483.859 53.9727 485.893 52.6217 486.902 49.9199C487.228 49.0085 487.374 47.9668 487.342 46.7949C487.342 44.5163 486.74 42.7259 485.535 41.4238C484.363 40.2194 482.785 39.6172 480.799 39.6172C478.39 39.6172 476.274 40.61 474.451 42.5957V50.9941ZM499.646 39.2266C501.632 37.2083 503.911 36.1992 506.482 36.1992C509.087 36.1992 511.3 37.1107 513.123 38.9336C515.141 40.9518 516.167 43.5723 516.199 46.7949C516.199 50.0501 515.174 52.6868 513.123 54.7051C511.235 56.528 509.005 57.4232 506.434 57.3906C503.895 57.3906 501.632 56.3815 499.646 54.3633V55.3887C499.646 55.877 499.467 56.3001 499.109 56.6582C498.784 57.0163 498.361 57.1953 497.84 57.1953C497.319 57.1953 496.88 57.0163 496.521 56.6582C496.196 56.3001 496.033 55.877 496.033 55.3887V29.4121C496.033 28.8913 496.196 28.4681 496.521 28.1426C496.88 27.7845 497.319 27.6055 497.84 27.6055C498.361 27.6055 498.784 27.7845 499.109 28.1426C499.467 28.4681 499.646 28.8913 499.646 29.4121V39.2266ZM499.646 50.9941C501.469 53.0124 503.585 54.0052 505.994 53.9727C509.054 53.9727 511.089 52.6217 512.098 49.9199C512.423 49.0085 512.57 47.9668 512.537 46.7949C512.537 44.5163 511.935 42.7259 510.73 41.4238C509.559 40.2194 507.98 39.6172 505.994 39.6172C503.585 39.6172 501.469 40.61 499.646 42.5957V50.9941ZM521.375 38.25C521.375 37.6966 521.554 37.2572 521.912 36.9316C522.27 36.5736 522.71 36.3945 523.23 36.3945C523.751 36.3945 524.174 36.5736 524.5 36.9316C524.826 37.2572 524.988 37.6966 524.988 38.25V55.3887C524.988 55.877 524.826 56.3001 524.5 56.6582C524.174 57.0163 523.751 57.1953 523.23 57.1953C522.71 57.1953 522.27 57.0163 521.912 56.6582C521.554 56.3001 521.375 55.877 521.375 55.3887V38.25ZM525.379 30.3887C525.379 30.9746 525.184 31.4629 524.793 31.8535C524.402 32.2441 523.914 32.4395 523.328 32.4395H523.084C522.498 32.4395 522.01 32.2441 521.619 31.8535C521.261 31.4629 521.082 30.9746 521.082 30.3887V30.2422C521.082 29.6562 521.277 29.168 521.668 28.7773C522.059 28.3867 522.531 28.1914 523.084 28.1914H523.328C523.914 28.1914 524.402 28.3867 524.793 28.7773C525.184 29.168 525.379 29.6562 525.379 30.2422V30.3887ZM533.924 48.1133C534.152 49.9036 534.835 51.3359 535.975 52.4102C537.146 53.4518 538.742 53.9727 540.76 53.9727C542.811 53.9727 544.552 53.6471 545.984 52.9961C546.44 52.7682 546.847 52.6543 547.205 52.6543C547.563 52.6217 547.889 52.752 548.182 53.0449C548.507 53.3379 548.67 53.6634 548.67 54.0215C548.67 54.7376 548.377 55.2422 547.791 55.5352C547.238 55.8281 546.733 56.0885 546.277 56.3164C545.822 56.5443 545.333 56.7396 544.812 56.9023C543.608 57.2279 542.208 57.3906 540.613 57.3906C537.326 57.3906 534.77 56.4792 532.947 54.6562C531.157 52.8008 530.262 50.1803 530.262 46.7949C530.262 43.8652 531.027 41.4238 532.557 39.4707C534.282 37.2897 536.707 36.1992 539.832 36.1992C542.827 36.1992 545.187 37.2083 546.912 39.2266C548.54 41.1146 549.354 43.4746 549.354 46.3066C549.354 46.7949 549.174 47.2181 548.816 47.5762C548.491 47.9342 548.068 48.1133 547.547 48.1133H533.924ZM539.832 39.2754C537.456 39.2754 535.73 40.3333 534.656 42.4492C534.266 43.1979 534.021 44.0931 533.924 45.1348H545.74C545.643 43.2467 544.943 41.7493 543.641 40.6426C542.599 39.7311 541.329 39.2754 539.832 39.2754ZM560.73 54.0215C563.693 54.0215 565.158 53.0938 565.125 51.2383C565.125 50.6523 564.832 50.1966 564.246 49.8711C563.66 49.5456 562.928 49.2689 562.049 49.041C561.17 48.8132 560.21 48.569 559.168 48.3086C558.126 48.0482 557.15 47.6901 556.238 47.2344C555.327 46.7786 554.578 46.1927 553.992 45.4766C553.406 44.7279 553.113 43.8164 553.113 42.7422C553.113 41.668 553.276 40.7565 553.602 40.0078C553.927 39.2266 554.415 38.5592 555.066 38.0059C556.466 36.8014 558.419 36.1992 560.926 36.1992C562.944 36.1992 564.881 36.5247 566.736 37.1758C567.094 37.306 567.371 37.5339 567.566 37.8594C567.794 38.1523 567.908 38.4779 567.908 38.8359C567.908 39.1615 567.745 39.487 567.42 39.8125C567.127 40.138 566.834 40.3008 566.541 40.3008C566.248 40.3008 565.89 40.2357 565.467 40.1055C564.197 39.7148 562.798 39.5195 561.268 39.5195C559.738 39.5195 558.582 39.7799 557.801 40.3008C557.02 40.8216 556.629 41.4727 556.629 42.2539C556.629 43.0026 556.922 43.556 557.508 43.9141C558.094 44.2396 558.826 44.5326 559.705 44.793C560.617 45.0534 561.593 45.2975 562.635 45.5254C563.709 45.7533 564.686 46.0951 565.564 46.5508C567.648 47.625 568.689 49.2689 568.689 51.4824C568.689 53.2077 568.038 54.5911 566.736 55.6328C565.369 56.8047 563.432 57.3906 560.926 57.3906C558.257 57.3906 555.848 56.7884 553.699 55.584C553.243 55.2585 552.999 54.8678 552.967 54.4121C552.967 53.9238 553.113 53.5169 553.406 53.1914C553.732 52.8333 554.057 52.6543 554.383 52.6543C554.708 52.6543 555.132 52.7682 555.652 52.9961C557.182 53.6797 558.875 54.0215 560.73 54.0215Z" fill="white"/>
</svg>
