<svg width="27" height="30" viewBox="0 0 27 30" fill="none" xmlns="http://www.w3.org/2000/svg">
<path d="M26.7864 0.68V1.48C25.9331 1.58667 25.2931 1.81333 24.8664 2.16C24.4397 2.48 24.1464 3 23.9864 3.72C23.8531 4.44 23.7864 5.45333 23.7864 6.76V29.08C23.4664 29.0533 23.1331 29.04 22.7864 29.04C22.4664 29.04 22.1197 29.0533 21.7464 29.08L4.38641 7.08V22.44C4.38641 23.9067 4.46641 25.04 4.62641 25.84C4.78641 26.6133 5.13307 27.1733 5.66641 27.52C6.22641 27.84 7.09307 28.0667 8.26641 28.2V29C7.75974 28.9467 7.09307 28.92 6.26641 28.92C5.43974 28.8933 4.66641 28.88 3.94641 28.88C3.33307 28.88 2.70641 28.8933 2.06641 28.92C1.42641 28.92 0.893073 28.9467 0.466406 29V28.2C1.31974 28.0667 1.95974 27.84 2.38641 27.52C2.81307 27.2 3.09307 26.68 3.22641 25.96C3.38641 25.2133 3.46641 24.2 3.46641 22.92V4.92C3.46641 3.93333 3.38641 3.21333 3.22641 2.76C3.09307 2.28 2.79974 1.96 2.34641 1.8C1.91974 1.61333 1.29307 1.50667 0.466406 1.48V0.68C0.893073 0.706666 1.42641 0.733332 2.06641 0.759999C2.70641 0.786665 3.33307 0.799998 3.94641 0.799998C4.58641 0.799998 5.19974 0.786665 5.78641 0.759999C6.37307 0.733332 6.90641 0.706666 7.38641 0.68L22.8664 19.76V7.24C22.8664 5.77333 22.7864 4.65333 22.6264 3.88C22.4664 3.08 22.1064 2.50667 21.5464 2.16C21.0131 1.81333 20.1597 1.58667 18.9864 1.48V0.68C19.4931 0.706666 20.1597 0.733332 20.9864 0.759999C21.8131 0.786665 22.5864 0.799998 23.3064 0.799998C23.9464 0.799998 24.5731 0.786665 25.1864 0.759999C25.8264 0.733332 26.3597 0.706666 26.7864 0.68Z" fill="black"/>
</svg>
