<svg width="1440" height="1024" viewBox="0 0 1440 1024" fill="none" xmlns="http://www.w3.org/2000/svg">
<rect width="1440" height="1024" fill="#DFBFB7"/>
<rect width="1440" height="1024" fill="url(#paint0_linear_2_12)"/>
<path d="M499.27 460.631V489.488L504.514 490.309V494H489.191V490.309L493.967 489.488V455.885L489.191 455.064V451.344H499.797L520.715 484.596L520.891 484.537V455.885L515.646 455.064V451.344H530.969V455.064L526.193 455.885V494H520.92L499.445 460.572L499.27 460.631ZM563.02 489.664L563.664 483.775H568.264V494H535.773V490.309L540.549 489.488V455.885L535.773 455.064V451.344H567.355V461.598H562.727L562.082 455.797H546.32V469.684H562.053V474.225H546.32V489.664H563.02ZM599.67 489.576L600.344 482.838H604.768V494H574.035V490.309L578.811 489.488V455.885L574.035 455.064V451.344H589.357V455.064L584.582 455.885V489.576H599.67ZM635.119 489.576L635.793 482.838H640.217V494H609.484V490.309L614.26 489.488V455.885L609.484 455.064V451.344H624.807V455.064L620.031 455.885V489.576H635.119ZM656.506 481.9L653.605 489.752L656.828 490.309V494H644.611V490.309L647.775 489.869L662.688 451.344H667.639L682.287 489.869L685.422 490.309V494H673.176V490.309L676.398 489.752L673.586 481.9H656.506ZM665.559 459.723L665.207 458.756H665.031L664.68 459.723L658.293 477.066H671.828L665.559 459.723ZM736.018 489.576L736.691 482.838H741.115V494H710.383V490.309L715.158 489.488V455.885L710.383 455.064V451.344H725.705V455.064L720.93 455.885V489.576H736.018ZM757.404 481.9L754.504 489.752L757.727 490.309V494H745.51V490.309L748.674 489.869L763.586 451.344H768.537L783.186 489.869L786.32 490.309V494H774.074V490.309L777.297 489.752L774.484 481.9H757.404ZM766.457 459.723L766.105 458.756H765.93L765.578 459.723L759.191 477.066H772.727L766.457 459.723ZM815.881 474.107L823.088 489.693L826.047 490.221V494H818.928L810.373 474.781L801.32 474.957V489.488L806.096 490.309V494H790.773V490.309L795.549 489.488V455.885L790.773 455.064V451.373H809.787C812.873 451.373 815.5 451.832 817.668 452.75C822.023 454.664 824.201 458.16 824.201 463.238C824.201 465.758 823.664 467.857 822.59 469.537C821.164 471.783 818.928 473.307 815.881 474.107ZM801.32 455.885V470.416H809.201C812.424 470.416 814.768 469.801 816.232 468.57C817.697 467.34 818.43 465.543 818.43 463.18C818.43 460.934 817.727 459.156 816.32 457.848C814.914 456.539 812.736 455.885 809.787 455.885H801.32ZM846.76 494.615C844.162 494.615 841.662 494.234 839.26 493.473C836.857 492.711 834.562 491.539 832.375 489.957V480.846H836.857L837.824 487.555C839.094 488.336 840.471 488.941 841.955 489.371C843.439 489.801 845.041 490.016 846.76 490.016C848.732 490.016 850.393 489.713 851.74 489.107C854.533 487.896 855.93 485.846 855.93 482.955C855.93 481.666 855.617 480.514 854.992 479.498C854.367 478.502 853.332 477.633 851.887 476.891C850.461 476.129 848.508 475.465 846.027 474.898C843.176 474.234 840.705 473.316 838.615 472.145C834.494 469.82 832.434 466.568 832.434 462.389C832.434 460.143 833.029 458.15 834.221 456.412C835.393 454.654 837.033 453.268 839.143 452.252C841.252 451.236 843.713 450.729 846.525 450.729C849.514 450.729 852.15 451.188 854.436 452.105C856.74 453.004 858.635 454.098 860.119 455.387V463.912H855.637L854.67 457.818C853.791 457.115 852.697 456.529 851.389 456.061C850.08 455.592 848.459 455.357 846.525 455.357C844.924 455.357 843.479 455.641 842.189 456.207C840.939 456.793 839.963 457.604 839.26 458.639C838.557 459.674 838.205 460.895 838.205 462.301C838.205 463.531 838.527 464.605 839.172 465.523C840.344 467.262 843.293 468.717 848.02 469.889C857.141 472.154 861.701 476.49 861.701 482.896C861.701 485.182 861.086 487.203 859.855 488.961C858.625 490.738 856.887 492.125 854.641 493.121C852.414 494.117 849.787 494.615 846.76 494.615ZM893.957 489.664L894.602 483.775H899.201V494H866.711V490.309L871.486 489.488V455.885L866.711 455.064V451.344H898.293V461.598H893.664L893.02 455.797H877.258V469.684H892.99V474.225H877.258V489.664H893.957ZM915.109 460.631V489.488L920.354 490.309V494H905.031V490.309L909.807 489.488V455.885L905.031 455.064V451.344H915.637L936.555 484.596L936.73 484.537V455.885L931.486 455.064V451.344H946.809V455.064L942.033 455.885V494H936.76L915.285 460.572L915.109 460.631Z" fill="black"/>
<path d="M486.76 497.662H949.24V499.127H486.76V497.662Z" fill="black"/>
<path d="M610.477 512.8L615.337 525.32C615.524 525.8 615.731 526.133 615.957 526.32C616.197 526.493 616.411 526.587 616.597 526.6V527C616.197 526.973 615.724 526.96 615.177 526.96C614.644 526.947 614.104 526.94 613.557 526.94C612.944 526.94 612.364 526.947 611.817 526.96C611.271 526.96 610.837 526.973 610.517 527V526.6C611.197 526.573 611.624 526.46 611.797 526.26C611.984 526.047 611.944 525.6 611.677 524.92L608.277 515.62L608.637 515.1L605.597 523.02C605.304 523.753 605.124 524.353 605.057 524.82C605.004 525.287 605.037 525.647 605.157 525.9C605.291 526.153 605.497 526.333 605.777 526.44C606.071 526.533 606.417 526.587 606.817 526.6V527C606.377 526.973 605.957 526.96 605.557 526.96C605.157 526.947 604.751 526.94 604.337 526.94C604.044 526.94 603.764 526.947 603.497 526.96C603.244 526.96 603.017 526.973 602.817 527V526.6C603.097 526.547 603.384 526.367 603.677 526.06C603.971 525.753 604.257 525.233 604.537 524.5L609.097 512.8C609.311 512.813 609.537 512.82 609.777 512.82C610.031 512.82 610.264 512.813 610.477 512.8ZM611.877 521.24V521.64H605.917L606.117 521.24H611.877ZM633.496 512.84C633.443 513.52 633.403 514.173 633.376 514.8C633.363 515.427 633.356 515.907 633.356 516.24C633.356 516.533 633.363 516.813 633.376 517.08C633.39 517.347 633.403 517.573 633.416 517.76H632.956C632.743 516.64 632.47 515.753 632.136 515.1C631.816 514.447 631.43 513.987 630.976 513.72C630.523 513.44 629.99 513.3 629.376 513.3H628.916V524.72C628.916 525.253 628.97 525.653 629.076 525.92C629.196 526.187 629.41 526.367 629.716 526.46C630.023 526.54 630.47 526.587 631.056 526.6V527C630.643 526.987 630.09 526.973 629.396 526.96C628.716 526.947 628.003 526.94 627.256 526.94C626.523 526.94 625.83 526.947 625.176 526.96C624.523 526.973 623.996 526.987 623.596 527V526.6C624.196 526.587 624.65 526.54 624.956 526.46C625.263 526.367 625.47 526.187 625.576 525.92C625.683 525.653 625.736 525.253 625.736 524.72V513.3H625.296C624.683 513.3 624.15 513.44 623.696 513.72C623.243 513.987 622.856 514.447 622.536 515.1C622.216 515.74 621.936 516.627 621.696 517.76H621.236C621.263 517.573 621.276 517.347 621.276 517.08C621.29 516.813 621.296 516.533 621.296 516.24C621.296 515.907 621.283 515.427 621.256 514.8C621.243 514.173 621.21 513.52 621.156 512.84C621.77 512.853 622.436 512.867 623.156 512.88C623.89 512.893 624.623 512.9 625.356 512.9C626.09 512.9 626.75 512.9 627.336 512.9C627.936 512.9 628.596 512.9 629.316 512.9C630.05 512.9 630.783 512.893 631.516 512.88C632.25 512.867 632.91 512.853 633.496 512.84ZM641.376 516.38C641.802 516.38 642.149 516.473 642.416 516.66C642.682 516.833 642.876 517.06 642.996 517.34C643.129 517.62 643.196 517.913 643.196 518.22C643.196 518.713 643.049 519.12 642.756 519.44C642.476 519.747 642.102 519.9 641.636 519.9C641.169 519.9 640.802 519.787 640.536 519.56C640.282 519.32 640.156 519.007 640.156 518.62C640.156 518.247 640.236 517.94 640.396 517.7C640.569 517.447 640.782 517.233 641.036 517.06C640.849 517.007 640.662 517.013 640.476 517.08C640.222 517.12 639.982 517.227 639.756 517.4C639.529 517.56 639.336 517.767 639.176 518.02C639.016 518.26 638.889 518.527 638.796 518.82C638.702 519.1 638.656 519.373 638.656 519.64V524.94C638.656 525.58 638.809 526.013 639.116 526.24C639.436 526.467 639.909 526.58 640.536 526.58V527C640.229 526.987 639.782 526.973 639.196 526.96C638.609 526.933 637.996 526.92 637.356 526.92C636.822 526.92 636.282 526.933 635.736 526.96C635.189 526.973 634.776 526.987 634.496 527V526.58C634.962 526.58 635.289 526.48 635.476 526.28C635.676 526.08 635.776 525.7 635.776 525.14V518.84C635.776 518.24 635.682 517.8 635.496 517.52C635.322 517.227 634.989 517.08 634.496 517.08V516.66C634.922 516.7 635.336 516.72 635.736 516.72C636.296 516.72 636.816 516.7 637.296 516.66C637.789 516.607 638.242 516.533 638.656 516.44V518.3C638.816 517.94 639.029 517.613 639.296 517.32C639.562 517.027 639.869 516.8 640.216 516.64C640.562 516.467 640.949 516.38 641.376 516.38ZM646.432 511.5C646.992 511.5 647.432 511.64 647.752 511.92C648.085 512.187 648.252 512.56 648.252 513.04C648.252 513.52 648.085 513.9 647.752 514.18C647.432 514.447 646.992 514.58 646.432 514.58C645.872 514.58 645.425 514.447 645.092 514.18C644.772 513.9 644.612 513.52 644.612 513.04C644.612 512.56 644.772 512.187 645.092 511.92C645.425 511.64 645.872 511.5 646.432 511.5ZM647.992 516.44V525.14C647.992 525.7 648.085 526.08 648.272 526.28C648.472 526.48 648.805 526.58 649.272 526.58V527C649.032 526.987 648.658 526.973 648.152 526.96C647.645 526.933 647.132 526.92 646.612 526.92C646.092 526.92 645.565 526.933 645.032 526.96C644.498 526.973 644.098 526.987 643.832 527V526.58C644.298 526.58 644.625 526.48 644.812 526.28C645.012 526.08 645.112 525.7 645.112 525.14V518.84C645.112 518.24 645.018 517.8 644.832 517.52C644.658 517.227 644.325 517.08 643.832 517.08V516.66C644.258 516.7 644.672 516.72 645.072 516.72C645.632 516.72 646.152 516.7 646.632 516.66C647.125 516.607 647.578 516.533 647.992 516.44ZM657 516.38C658.04 516.38 658.9 516.807 659.58 517.66C660.273 518.5 660.62 519.8 660.62 521.56C660.62 522.947 660.407 524.06 659.98 524.9C659.567 525.74 659.013 526.347 658.32 526.72C657.627 527.093 656.867 527.28 656.04 527.28C655.493 527.28 654.987 527.187 654.52 527C654.053 526.813 653.653 526.507 653.32 526.08L653.6 525.98C653.84 526.273 654.12 526.493 654.44 526.64C654.773 526.787 655.1 526.86 655.42 526.86C656.153 526.86 656.7 526.447 657.06 525.62C657.42 524.793 657.6 523.533 657.6 521.84C657.6 520.693 657.527 519.787 657.38 519.12C657.247 518.44 657.047 517.96 656.78 517.68C656.513 517.387 656.193 517.24 655.82 517.24C655.353 517.24 654.927 517.433 654.54 517.82C654.153 518.193 653.933 518.72 653.88 519.4L653.78 518.7C654.02 517.94 654.427 517.367 655 516.98C655.573 516.58 656.24 516.38 657 516.38ZM653.94 511.36V526.6C653.607 526.547 653.267 526.547 652.92 526.6C652.573 526.653 652.253 526.747 651.96 526.88C651.667 527 651.42 527.147 651.22 527.32L650.92 527.14C650.973 526.953 651.007 526.767 651.02 526.58C651.047 526.393 651.06 526.207 651.06 526.02V513.76C651.06 513.16 650.967 512.72 650.78 512.44C650.607 512.147 650.273 512 649.78 512V511.58C650.207 511.62 650.62 511.64 651.02 511.64C651.567 511.64 652.087 511.62 652.58 511.58C653.073 511.527 653.527 511.453 653.94 511.36ZM671.819 516.44V524.82C671.819 525.42 671.912 525.867 672.099 526.16C672.286 526.44 672.619 526.58 673.099 526.58V527C672.686 526.96 672.272 526.94 671.859 526.94C671.299 526.94 670.779 526.96 670.299 527C669.819 527.04 669.366 527.113 668.939 527.22V525.42C668.619 526.087 668.172 526.567 667.599 526.86C667.039 527.14 666.412 527.28 665.719 527.28C665.159 527.28 664.706 527.207 664.359 527.06C664.012 526.913 663.739 526.727 663.539 526.5C663.312 526.247 663.152 525.913 663.059 525.5C662.966 525.087 662.919 524.553 662.919 523.9V518.84C662.919 518.24 662.826 517.8 662.639 517.52C662.466 517.227 662.132 517.08 661.639 517.08V516.66C662.066 516.7 662.479 516.72 662.879 516.72C663.439 516.72 663.959 516.7 664.439 516.66C664.932 516.607 665.386 516.533 665.799 516.44V524.72C665.799 525.053 665.826 525.347 665.879 525.6C665.946 525.853 666.066 526.053 666.239 526.2C666.412 526.333 666.666 526.4 666.999 526.4C667.359 526.4 667.679 526.3 667.959 526.1C668.252 525.9 668.486 525.627 668.659 525.28C668.846 524.92 668.939 524.52 668.939 524.08V518.84C668.939 518.24 668.846 517.8 668.659 517.52C668.486 517.227 668.152 517.08 667.659 517.08V516.66C668.086 516.7 668.499 516.72 668.899 516.72C669.459 516.72 669.979 516.7 670.459 516.66C670.952 516.607 671.406 516.533 671.819 516.44ZM678.048 513.38V516.66H680.408V517.06H678.048V525.14C678.048 525.54 678.121 525.827 678.268 526C678.414 526.16 678.634 526.24 678.928 526.24C679.168 526.24 679.408 526.153 679.648 525.98C679.888 525.793 680.101 525.48 680.288 525.04L680.628 525.22C680.414 525.82 680.088 526.313 679.648 526.7C679.221 527.087 678.634 527.28 677.888 527.28C677.448 527.28 677.061 527.22 676.728 527.1C676.394 526.993 676.114 526.827 675.888 526.6C675.594 526.307 675.401 525.947 675.308 525.52C675.214 525.08 675.168 524.513 675.168 523.82V517.06H673.488V516.66H675.168V514.02C675.728 514.02 676.241 513.973 676.708 513.88C677.188 513.773 677.634 513.607 678.048 513.38ZM686.101 516.38C687.274 516.38 688.194 516.727 688.861 517.42C689.528 518.113 689.861 519.247 689.861 520.82H683.281L683.241 520.44H687.341C687.354 519.787 687.314 519.187 687.221 518.64C687.128 518.08 686.981 517.633 686.781 517.3C686.581 516.967 686.314 516.8 685.981 516.8C685.514 516.8 685.114 517.093 684.781 517.68C684.461 518.267 684.268 519.24 684.201 520.6L684.261 520.72C684.248 520.88 684.234 521.047 684.221 521.22C684.221 521.393 684.221 521.573 684.221 521.76C684.221 522.68 684.348 523.427 684.601 524C684.868 524.573 685.201 524.993 685.601 525.26C686.001 525.513 686.408 525.64 686.821 525.64C687.101 525.64 687.388 525.6 687.681 525.52C687.988 525.427 688.294 525.267 688.601 525.04C688.908 524.8 689.194 524.467 689.461 524.04L689.821 524.16C689.661 524.667 689.408 525.16 689.061 525.64C688.714 526.12 688.274 526.513 687.741 526.82C687.208 527.127 686.568 527.28 685.821 527.28C684.914 527.28 684.114 527.087 683.421 526.7C682.728 526.313 682.181 525.727 681.781 524.94C681.394 524.153 681.201 523.153 681.201 521.94C681.201 520.7 681.408 519.667 681.821 518.84C682.248 518.013 682.828 517.4 683.561 517C684.308 516.587 685.154 516.38 686.101 516.38ZM699.513 513.38V516.66H701.873V517.06H699.513V525.14C699.513 525.54 699.586 525.827 699.733 526C699.879 526.16 700.099 526.24 700.393 526.24C700.633 526.24 700.873 526.153 701.113 525.98C701.353 525.793 701.566 525.48 701.753 525.04L702.093 525.22C701.879 525.82 701.553 526.313 701.113 526.7C700.686 527.087 700.099 527.28 699.353 527.28C698.913 527.28 698.526 527.22 698.193 527.1C697.859 526.993 697.579 526.827 697.353 526.6C697.059 526.307 696.866 525.947 696.773 525.52C696.679 525.08 696.633 524.513 696.633 523.82V517.06H694.953V516.66H696.633V514.02C697.193 514.02 697.706 513.973 698.173 513.88C698.653 513.773 699.099 513.607 699.513 513.38ZM707.566 516.38C708.539 516.38 709.392 516.56 710.126 516.92C710.859 517.28 711.432 517.86 711.846 518.66C712.259 519.46 712.466 520.52 712.466 521.84C712.466 523.16 712.259 524.22 711.846 525.02C711.432 525.807 710.859 526.38 710.126 526.74C709.392 527.1 708.539 527.28 707.566 527.28C706.619 527.28 705.772 527.1 705.026 526.74C704.292 526.38 703.712 525.807 703.286 525.02C702.872 524.22 702.666 523.16 702.666 521.84C702.666 520.52 702.872 519.46 703.286 518.66C703.712 517.86 704.292 517.28 705.026 516.92C705.772 516.56 706.619 516.38 707.566 516.38ZM707.566 516.78C707.032 516.78 706.586 517.18 706.226 517.98C705.866 518.767 705.686 520.053 705.686 521.84C705.686 523.627 705.866 524.913 706.226 525.7C706.586 526.487 707.032 526.88 707.566 526.88C708.112 526.88 708.559 526.487 708.906 525.7C709.266 524.913 709.446 523.627 709.446 521.84C709.446 520.053 709.266 518.767 708.906 517.98C708.559 517.18 708.112 516.78 707.566 516.78ZM731.762 512.84V513.24C731.336 513.293 731.016 513.407 730.802 513.58C730.589 513.74 730.442 514 730.362 514.36C730.296 514.72 730.262 515.227 730.262 515.88V527.04C730.102 527.027 729.936 527.02 729.762 527.02C729.602 527.02 729.429 527.027 729.242 527.04L720.562 516.04V523.72C720.562 524.453 720.602 525.02 720.682 525.42C720.762 525.807 720.936 526.087 721.202 526.26C721.482 526.42 721.916 526.533 722.502 526.6V527C722.249 526.973 721.916 526.96 721.502 526.96C721.089 526.947 720.702 526.94 720.342 526.94C720.036 526.94 719.722 526.947 719.402 526.96C719.082 526.96 718.816 526.973 718.602 527V526.6C719.029 526.533 719.349 526.42 719.562 526.26C719.776 526.1 719.916 525.84 719.982 525.48C720.062 525.107 720.102 524.6 720.102 523.96V514.96C720.102 514.467 720.062 514.107 719.982 513.88C719.916 513.64 719.769 513.48 719.542 513.4C719.329 513.307 719.016 513.253 718.602 513.24V512.84C718.816 512.853 719.082 512.867 719.402 512.88C719.722 512.893 720.036 512.9 720.342 512.9C720.662 512.9 720.969 512.893 721.262 512.88C721.556 512.867 721.822 512.853 722.062 512.84L729.802 522.38V516.12C729.802 515.387 729.762 514.827 729.682 514.44C729.602 514.04 729.422 513.753 729.142 513.58C728.876 513.407 728.449 513.293 727.862 513.24V512.84C728.116 512.853 728.449 512.867 728.862 512.88C729.276 512.893 729.662 512.9 730.022 512.9C730.342 512.9 730.656 512.893 730.962 512.88C731.282 512.867 731.549 512.853 731.762 512.84ZM737.585 516.38C738.759 516.38 739.679 516.727 740.345 517.42C741.012 518.113 741.345 519.247 741.345 520.82H734.765L734.725 520.44H738.825C738.839 519.787 738.799 519.187 738.705 518.64C738.612 518.08 738.465 517.633 738.265 517.3C738.065 516.967 737.799 516.8 737.465 516.8C736.999 516.8 736.599 517.093 736.265 517.68C735.945 518.267 735.752 519.24 735.685 520.6L735.745 520.72C735.732 520.88 735.719 521.047 735.705 521.22C735.705 521.393 735.705 521.573 735.705 521.76C735.705 522.68 735.832 523.427 736.085 524C736.352 524.573 736.685 524.993 737.085 525.26C737.485 525.513 737.892 525.64 738.305 525.64C738.585 525.64 738.872 525.6 739.165 525.52C739.472 525.427 739.779 525.267 740.085 525.04C740.392 524.8 740.679 524.467 740.945 524.04L741.305 524.16C741.145 524.667 740.892 525.16 740.545 525.64C740.199 526.12 739.759 526.513 739.225 526.82C738.692 527.127 738.052 527.28 737.305 527.28C736.399 527.28 735.599 527.087 734.905 526.7C734.212 526.313 733.665 525.727 733.265 524.94C732.879 524.153 732.685 523.153 732.685 521.94C732.685 520.7 732.892 519.667 733.305 518.84C733.732 518.013 734.312 517.4 735.045 517C735.792 516.587 736.639 516.38 737.585 516.38ZM746.583 511.34V525.14C746.583 525.7 746.677 526.08 746.863 526.28C747.063 526.48 747.397 526.58 747.863 526.58V527C747.61 526.987 747.23 526.973 746.723 526.96C746.217 526.933 745.703 526.92 745.183 526.92C744.663 526.92 744.137 526.933 743.603 526.96C743.083 526.973 742.69 526.987 742.423 527V526.58C742.89 526.58 743.217 526.48 743.403 526.28C743.603 526.08 743.703 525.7 743.703 525.14V513.74C743.703 513.14 743.61 512.7 743.423 512.42C743.25 512.127 742.917 511.98 742.423 511.98V511.56C742.85 511.6 743.263 511.62 743.663 511.62C744.21 511.62 744.73 511.6 745.223 511.56C745.717 511.507 746.17 511.433 746.583 511.34ZM752.912 511.34V525.14C752.912 525.7 753.005 526.08 753.192 526.28C753.392 526.48 753.725 526.58 754.192 526.58V527C753.938 526.987 753.558 526.973 753.052 526.96C752.545 526.933 752.032 526.92 751.512 526.92C750.992 526.92 750.465 526.933 749.932 526.96C749.412 526.973 749.018 526.987 748.752 527V526.58C749.218 526.58 749.545 526.48 749.732 526.28C749.932 526.08 750.032 525.7 750.032 525.14V513.74C750.032 513.14 749.938 512.7 749.752 512.42C749.578 512.127 749.245 511.98 748.752 511.98V511.56C749.178 511.6 749.592 511.62 749.992 511.62C750.538 511.62 751.058 511.6 751.552 511.56C752.045 511.507 752.498 511.433 752.912 511.34ZM757.803 527.14C757.203 527.14 756.703 527.027 756.303 526.8C755.903 526.573 755.609 526.273 755.423 525.9C755.236 525.513 755.143 525.093 755.143 524.64C755.143 524.067 755.269 523.6 755.523 523.24C755.789 522.88 756.129 522.587 756.543 522.36C756.956 522.133 757.389 521.947 757.843 521.8C758.309 521.653 758.749 521.513 759.163 521.38C759.589 521.233 759.929 521.067 760.183 520.88C760.449 520.68 760.583 520.427 760.583 520.12V518.56C760.583 518.213 760.523 517.907 760.403 517.64C760.296 517.36 760.123 517.147 759.883 517C759.656 516.853 759.356 516.78 758.983 516.78C758.716 516.78 758.449 516.82 758.183 516.9C757.916 516.967 757.696 517.087 757.523 517.26C757.896 517.393 758.183 517.6 758.383 517.88C758.596 518.147 758.703 518.453 758.703 518.8C758.703 519.253 758.543 519.613 758.223 519.88C757.916 520.147 757.549 520.28 757.123 520.28C756.643 520.28 756.276 520.133 756.023 519.84C755.783 519.533 755.663 519.167 755.663 518.74C755.663 518.353 755.756 518.033 755.943 517.78C756.143 517.527 756.416 517.287 756.763 517.06C757.136 516.847 757.583 516.68 758.103 516.56C758.636 516.44 759.209 516.38 759.823 516.38C760.436 516.38 760.989 516.447 761.483 516.58C761.976 516.7 762.389 516.927 762.723 517.26C763.029 517.567 763.229 517.947 763.323 518.4C763.416 518.84 763.463 519.4 763.463 520.08V525.52C763.463 525.853 763.496 526.087 763.563 526.22C763.629 526.34 763.743 526.4 763.903 526.4C764.023 526.4 764.136 526.367 764.243 526.3C764.363 526.233 764.489 526.153 764.623 526.06L764.823 526.4C764.543 526.64 764.216 526.827 763.843 526.96C763.483 527.08 763.076 527.14 762.623 527.14C762.129 527.14 761.736 527.073 761.443 526.94C761.149 526.793 760.936 526.6 760.803 526.36C760.683 526.12 760.623 525.84 760.623 525.52C760.303 526.027 759.916 526.427 759.463 526.72C759.009 527 758.456 527.14 757.803 527.14ZM759.223 525.86C759.489 525.86 759.729 525.8 759.943 525.68C760.169 525.547 760.383 525.333 760.583 525.04V520.94C760.463 521.14 760.296 521.32 760.083 521.48C759.869 521.64 759.643 521.807 759.403 521.98C759.163 522.14 758.929 522.32 758.703 522.52C758.489 522.72 758.316 522.967 758.183 523.26C758.049 523.553 757.983 523.907 757.983 524.32C757.983 524.84 758.096 525.227 758.323 525.48C758.549 525.733 758.849 525.86 759.223 525.86ZM776.464 512.84V513.24C776.011 513.253 775.664 513.307 775.424 513.4C775.198 513.48 775.044 513.64 774.964 513.88C774.884 514.107 774.844 514.467 774.844 514.96V525.12C774.844 525.533 774.871 525.84 774.924 526.04C774.991 526.24 775.111 526.373 775.284 526.44C775.471 526.507 775.744 526.54 776.104 526.54H777.084C777.538 526.54 777.964 526.433 778.364 526.22C778.764 526.007 779.124 525.707 779.444 525.32C779.764 524.92 780.031 524.447 780.244 523.9C780.458 523.353 780.618 522.747 780.724 522.08H781.184C781.144 522.533 781.124 523.12 781.124 523.84C781.124 524.147 781.131 524.593 781.144 525.18C781.158 525.767 781.198 526.373 781.264 527C780.584 526.973 779.818 526.96 778.964 526.96C778.111 526.947 777.351 526.94 776.684 526.94C776.351 526.94 775.924 526.94 775.404 526.94C774.884 526.94 774.324 526.947 773.724 526.96C773.124 526.96 772.518 526.967 771.904 526.98C771.291 526.98 770.711 526.987 770.164 527V526.6C770.591 526.573 770.911 526.52 771.124 526.44C771.338 526.36 771.478 526.2 771.544 525.96C771.624 525.72 771.664 525.36 771.664 524.88V514.96C771.664 514.467 771.624 514.107 771.544 513.88C771.478 513.64 771.331 513.48 771.104 513.4C770.891 513.307 770.578 513.253 770.164 513.24V512.84C770.498 512.853 770.944 512.867 771.504 512.88C772.078 512.893 772.684 512.9 773.324 512.9C773.911 512.9 774.484 512.893 775.044 512.88C775.618 512.867 776.091 512.853 776.464 512.84ZM784.951 527.14C784.351 527.14 783.851 527.027 783.451 526.8C783.051 526.573 782.758 526.273 782.571 525.9C782.384 525.513 782.291 525.093 782.291 524.64C782.291 524.067 782.418 523.6 782.671 523.24C782.938 522.88 783.278 522.587 783.691 522.36C784.104 522.133 784.538 521.947 784.991 521.8C785.458 521.653 785.898 521.513 786.311 521.38C786.738 521.233 787.078 521.067 787.331 520.88C787.598 520.68 787.731 520.427 787.731 520.12V518.56C787.731 518.213 787.671 517.907 787.551 517.64C787.444 517.36 787.271 517.147 787.031 517C786.804 516.853 786.504 516.78 786.131 516.78C785.864 516.78 785.598 516.82 785.331 516.9C785.064 516.967 784.844 517.087 784.671 517.26C785.044 517.393 785.331 517.6 785.531 517.88C785.744 518.147 785.851 518.453 785.851 518.8C785.851 519.253 785.691 519.613 785.371 519.88C785.064 520.147 784.698 520.28 784.271 520.28C783.791 520.28 783.424 520.133 783.171 519.84C782.931 519.533 782.811 519.167 782.811 518.74C782.811 518.353 782.904 518.033 783.091 517.78C783.291 517.527 783.564 517.287 783.911 517.06C784.284 516.847 784.731 516.68 785.251 516.56C785.784 516.44 786.358 516.38 786.971 516.38C787.584 516.38 788.138 516.447 788.631 516.58C789.124 516.7 789.538 516.927 789.871 517.26C790.178 517.567 790.378 517.947 790.471 518.4C790.564 518.84 790.611 519.4 790.611 520.08V525.52C790.611 525.853 790.644 526.087 790.711 526.22C790.778 526.34 790.891 526.4 791.051 526.4C791.171 526.4 791.284 526.367 791.391 526.3C791.511 526.233 791.638 526.153 791.771 526.06L791.971 526.4C791.691 526.64 791.364 526.827 790.991 526.96C790.631 527.08 790.224 527.14 789.771 527.14C789.278 527.14 788.884 527.073 788.591 526.94C788.298 526.793 788.084 526.6 787.951 526.36C787.831 526.12 787.771 525.84 787.771 525.52C787.451 526.027 787.064 526.427 786.611 526.72C786.158 527 785.604 527.14 784.951 527.14ZM786.371 525.86C786.638 525.86 786.878 525.8 787.091 525.68C787.318 525.547 787.531 525.333 787.731 525.04V520.94C787.611 521.14 787.444 521.32 787.231 521.48C787.018 521.64 786.791 521.807 786.551 521.98C786.311 522.14 786.078 522.32 785.851 522.52C785.638 522.72 785.464 522.967 785.331 523.26C785.198 523.553 785.131 523.907 785.131 524.32C785.131 524.84 785.244 525.227 785.471 525.48C785.698 525.733 785.998 525.86 786.371 525.86ZM799.423 516.38C799.849 516.38 800.196 516.473 800.463 516.66C800.729 516.833 800.923 517.06 801.043 517.34C801.176 517.62 801.243 517.913 801.243 518.22C801.243 518.713 801.096 519.12 800.803 519.44C800.523 519.747 800.149 519.9 799.683 519.9C799.216 519.9 798.849 519.787 798.583 519.56C798.329 519.32 798.203 519.007 798.203 518.62C798.203 518.247 798.283 517.94 798.443 517.7C798.616 517.447 798.829 517.233 799.083 517.06C798.896 517.007 798.709 517.013 798.523 517.08C798.269 517.12 798.029 517.227 797.803 517.4C797.576 517.56 797.383 517.767 797.223 518.02C797.063 518.26 796.936 518.527 796.843 518.82C796.749 519.1 796.703 519.373 796.703 519.64V524.94C796.703 525.58 796.856 526.013 797.163 526.24C797.483 526.467 797.956 526.58 798.583 526.58V527C798.276 526.987 797.829 526.973 797.243 526.96C796.656 526.933 796.043 526.92 795.403 526.92C794.869 526.92 794.329 526.933 793.783 526.96C793.236 526.973 792.823 526.987 792.543 527V526.58C793.009 526.58 793.336 526.48 793.523 526.28C793.723 526.08 793.823 525.7 793.823 525.14V518.84C793.823 518.24 793.729 517.8 793.543 517.52C793.369 517.227 793.036 517.08 792.543 517.08V516.66C792.969 516.7 793.383 516.72 793.783 516.72C794.343 516.72 794.863 516.7 795.343 516.66C795.836 516.607 796.289 516.533 796.703 516.44V518.3C796.863 517.94 797.076 517.613 797.342 517.32C797.609 517.027 797.916 516.8 798.263 516.64C798.609 516.467 798.996 516.38 799.423 516.38ZM805.838 516.38C806.398 516.38 806.885 516.453 807.298 516.6C807.725 516.733 808.032 516.867 808.218 517C808.672 517.307 808.952 517.107 809.058 516.4H809.478C809.452 516.773 809.432 517.233 809.418 517.78C809.405 518.313 809.398 519.027 809.398 519.92H808.978C808.912 519.427 808.785 518.94 808.598 518.46C808.412 517.98 808.138 517.587 807.778 517.28C807.432 516.973 806.978 516.82 806.418 516.82C806.032 516.82 805.705 516.933 805.438 517.16C805.172 517.373 805.038 517.687 805.038 518.1C805.038 518.5 805.158 518.853 805.398 519.16C805.638 519.453 805.945 519.74 806.318 520.02C806.705 520.287 807.105 520.573 807.518 520.88C807.958 521.213 808.358 521.547 808.718 521.88C809.078 522.2 809.365 522.553 809.578 522.94C809.792 523.327 809.898 523.787 809.898 524.32C809.898 524.92 809.725 525.447 809.378 525.9C809.032 526.34 808.572 526.68 807.998 526.92C807.438 527.16 806.812 527.28 806.118 527.28C805.718 527.28 805.358 527.24 805.038 527.16C804.732 527.08 804.465 526.98 804.238 526.86C804.065 526.78 803.898 526.707 803.738 526.64C803.592 526.56 803.452 526.493 803.318 526.44C803.185 526.4 803.065 526.447 802.958 526.58C802.865 526.713 802.792 526.9 802.738 527.14H802.318C802.345 526.713 802.365 526.193 802.378 525.58C802.392 524.967 802.398 524.153 802.398 523.14H802.818C802.898 523.86 803.045 524.5 803.258 525.06C803.472 525.607 803.758 526.04 804.118 526.36C804.492 526.667 804.958 526.82 805.518 526.82C805.745 526.82 805.965 526.773 806.178 526.68C806.392 526.587 806.565 526.433 806.698 526.22C806.845 526.007 806.918 525.733 806.918 525.4C806.918 524.813 806.725 524.327 806.338 523.94C805.965 523.553 805.485 523.133 804.898 522.68C804.472 522.333 804.065 521.993 803.678 521.66C803.305 521.313 802.998 520.94 802.758 520.54C802.518 520.127 802.398 519.66 802.398 519.14C802.398 518.54 802.558 518.033 802.878 517.62C803.198 517.207 803.618 516.9 804.138 516.7C804.672 516.487 805.238 516.38 805.838 516.38ZM816.277 516.38C817.45 516.38 818.37 516.727 819.037 517.42C819.703 518.113 820.037 519.247 820.037 520.82H813.457L813.417 520.44H817.517C817.53 519.787 817.49 519.187 817.397 518.64C817.303 518.08 817.157 517.633 816.957 517.3C816.757 516.967 816.49 516.8 816.157 516.8C815.69 516.8 815.29 517.093 814.957 517.68C814.637 518.267 814.443 519.24 814.377 520.6L814.437 520.72C814.423 520.88 814.41 521.047 814.397 521.22C814.397 521.393 814.397 521.573 814.397 521.76C814.397 522.68 814.523 523.427 814.777 524C815.043 524.573 815.377 524.993 815.777 525.26C816.177 525.513 816.583 525.64 816.997 525.64C817.277 525.64 817.563 525.6 817.857 525.52C818.163 525.427 818.47 525.267 818.777 525.04C819.083 524.8 819.37 524.467 819.637 524.04L819.997 524.16C819.837 524.667 819.583 525.16 819.237 525.64C818.89 526.12 818.45 526.513 817.917 526.82C817.383 527.127 816.743 527.28 815.997 527.28C815.09 527.28 814.29 527.087 813.597 526.7C812.903 526.313 812.357 525.727 811.957 524.94C811.57 524.153 811.377 523.153 811.377 521.94C811.377 520.7 811.583 519.667 811.997 518.84C812.423 518.013 813.003 517.4 813.737 517C814.483 516.587 815.33 516.38 816.277 516.38ZM828.518 516.38C829.078 516.38 829.531 516.453 829.878 516.6C830.238 516.733 830.518 516.92 830.718 517.16C830.931 517.413 831.084 517.74 831.178 518.14C831.284 518.54 831.338 519.08 831.338 519.76V525.14C831.338 525.7 831.431 526.08 831.618 526.28C831.818 526.48 832.151 526.58 832.618 526.58V527C832.364 526.987 831.984 526.973 831.478 526.96C830.971 526.933 830.471 526.92 829.978 526.92C829.471 526.92 828.971 526.933 828.478 526.96C827.998 526.973 827.631 526.987 827.378 527V526.58C827.778 526.58 828.058 526.48 828.218 526.28C828.378 526.08 828.458 525.7 828.458 525.14V518.92C828.458 518.587 828.424 518.3 828.358 518.06C828.291 517.807 828.171 517.613 827.998 517.48C827.824 517.333 827.564 517.26 827.218 517.26C826.858 517.26 826.524 517.36 826.218 517.56C825.924 517.76 825.684 518.04 825.498 518.4C825.324 518.747 825.238 519.14 825.238 519.58V525.14C825.238 525.7 825.318 526.08 825.478 526.28C825.651 526.48 825.931 526.58 826.318 526.58V527C826.078 526.987 825.724 526.973 825.258 526.96C824.804 526.933 824.331 526.92 823.838 526.92C823.331 526.92 822.811 526.933 822.278 526.96C821.744 526.973 821.344 526.987 821.078 527V526.58C821.544 526.58 821.871 526.48 822.058 526.28C822.258 526.08 822.358 525.7 822.358 525.14V518.84C822.358 518.24 822.264 517.8 822.078 517.52C821.904 517.227 821.571 517.08 821.078 517.08V516.66C821.504 516.7 821.918 516.72 822.318 516.72C822.878 516.72 823.398 516.7 823.878 516.66C824.371 516.607 824.824 516.533 825.238 516.44V518.24C825.571 517.56 826.024 517.08 826.598 516.8C827.171 516.52 827.811 516.38 828.518 516.38ZM469.899 539.74L474.779 552.32C474.979 552.827 475.206 553.167 475.459 553.34C475.713 553.5 475.946 553.587 476.159 553.6V554C475.893 553.973 475.566 553.96 475.179 553.96C474.793 553.947 474.406 553.94 474.019 553.94C473.499 553.94 473.013 553.947 472.559 553.96C472.106 553.96 471.739 553.973 471.459 554V553.6C472.139 553.573 472.573 553.46 472.759 553.26C472.946 553.047 472.906 552.6 472.639 551.92L468.919 541.98L469.239 541.72L465.759 550.76C465.546 551.293 465.419 551.747 465.379 552.12C465.339 552.48 465.373 552.767 465.479 552.98C465.599 553.193 465.793 553.347 466.059 553.44C466.339 553.533 466.686 553.587 467.099 553.6V554C466.726 553.973 466.333 553.96 465.919 553.96C465.519 553.947 465.146 553.94 464.799 553.94C464.466 553.94 464.179 553.947 463.939 553.96C463.713 553.96 463.499 553.973 463.299 554V553.6C463.566 553.533 463.839 553.38 464.119 553.14C464.399 552.887 464.653 552.46 464.879 551.86L469.579 539.74C469.633 539.74 469.686 539.74 469.739 539.74C469.793 539.74 469.846 539.74 469.899 539.74ZM472.339 548.24V548.64H466.379L466.579 548.24H472.339ZM487.818 543.42C488.178 543.42 488.491 543.493 488.758 543.64C489.038 543.787 489.251 543.98 489.398 544.22C489.558 544.447 489.638 544.707 489.638 545C489.638 545.333 489.531 545.627 489.318 545.88C489.118 546.133 488.844 546.26 488.498 546.26C488.218 546.26 487.971 546.173 487.758 546C487.544 545.813 487.438 545.553 487.438 545.22C487.438 544.967 487.504 544.753 487.638 544.58C487.784 544.393 487.944 544.247 488.118 544.14C488.024 544.007 487.884 543.94 487.698 543.94C487.284 543.94 486.904 544.067 486.558 544.32C486.211 544.56 485.918 544.873 485.678 545.26C485.438 545.647 485.251 546.06 485.118 546.5C484.984 546.927 484.918 547.327 484.918 547.7V551.94C484.918 552.593 485.104 553.033 485.478 553.26C485.864 553.473 486.384 553.58 487.038 553.58V554C486.731 553.987 486.298 553.973 485.738 553.96C485.178 553.933 484.584 553.92 483.958 553.92C483.504 553.92 483.051 553.933 482.598 553.96C482.158 553.973 481.824 553.987 481.598 554V553.58C482.144 553.58 482.531 553.48 482.758 553.28C482.998 553.08 483.118 552.7 483.118 552.14V545.88C483.118 545.28 483.011 544.84 482.798 544.56C482.584 544.267 482.184 544.12 481.598 544.12V543.7C482.024 543.74 482.438 543.76 482.838 543.76C483.224 543.76 483.591 543.74 483.938 543.7C484.298 543.647 484.624 543.573 484.918 543.48V545.98C485.064 545.593 485.271 545.207 485.538 544.82C485.818 544.42 486.151 544.087 486.538 543.82C486.924 543.553 487.351 543.42 487.818 543.42ZM494.973 543.42C496.147 543.42 497.06 543.78 497.713 544.5C498.38 545.207 498.713 546.313 498.713 547.82H491.653L491.633 547.44H496.793C496.82 546.787 496.767 546.187 496.633 545.64C496.5 545.08 496.287 544.633 495.993 544.3C495.713 543.967 495.347 543.8 494.893 543.8C494.28 543.8 493.733 544.107 493.253 544.72C492.787 545.333 492.507 546.307 492.413 547.64L492.473 547.72C492.447 547.92 492.427 548.14 492.413 548.38C492.4 548.62 492.393 548.86 492.393 549.1C492.393 550.007 492.54 550.787 492.833 551.44C493.127 552.093 493.507 552.593 493.973 552.94C494.453 553.273 494.947 553.44 495.453 553.44C495.853 553.44 496.233 553.38 496.593 553.26C496.953 553.127 497.287 552.913 497.593 552.62C497.9 552.327 498.167 551.933 498.393 551.44L498.793 551.6C498.647 552.04 498.407 552.467 498.073 552.88C497.74 553.293 497.32 553.633 496.813 553.9C496.307 554.153 495.72 554.28 495.053 554.28C494.093 554.28 493.267 554.06 492.573 553.62C491.893 553.18 491.367 552.573 490.993 551.8C490.633 551.013 490.453 550.113 490.453 549.1C490.453 547.927 490.64 546.92 491.013 546.08C491.387 545.227 491.913 544.573 492.593 544.12C493.273 543.653 494.067 543.42 494.973 543.42ZM503.41 543.48V555.76C503.41 556.333 503.577 556.713 503.91 556.9C504.257 557.1 504.73 557.2 505.33 557.2V557.62C505.037 557.607 504.63 557.587 504.11 557.56C503.59 557.547 503.037 557.54 502.45 557.54C502.037 557.54 501.624 557.547 501.21 557.56C500.81 557.587 500.504 557.607 500.29 557.62V557.2C500.77 557.2 501.11 557.113 501.31 556.94C501.51 556.767 501.61 556.44 501.61 555.96V545.88C501.61 545.28 501.504 544.84 501.29 544.56C501.077 544.267 500.677 544.12 500.09 544.12V543.7C500.517 543.74 500.93 543.76 501.33 543.76C501.717 543.76 502.084 543.74 502.43 543.7C502.79 543.647 503.117 543.573 503.41 543.48ZM506.61 543.42C507.317 543.42 507.95 543.613 508.51 544C509.07 544.373 509.51 544.927 509.83 545.66C510.164 546.393 510.33 547.3 510.33 548.38C510.33 549.1 510.244 549.813 510.07 550.52C509.897 551.213 509.624 551.847 509.25 552.42C508.89 552.98 508.417 553.433 507.83 553.78C507.257 554.113 506.564 554.28 505.75 554.28C505.124 554.28 504.577 554.133 504.11 553.84C503.657 553.547 503.35 553.193 503.19 552.78L503.39 552.5C503.577 552.873 503.844 553.187 504.19 553.44C504.55 553.693 504.997 553.82 505.53 553.82C506.277 553.82 506.857 553.587 507.27 553.12C507.684 552.653 507.97 552.033 508.13 551.26C508.304 550.473 508.39 549.607 508.39 548.66C508.39 547.593 508.304 546.72 508.13 546.04C507.957 545.36 507.697 544.853 507.35 544.52C507.004 544.187 506.577 544.02 506.07 544.02C505.417 544.02 504.824 544.293 504.29 544.84C503.757 545.373 503.417 546.187 503.27 547.28L503.03 547C503.177 545.867 503.577 544.987 504.23 544.36C504.897 543.733 505.69 543.42 506.61 543.42ZM516.751 543.42C517.605 543.42 518.371 543.607 519.051 543.98C519.731 544.353 520.271 544.94 520.671 545.74C521.085 546.54 521.291 547.58 521.291 548.86C521.291 550.14 521.085 551.18 520.671 551.98C520.271 552.767 519.731 553.347 519.051 553.72C518.371 554.093 517.605 554.28 516.751 554.28C515.911 554.28 515.145 554.093 514.451 553.72C513.771 553.347 513.225 552.767 512.811 551.98C512.411 551.18 512.211 550.14 512.211 548.86C512.211 547.58 512.411 546.54 512.811 545.74C513.225 544.94 513.771 544.353 514.451 543.98C515.145 543.607 515.911 543.42 516.751 543.42ZM516.751 543.82C515.991 543.82 515.365 544.213 514.871 545C514.391 545.787 514.151 547.073 514.151 548.86C514.151 550.647 514.391 551.933 514.871 552.72C515.365 553.493 515.991 553.88 516.751 553.88C517.511 553.88 518.131 553.493 518.611 552.72C519.105 551.933 519.351 550.647 519.351 548.86C519.351 547.073 519.105 545.787 518.611 545C518.131 544.213 517.511 543.82 516.751 543.82ZM529.029 543.42C529.389 543.42 529.702 543.493 529.969 543.64C530.249 543.787 530.462 543.98 530.609 544.22C530.769 544.447 530.849 544.707 530.849 545C530.849 545.333 530.742 545.627 530.529 545.88C530.329 546.133 530.055 546.26 529.709 546.26C529.429 546.26 529.182 546.173 528.969 546C528.755 545.813 528.649 545.553 528.649 545.22C528.649 544.967 528.715 544.753 528.849 544.58C528.995 544.393 529.155 544.247 529.329 544.14C529.235 544.007 529.095 543.94 528.909 543.94C528.495 543.94 528.115 544.067 527.769 544.32C527.422 544.56 527.129 544.873 526.889 545.26C526.649 545.647 526.462 546.06 526.329 546.5C526.195 546.927 526.129 547.327 526.129 547.7V551.94C526.129 552.593 526.315 553.033 526.689 553.26C527.075 553.473 527.595 553.58 528.249 553.58V554C527.942 553.987 527.509 553.973 526.949 553.96C526.389 553.933 525.795 553.92 525.169 553.92C524.715 553.92 524.262 553.933 523.809 553.96C523.369 553.973 523.035 553.987 522.809 554V553.58C523.355 553.58 523.742 553.48 523.969 553.28C524.209 553.08 524.329 552.7 524.329 552.14V545.88C524.329 545.28 524.222 544.84 524.009 544.56C523.795 544.267 523.395 544.12 522.809 544.12V543.7C523.235 543.74 523.649 543.76 524.049 543.76C524.435 543.76 524.802 543.74 525.149 543.7C525.509 543.647 525.835 543.573 526.129 543.48V545.98C526.275 545.593 526.482 545.207 526.749 544.82C527.029 544.42 527.362 544.087 527.749 543.82C528.135 543.553 528.562 543.42 529.029 543.42ZM534.935 540.38V543.72H537.895V544.12H534.935V551.86C534.935 552.487 535.048 552.927 535.275 553.18C535.501 553.433 535.815 553.56 536.215 553.56C536.615 553.56 536.961 553.4 537.255 553.08C537.548 552.747 537.801 552.193 538.015 551.42L538.415 551.52C538.281 552.293 538.015 552.947 537.615 553.48C537.228 554.013 536.628 554.28 535.815 554.28C535.361 554.28 534.988 554.22 534.695 554.1C534.401 553.993 534.141 553.833 533.915 553.62C533.621 553.313 533.415 552.947 533.295 552.52C533.188 552.093 533.135 551.527 533.135 550.82V544.12H531.215V543.72H533.135V540.66C533.468 540.647 533.788 540.62 534.095 540.58C534.401 540.54 534.681 540.473 534.935 540.38ZM548.374 538.36C548.747 538.36 549.074 538.413 549.354 538.52C549.647 538.613 549.9 538.74 550.114 538.9C550.314 539.06 550.467 539.247 550.574 539.46C550.68 539.673 550.734 539.9 550.734 540.14C550.734 540.447 550.634 540.7 550.434 540.9C550.234 541.1 549.98 541.2 549.674 541.2C549.38 541.2 549.12 541.107 548.894 540.92C548.68 540.72 548.574 540.453 548.574 540.12C548.574 539.84 548.647 539.613 548.794 539.44C548.954 539.267 549.16 539.153 549.414 539.1C549.374 538.98 549.267 538.88 549.094 538.8C548.934 538.707 548.714 538.66 548.434 538.66C548.127 538.66 547.86 538.727 547.634 538.86C547.42 538.993 547.254 539.173 547.134 539.4C546.974 539.68 546.874 540.1 546.834 540.66C546.794 541.207 546.774 542.053 546.774 543.2V543.72H548.914V544.12H546.774V551.94C546.774 552.593 546.96 553.033 547.334 553.26C547.72 553.473 548.24 553.58 548.894 553.58V554C548.587 553.987 548.154 553.973 547.594 553.96C547.034 553.933 546.44 553.92 545.814 553.92C545.36 553.92 544.907 553.933 544.454 553.96C544.014 553.973 543.68 553.987 543.454 554V553.58C544 553.58 544.387 553.48 544.614 553.28C544.854 553.08 544.974 552.7 544.974 552.14V544.12H543.374V543.72H544.974C544.974 542.933 545.007 542.273 545.074 541.74C545.14 541.207 545.247 540.753 545.394 540.38C545.54 539.993 545.74 539.653 545.994 539.36C546.26 539.053 546.6 538.813 547.014 538.64C547.427 538.453 547.88 538.36 548.374 538.36ZM554.642 543.42C555.495 543.42 556.262 543.607 556.942 543.98C557.622 544.353 558.162 544.94 558.562 545.74C558.975 546.54 559.182 547.58 559.182 548.86C559.182 550.14 558.975 551.18 558.562 551.98C558.162 552.767 557.622 553.347 556.942 553.72C556.262 554.093 555.495 554.28 554.642 554.28C553.802 554.28 553.035 554.093 552.342 553.72C551.662 553.347 551.115 552.767 550.702 551.98C550.302 551.18 550.102 550.14 550.102 548.86C550.102 547.58 550.302 546.54 550.702 545.74C551.115 544.94 551.662 544.353 552.342 543.98C553.035 543.607 553.802 543.42 554.642 543.42ZM554.642 543.82C553.882 543.82 553.255 544.213 552.762 545C552.282 545.787 552.042 547.073 552.042 548.86C552.042 550.647 552.282 551.933 552.762 552.72C553.255 553.493 553.882 553.88 554.642 553.88C555.402 553.88 556.022 553.493 556.502 552.72C556.995 551.933 557.242 550.647 557.242 548.86C557.242 547.073 556.995 545.787 556.502 545C556.022 544.213 555.402 543.82 554.642 543.82ZM566.919 543.42C567.279 543.42 567.592 543.493 567.859 543.64C568.139 543.787 568.352 543.98 568.499 544.22C568.659 544.447 568.739 544.707 568.739 545C568.739 545.333 568.632 545.627 568.419 545.88C568.219 546.133 567.946 546.26 567.599 546.26C567.319 546.26 567.072 546.173 566.859 546C566.646 545.813 566.539 545.553 566.539 545.22C566.539 544.967 566.606 544.753 566.739 544.58C566.886 544.393 567.046 544.247 567.219 544.14C567.126 544.007 566.986 543.94 566.799 543.94C566.386 543.94 566.006 544.067 565.659 544.32C565.312 544.56 565.019 544.873 564.779 545.26C564.539 545.647 564.352 546.06 564.219 546.5C564.086 546.927 564.019 547.327 564.019 547.7V551.94C564.019 552.593 564.206 553.033 564.579 553.26C564.966 553.473 565.486 553.58 566.139 553.58V554C565.832 553.987 565.399 553.973 564.839 553.96C564.279 553.933 563.686 553.92 563.059 553.92C562.606 553.92 562.152 553.933 561.699 553.96C561.259 553.973 560.926 553.987 560.699 554V553.58C561.246 553.58 561.632 553.48 561.859 553.28C562.099 553.08 562.219 552.7 562.219 552.14V545.88C562.219 545.28 562.112 544.84 561.899 544.56C561.686 544.267 561.286 544.12 560.699 544.12V543.7C561.126 543.74 561.539 543.76 561.939 543.76C562.326 543.76 562.692 543.74 563.039 543.7C563.399 543.647 563.726 543.573 564.019 543.48V545.98C564.166 545.593 564.372 545.207 564.639 544.82C564.919 544.42 565.252 544.087 565.639 543.82C566.026 543.553 566.452 543.42 566.919 543.42ZM574.416 539.84C574.696 539.853 575.063 539.867 575.516 539.88C575.97 539.893 576.416 539.9 576.856 539.9C577.483 539.9 578.083 539.893 578.656 539.88C579.23 539.867 579.636 539.86 579.876 539.86C581.276 539.86 582.33 540.153 583.036 540.74C583.743 541.327 584.096 542.08 584.096 543C584.096 543.467 583.996 543.927 583.796 544.38C583.61 544.82 583.29 545.227 582.836 545.6C582.396 545.96 581.803 546.253 581.056 546.48V546.52C582.11 546.653 582.93 546.907 583.516 547.28C584.116 547.64 584.536 548.067 584.776 548.56C585.016 549.053 585.136 549.573 585.136 550.12C585.136 550.88 584.943 551.553 584.556 552.14C584.183 552.713 583.636 553.167 582.916 553.5C582.196 553.833 581.336 554 580.336 554C580.043 554 579.603 553.993 579.016 553.98C578.43 553.953 577.723 553.94 576.896 553.94C576.43 553.94 575.97 553.947 575.516 553.96C575.063 553.96 574.696 553.973 574.416 554V553.6C574.87 553.573 575.21 553.52 575.436 553.44C575.676 553.36 575.836 553.2 575.916 552.96C575.996 552.72 576.036 552.36 576.036 551.88V541.96C576.036 541.467 575.996 541.107 575.916 540.88C575.836 540.64 575.676 540.48 575.436 540.4C575.21 540.307 574.87 540.253 574.416 540.24V539.84ZM579.376 540.24C578.763 540.24 578.363 540.353 578.176 540.58C577.99 540.807 577.896 541.267 577.896 541.96V551.88C577.896 552.347 577.936 552.7 578.016 552.94C578.096 553.18 578.243 553.34 578.456 553.42C578.67 553.5 578.983 553.54 579.396 553.54C580.703 553.54 581.65 553.24 582.236 552.64C582.836 552.027 583.136 551.16 583.136 550.04C583.136 549.013 582.856 548.22 582.296 547.66C581.75 547.1 580.843 546.82 579.576 546.82H577.516C577.516 546.82 577.516 546.767 577.516 546.66C577.516 546.54 577.516 546.48 577.516 546.48H579.236C580.023 546.48 580.63 546.333 581.056 546.04C581.483 545.733 581.776 545.333 581.936 544.84C582.096 544.333 582.176 543.793 582.176 543.22C582.176 542.233 581.956 541.493 581.516 541C581.09 540.493 580.376 540.24 579.376 540.24ZM589.621 538.32V552.14C589.621 552.7 589.735 553.08 589.961 553.28C590.201 553.48 590.595 553.58 591.141 553.58V554C590.915 553.987 590.568 553.973 590.101 553.96C589.648 553.933 589.188 553.92 588.721 553.92C588.268 553.92 587.808 553.933 587.341 553.96C586.875 553.973 586.528 553.987 586.301 554V553.58C586.848 553.58 587.235 553.48 587.461 553.28C587.701 553.08 587.821 552.7 587.821 552.14V540.72C587.821 540.12 587.715 539.68 587.501 539.4C587.288 539.107 586.888 538.96 586.301 538.96V538.54C586.728 538.58 587.141 538.6 587.541 538.6C587.928 538.6 588.295 538.58 588.641 538.54C589.001 538.487 589.328 538.413 589.621 538.32ZM595.004 554.14C594.457 554.14 593.984 554.04 593.584 553.84C593.184 553.627 592.877 553.333 592.664 552.96C592.464 552.587 592.364 552.153 592.364 551.66C592.364 551.073 592.497 550.593 592.764 550.22C593.044 549.847 593.397 549.547 593.824 549.32C594.251 549.093 594.697 548.907 595.164 548.76C595.644 548.6 596.097 548.453 596.524 548.32C596.951 548.173 597.297 548.007 597.564 547.82C597.844 547.633 597.984 547.387 597.984 547.08V545.84C597.984 545.28 597.897 544.853 597.724 544.56C597.564 544.267 597.344 544.073 597.064 543.98C596.784 543.873 596.471 543.82 596.124 543.82C595.791 543.82 595.431 543.867 595.044 543.96C594.671 544.053 594.371 544.247 594.144 544.54C594.397 544.593 594.617 544.727 594.804 544.94C594.991 545.153 595.084 545.427 595.084 545.76C595.084 546.093 594.977 546.36 594.764 546.56C594.551 546.747 594.277 546.84 593.944 546.84C593.557 546.84 593.271 546.72 593.084 546.48C592.911 546.227 592.824 545.947 592.824 545.64C592.824 545.293 592.911 545.013 593.084 544.8C593.257 544.587 593.477 544.387 593.744 544.2C594.051 543.987 594.444 543.807 594.924 543.66C595.417 543.5 595.971 543.42 596.584 543.42C597.131 543.42 597.597 543.487 597.984 543.62C598.371 543.74 598.691 543.92 598.944 544.16C599.291 544.48 599.517 544.873 599.624 545.34C599.731 545.793 599.784 546.34 599.784 546.98V552.54C599.784 552.873 599.831 553.113 599.924 553.26C600.031 553.407 600.191 553.48 600.404 553.48C600.551 553.48 600.691 553.447 600.824 553.38C600.957 553.313 601.117 553.207 601.304 553.06L601.524 553.4C601.244 553.613 600.977 553.793 600.724 553.94C600.471 554.073 600.131 554.14 599.704 554.14C599.317 554.14 598.997 554.073 598.744 553.94C598.491 553.807 598.297 553.613 598.164 553.36C598.044 553.093 597.984 552.76 597.984 552.36C597.624 552.96 597.191 553.407 596.684 553.7C596.191 553.993 595.631 554.14 595.004 554.14ZM595.724 553.34C596.164 553.34 596.571 553.213 596.944 552.96C597.331 552.707 597.677 552.327 597.984 551.82V547.9C597.824 548.127 597.591 548.32 597.284 548.48C596.977 548.627 596.644 548.78 596.284 548.94C595.924 549.087 595.577 549.267 595.244 549.48C594.924 549.68 594.657 549.947 594.444 550.28C594.231 550.613 594.124 551.047 594.124 551.58C594.124 552.113 594.264 552.54 594.544 552.86C594.837 553.18 595.231 553.34 595.724 553.34ZM607.125 543.42C607.552 543.42 607.965 543.473 608.365 543.58C608.765 543.687 609.125 543.847 609.445 544.06C609.752 544.26 609.985 544.493 610.145 544.76C610.305 545.013 610.385 545.293 610.385 545.6C610.385 545.96 610.285 546.24 610.085 546.44C609.885 546.627 609.632 546.72 609.325 546.72C609.032 546.72 608.772 546.633 608.545 546.46C608.332 546.287 608.225 546.04 608.225 545.72C608.225 545.413 608.305 545.167 608.465 544.98C608.638 544.793 608.838 544.673 609.065 544.62C608.932 544.38 608.692 544.18 608.345 544.02C608.012 543.86 607.652 543.78 607.265 543.78C606.932 543.78 606.598 543.86 606.265 544.02C605.932 544.18 605.625 544.447 605.345 544.82C605.065 545.18 604.838 545.68 604.665 546.32C604.492 546.947 604.405 547.733 604.405 548.68C604.405 549.853 604.538 550.787 604.805 551.48C605.072 552.173 605.418 552.673 605.845 552.98C606.285 553.273 606.765 553.42 607.285 553.42C607.632 553.42 607.985 553.353 608.345 553.22C608.705 553.087 609.045 552.873 609.365 552.58C609.685 552.273 609.958 551.867 610.185 551.36L610.565 551.5C610.432 551.927 610.212 552.36 609.905 552.8C609.598 553.227 609.198 553.58 608.705 553.86C608.212 554.14 607.605 554.28 606.885 554.28C606.058 554.28 605.312 554.067 604.645 553.64C603.978 553.213 603.445 552.607 603.045 551.82C602.658 551.02 602.465 550.073 602.465 548.98C602.465 547.887 602.658 546.927 603.045 546.1C603.445 545.26 603.998 544.607 604.705 544.14C605.412 543.66 606.218 543.42 607.125 543.42ZM614.991 538.32V552.14C614.991 552.7 615.091 553.08 615.291 553.28C615.491 553.48 615.831 553.58 616.311 553.58V554C616.098 553.987 615.778 553.973 615.351 553.96C614.938 553.933 614.518 553.92 614.091 553.92C613.638 553.92 613.178 553.933 612.711 553.96C612.245 553.973 611.898 553.987 611.671 554V553.58C612.218 553.58 612.605 553.48 612.831 553.28C613.071 553.08 613.191 552.7 613.191 552.14V540.72C613.191 540.12 613.085 539.68 612.871 539.4C612.658 539.107 612.258 538.96 611.671 538.96V538.54C612.098 538.58 612.511 538.6 612.911 538.6C613.298 538.6 613.665 538.58 614.011 538.54C614.371 538.487 614.698 538.413 614.991 538.32ZM621.351 543.7V544.1C621.018 544.127 620.705 544.22 620.411 544.38C620.118 544.527 619.831 544.747 619.551 545.04L616.731 548L617.011 547.44L620.731 552.54C620.958 552.847 621.171 553.087 621.371 553.26C621.585 553.433 621.838 553.54 622.131 553.58V554C621.985 553.987 621.751 553.973 621.431 553.96C621.125 553.933 620.818 553.92 620.511 553.92C620.098 553.92 619.678 553.933 619.251 553.96C618.825 553.973 618.505 553.987 618.291 554V553.58C618.558 553.58 618.745 553.513 618.851 553.38C618.958 553.247 618.938 553.087 618.791 552.9L616.491 549.54C616.238 549.18 616.005 548.947 615.791 548.84C615.591 548.733 615.298 548.673 614.911 548.66V548.26C615.338 548.207 615.685 548.12 615.951 548C616.218 547.867 616.471 547.673 616.711 547.42L618.191 545.88C618.618 545.44 618.831 545.093 618.831 544.84C618.831 544.573 618.691 544.387 618.411 544.28C618.145 544.16 617.791 544.1 617.351 544.1V543.7C617.698 543.713 618.085 543.733 618.511 543.76C618.951 543.773 619.318 543.78 619.611 543.78C619.838 543.78 620.058 543.78 620.271 543.78C620.485 543.767 620.685 543.753 620.871 543.74C621.058 543.727 621.218 543.713 621.351 543.7ZM636.214 554V553.6C636.667 553.573 637.007 553.52 637.234 553.44C637.474 553.36 637.634 553.2 637.714 552.96C637.794 552.72 637.834 552.36 637.834 551.88V541.96C637.834 541.467 637.794 541.107 637.714 540.88C637.634 540.64 637.474 540.48 637.234 540.4C637.007 540.307 636.667 540.253 636.214 540.24V539.84C636.52 539.853 636.907 539.867 637.374 539.88C637.84 539.893 638.3 539.9 638.754 539.9C639.274 539.9 639.76 539.893 640.214 539.88C640.667 539.867 641.034 539.853 641.314 539.84V540.24C640.86 540.253 640.514 540.307 640.274 540.4C640.047 540.48 639.894 540.64 639.814 540.88C639.734 541.107 639.694 541.467 639.694 541.96V551.88C639.694 552.36 639.734 552.72 639.814 552.96C639.894 553.2 640.047 553.36 640.274 553.44C640.514 553.52 640.86 553.573 641.314 553.6V554C641.034 553.973 640.667 553.96 640.214 553.96C639.76 553.947 639.274 553.94 638.754 553.94C638.3 553.94 637.84 553.947 637.374 553.96C636.907 553.96 636.52 553.973 636.214 554ZM627.854 554V553.6C628.307 553.573 628.647 553.52 628.874 553.44C629.114 553.36 629.274 553.2 629.354 552.96C629.434 552.72 629.474 552.36 629.474 551.88V541.96C629.474 541.467 629.434 541.107 629.354 540.88C629.274 540.64 629.114 540.48 628.874 540.4C628.647 540.307 628.307 540.253 627.854 540.24V539.84C628.134 539.853 628.5 539.867 628.954 539.88C629.407 539.893 629.894 539.9 630.414 539.9C630.88 539.9 631.34 539.893 631.794 539.88C632.26 539.867 632.647 539.853 632.954 539.84V540.24C632.5 540.253 632.154 540.307 631.914 540.4C631.687 540.48 631.534 540.64 631.454 540.88C631.374 541.107 631.334 541.467 631.334 541.96V551.88C631.334 552.36 631.374 552.72 631.454 552.96C631.534 553.2 631.687 553.36 631.914 553.44C632.154 553.52 632.5 553.573 632.954 553.6V554C632.647 553.973 632.26 553.96 631.794 553.96C631.34 553.947 630.88 553.94 630.414 553.94C629.894 553.94 629.407 553.947 628.954 553.96C628.5 553.96 628.134 553.973 627.854 554ZM630.634 547.08V546.68H638.534V547.08H630.634ZM645.01 538.7C645.357 538.7 645.657 538.827 645.91 539.08C646.164 539.333 646.29 539.633 646.29 539.98C646.29 540.327 646.164 540.627 645.91 540.88C645.657 541.133 645.357 541.26 645.01 541.26C644.664 541.26 644.364 541.133 644.11 540.88C643.857 540.627 643.73 540.327 643.73 539.98C643.73 539.633 643.857 539.333 644.11 539.08C644.364 538.827 644.664 538.7 645.01 538.7ZM646.05 543.48V552.14C646.05 552.7 646.164 553.08 646.39 553.28C646.63 553.48 647.024 553.58 647.57 553.58V554C647.344 553.987 646.997 553.973 646.53 553.96C646.077 553.933 645.617 553.92 645.15 553.92C644.697 553.92 644.237 553.933 643.77 553.96C643.304 553.973 642.957 553.987 642.73 554V553.58C643.277 553.58 643.664 553.48 643.89 553.28C644.13 553.08 644.25 552.7 644.25 552.14V545.88C644.25 545.28 644.144 544.84 643.93 544.56C643.717 544.267 643.317 544.12 642.73 544.12V543.7C643.157 543.74 643.57 543.76 643.97 543.76C644.357 543.76 644.724 543.74 645.07 543.7C645.43 543.647 645.757 543.573 646.05 543.48ZM652.17 543.42C652.703 543.42 653.156 543.507 653.53 543.68C653.903 543.853 654.176 544.013 654.35 544.16C654.79 544.52 655.056 544.28 655.15 543.44H655.61C655.583 543.813 655.563 544.26 655.55 544.78C655.536 545.287 655.53 545.973 655.53 546.84H655.07C654.99 546.347 654.85 545.867 654.65 545.4C654.463 544.933 654.183 544.553 653.81 544.26C653.436 543.953 652.95 543.8 652.35 543.8C651.883 543.8 651.49 543.933 651.17 544.2C650.863 544.453 650.71 544.833 650.71 545.34C650.71 545.74 650.83 546.087 651.07 546.38C651.31 546.66 651.623 546.927 652.01 547.18C652.396 547.42 652.816 547.687 653.27 547.98C653.776 548.3 654.236 548.627 654.65 548.96C655.063 549.293 655.39 549.66 655.63 550.06C655.883 550.46 656.01 550.933 656.01 551.48C656.01 552.093 655.85 552.607 655.53 553.02C655.21 553.433 654.79 553.747 654.27 553.96C653.763 554.173 653.203 554.28 652.59 554.28C652.296 554.28 652.016 554.253 651.75 554.2C651.496 554.16 651.25 554.093 651.01 554C650.876 553.933 650.736 553.853 650.59 553.76C650.456 553.667 650.323 553.567 650.19 553.46C650.056 553.353 649.936 553.36 649.83 553.48C649.723 553.587 649.643 553.807 649.59 554.14H649.13C649.156 553.713 649.176 553.193 649.19 552.58C649.203 551.967 649.21 551.153 649.21 550.14H649.67C649.763 550.887 649.896 551.54 650.07 552.1C650.243 552.66 650.516 553.1 650.89 553.42C651.263 553.727 651.783 553.88 652.45 553.88C652.716 553.88 652.983 553.82 653.25 553.7C653.53 553.58 653.763 553.38 653.95 553.1C654.136 552.82 654.23 552.447 654.23 551.98C654.23 551.393 654.016 550.913 653.59 550.54C653.163 550.167 652.623 549.773 651.97 549.36C651.49 549.053 651.036 548.747 650.61 548.44C650.196 548.133 649.856 547.787 649.59 547.4C649.336 547.013 649.21 546.547 649.21 546C649.21 545.4 649.343 544.913 649.61 544.54C649.89 544.153 650.256 543.873 650.71 543.7C651.163 543.513 651.65 543.42 652.17 543.42ZM660.755 540.38V543.72H663.715V544.12H660.755V551.86C660.755 552.487 660.868 552.927 661.095 553.18C661.322 553.433 661.635 553.56 662.035 553.56C662.435 553.56 662.782 553.4 663.075 553.08C663.368 552.747 663.622 552.193 663.835 551.42L664.235 551.52C664.102 552.293 663.835 552.947 663.435 553.48C663.048 554.013 662.448 554.28 661.635 554.28C661.182 554.28 660.808 554.22 660.515 554.1C660.222 553.993 659.962 553.833 659.735 553.62C659.442 553.313 659.235 552.947 659.115 552.52C659.008 552.093 658.955 551.527 658.955 550.82V544.12H657.035V543.72H658.955V540.66C659.288 540.647 659.608 540.62 659.915 540.58C660.222 540.54 660.502 540.473 660.755 540.38ZM669.505 543.42C670.359 543.42 671.125 543.607 671.805 543.98C672.485 544.353 673.025 544.94 673.425 545.74C673.839 546.54 674.045 547.58 674.045 548.86C674.045 550.14 673.839 551.18 673.425 551.98C673.025 552.767 672.485 553.347 671.805 553.72C671.125 554.093 670.359 554.28 669.505 554.28C668.665 554.28 667.899 554.093 667.205 553.72C666.525 553.347 665.979 552.767 665.565 551.98C665.165 551.18 664.965 550.14 664.965 548.86C664.965 547.58 665.165 546.54 665.565 545.74C665.979 544.94 666.525 544.353 667.205 543.98C667.899 543.607 668.665 543.42 669.505 543.42ZM669.505 543.82C668.745 543.82 668.119 544.213 667.625 545C667.145 545.787 666.905 547.073 666.905 548.86C666.905 550.647 667.145 551.933 667.625 552.72C668.119 553.493 668.745 553.88 669.505 553.88C670.265 553.88 670.885 553.493 671.365 552.72C671.859 551.933 672.105 550.647 672.105 548.86C672.105 547.073 671.859 545.787 671.365 545C670.885 544.213 670.265 543.82 669.505 543.82ZM681.782 543.42C682.142 543.42 682.456 543.493 682.722 543.64C683.002 543.787 683.216 543.98 683.362 544.22C683.522 544.447 683.602 544.707 683.602 545C683.602 545.333 683.496 545.627 683.282 545.88C683.082 546.133 682.809 546.26 682.462 546.26C682.182 546.26 681.936 546.173 681.722 546C681.509 545.813 681.402 545.553 681.402 545.22C681.402 544.967 681.469 544.753 681.602 544.58C681.749 544.393 681.909 544.247 682.082 544.14C681.989 544.007 681.849 543.94 681.662 543.94C681.249 543.94 680.869 544.067 680.522 544.32C680.176 544.56 679.882 544.873 679.642 545.26C679.402 545.647 679.216 546.06 679.082 546.5C678.949 546.927 678.882 547.327 678.882 547.7V551.94C678.882 552.593 679.069 553.033 679.442 553.26C679.829 553.473 680.349 553.58 681.002 553.58V554C680.696 553.987 680.262 553.973 679.702 553.96C679.142 553.933 678.549 553.92 677.922 553.92C677.469 553.92 677.016 553.933 676.562 553.96C676.122 553.973 675.789 553.987 675.562 554V553.58C676.109 553.58 676.496 553.48 676.722 553.28C676.962 553.08 677.082 552.7 677.082 552.14V545.88C677.082 545.28 676.976 544.84 676.762 544.56C676.549 544.267 676.149 544.12 675.562 544.12V543.7C675.989 543.74 676.402 543.76 676.802 543.76C677.189 543.76 677.556 543.74 677.902 543.7C678.262 543.647 678.589 543.573 678.882 543.48V545.98C679.029 545.593 679.236 545.207 679.502 544.82C679.782 544.42 680.116 544.087 680.502 543.82C680.889 543.553 681.316 543.42 681.782 543.42ZM693.769 543.7V544.1C693.515 544.127 693.282 544.24 693.069 544.44C692.855 544.64 692.655 544.993 692.469 545.5L689.189 554.1H688.849L685.169 545.24C684.915 544.72 684.662 544.407 684.409 544.3C684.169 544.18 683.969 544.12 683.809 544.12V543.7C684.102 543.74 684.409 543.773 684.729 543.8C685.049 543.813 685.395 543.82 685.769 543.82C686.182 543.82 686.615 543.807 687.069 543.78C687.535 543.753 687.969 543.727 688.369 543.7V544.12C688.035 544.12 687.735 544.147 687.469 544.2C687.215 544.24 687.055 544.38 686.989 544.62C686.922 544.847 687.002 545.24 687.229 545.8L689.689 551.9L689.569 551.94L691.849 545.98C692.022 545.54 692.089 545.193 692.049 544.94C692.022 544.673 691.889 544.473 691.649 544.34C691.409 544.207 691.049 544.127 690.569 544.1V543.7C690.809 543.713 691.015 543.727 691.189 543.74C691.362 543.74 691.529 543.747 691.689 543.76C691.862 543.76 692.049 543.76 692.249 543.76C692.555 543.76 692.829 543.753 693.069 543.74C693.322 543.727 693.555 543.713 693.769 543.7ZM689.189 554.1L688.509 555.84C688.375 556.173 688.235 556.453 688.089 556.68C687.955 556.907 687.809 557.093 687.649 557.24C687.435 557.44 687.182 557.573 686.889 557.64C686.595 557.72 686.329 557.76 686.089 557.76C685.835 557.76 685.602 557.713 685.389 557.62C685.189 557.527 685.029 557.387 684.909 557.2C684.789 557.027 684.729 556.813 684.729 556.56C684.729 556.24 684.822 555.98 685.009 555.78C685.195 555.593 685.455 555.5 685.789 555.5C686.069 555.5 686.309 555.58 686.509 555.74C686.709 555.9 686.809 556.133 686.809 556.44C686.809 556.667 686.755 556.853 686.649 557C686.542 557.147 686.415 557.26 686.269 557.34C686.295 557.353 686.315 557.36 686.329 557.36C686.355 557.36 686.375 557.36 686.389 557.36C686.749 557.36 687.069 557.233 687.349 556.98C687.629 556.74 687.875 556.347 688.089 555.8L688.809 553.94L689.189 554.1ZM715 539.84V540.24C714.547 540.253 714.2 540.307 713.96 540.4C713.733 540.48 713.58 540.64 713.5 540.88C713.42 541.107 713.38 541.467 713.38 541.96V551.88C713.38 552.36 713.42 552.72 713.5 552.96C713.58 553.2 713.733 553.36 713.96 553.44C714.2 553.52 714.547 553.573 715 553.6V554C714.693 553.973 714.307 553.96 713.84 553.96C713.387 553.947 712.927 553.94 712.46 553.94C711.94 553.94 711.453 553.947 711 553.96C710.547 553.96 710.18 553.973 709.9 554V553.6C710.353 553.573 710.693 553.52 710.92 553.44C711.16 553.36 711.32 553.2 711.4 552.96C711.48 552.72 711.52 552.36 711.52 551.88V540.88L711.6 540.94L706.7 554.1H706.38L701.34 541.12V551.68C701.34 552.16 701.38 552.54 701.46 552.82C701.553 553.087 701.727 553.28 701.98 553.4C702.247 553.507 702.64 553.573 703.16 553.6V554C702.92 553.973 702.607 553.96 702.22 553.96C701.833 553.947 701.467 553.94 701.12 553.94C700.787 553.94 700.447 553.947 700.1 553.96C699.767 553.96 699.487 553.973 699.26 554V553.6C699.713 553.573 700.053 553.507 700.28 553.4C700.52 553.28 700.68 553.087 700.76 552.82C700.84 552.54 700.88 552.16 700.88 551.68V541.96C700.88 541.467 700.84 541.107 700.76 540.88C700.68 540.64 700.52 540.48 700.28 540.4C700.053 540.307 699.713 540.253 699.26 540.24V539.84C699.487 539.853 699.767 539.867 700.1 539.88C700.447 539.893 700.787 539.9 701.12 539.9C701.413 539.9 701.713 539.893 702.02 539.88C702.34 539.867 702.607 539.853 702.82 539.84L707.36 551.8L707.02 551.96L711.52 539.9C711.68 539.9 711.833 539.9 711.98 539.9C712.14 539.9 712.3 539.9 712.46 539.9C712.927 539.9 713.387 539.893 713.84 539.88C714.307 539.867 714.693 539.853 715 539.84ZM720.97 543.42C721.824 543.42 722.59 543.607 723.27 543.98C723.95 544.353 724.49 544.94 724.89 545.74C725.304 546.54 725.51 547.58 725.51 548.86C725.51 550.14 725.304 551.18 724.89 551.98C724.49 552.767 723.95 553.347 723.27 553.72C722.59 554.093 721.824 554.28 720.97 554.28C720.13 554.28 719.364 554.093 718.67 553.72C717.99 553.347 717.444 552.767 717.03 551.98C716.63 551.18 716.43 550.14 716.43 548.86C716.43 547.58 716.63 546.54 717.03 545.74C717.444 544.94 717.99 544.353 718.67 543.98C719.364 543.607 720.13 543.42 720.97 543.42ZM720.97 543.82C720.21 543.82 719.584 544.213 719.09 545C718.61 545.787 718.37 547.073 718.37 548.86C718.37 550.647 718.61 551.933 719.09 552.72C719.584 553.493 720.21 553.88 720.97 553.88C721.73 553.88 722.35 553.493 722.83 552.72C723.324 551.933 723.57 550.647 723.57 548.86C723.57 547.073 723.324 545.787 722.83 545C722.35 544.213 721.73 543.82 720.97 543.82ZM733.747 543.42C734.254 543.42 734.674 543.487 735.007 543.62C735.354 543.753 735.641 543.94 735.867 544.18C736.121 544.447 736.301 544.78 736.407 545.18C736.514 545.58 736.567 546.12 736.567 546.8V552.14C736.567 552.7 736.681 553.08 736.907 553.28C737.147 553.48 737.541 553.58 738.087 553.58V554C737.861 553.987 737.514 553.973 737.047 553.96C736.581 553.933 736.127 553.92 735.687 553.92C735.247 553.92 734.814 553.933 734.387 553.96C733.974 553.973 733.661 553.987 733.447 554V553.58C733.927 553.58 734.267 553.48 734.467 553.28C734.667 553.08 734.767 552.7 734.767 552.14V546.36C734.767 545.947 734.734 545.567 734.667 545.22C734.601 544.873 734.447 544.593 734.207 544.38C733.981 544.167 733.627 544.06 733.147 544.06C732.587 544.06 732.094 544.22 731.667 544.54C731.254 544.86 730.927 545.3 730.687 545.86C730.461 546.407 730.347 547.02 730.347 547.7V552.14C730.347 552.7 730.447 553.08 730.647 553.28C730.847 553.48 731.187 553.58 731.667 553.58V554C731.454 553.987 731.134 553.973 730.707 553.96C730.294 553.933 729.867 553.92 729.427 553.92C728.987 553.92 728.534 553.933 728.067 553.96C727.601 553.973 727.254 553.987 727.027 554V553.58C727.574 553.58 727.961 553.48 728.187 553.28C728.427 553.08 728.547 552.7 728.547 552.14V545.88C728.547 545.28 728.441 544.84 728.227 544.56C728.014 544.267 727.614 544.12 727.027 544.12V543.7C727.454 543.74 727.867 543.76 728.267 543.76C728.654 543.76 729.021 543.74 729.367 543.7C729.727 543.647 730.054 543.573 730.347 543.48V545.84C730.694 544.933 731.174 544.307 731.787 543.96C732.414 543.6 733.067 543.42 733.747 543.42ZM742.181 540.38V543.72H745.141V544.12H742.181V551.86C742.181 552.487 742.294 552.927 742.521 553.18C742.748 553.433 743.061 553.56 743.461 553.56C743.861 553.56 744.208 553.4 744.501 553.08C744.794 552.747 745.048 552.193 745.261 551.42L745.661 551.52C745.528 552.293 745.261 552.947 744.861 553.48C744.474 554.013 743.874 554.28 743.061 554.28C742.608 554.28 742.234 554.22 741.941 554.1C741.648 553.993 741.388 553.833 741.161 553.62C740.868 553.313 740.661 552.947 740.541 552.52C740.434 552.093 740.381 551.527 740.381 550.82V544.12H738.461V543.72H740.381V540.66C740.714 540.647 741.034 540.62 741.341 540.58C741.648 540.54 741.928 540.473 742.181 540.38ZM749.171 538.34V545.82C749.518 544.913 749.998 544.287 750.611 543.94C751.238 543.593 751.891 543.42 752.571 543.42C753.078 543.42 753.498 543.487 753.831 543.62C754.178 543.753 754.465 543.94 754.691 544.18C754.945 544.447 755.125 544.78 755.231 545.18C755.338 545.58 755.391 546.12 755.391 546.8V552.14C755.391 552.7 755.505 553.08 755.731 553.28C755.971 553.48 756.365 553.58 756.911 553.58V554C756.685 553.987 756.338 553.973 755.871 553.96C755.405 553.933 754.951 553.92 754.511 553.92C754.071 553.92 753.638 553.933 753.211 553.96C752.798 553.973 752.485 553.987 752.271 554V553.58C752.751 553.58 753.091 553.48 753.291 553.28C753.491 553.08 753.591 552.7 753.591 552.14V546.36C753.591 545.947 753.558 545.567 753.491 545.22C753.425 544.873 753.271 544.593 753.031 544.38C752.805 544.167 752.451 544.06 751.971 544.06C751.425 544.06 750.938 544.213 750.511 544.52C750.098 544.827 749.771 545.253 749.531 545.8C749.291 546.347 749.171 546.973 749.171 547.68V552.14C749.171 552.7 749.271 553.08 749.471 553.28C749.671 553.48 750.011 553.58 750.491 553.58V554C750.278 553.987 749.958 553.973 749.531 553.96C749.118 553.933 748.691 553.92 748.251 553.92C747.811 553.92 747.358 553.933 746.891 553.96C746.425 553.973 746.078 553.987 745.851 554V553.58C746.398 553.58 746.785 553.48 747.011 553.28C747.251 553.08 747.371 552.7 747.371 552.14V540.74C747.371 540.14 747.265 539.7 747.051 539.42C746.838 539.127 746.438 538.98 745.851 538.98V538.56C746.278 538.6 746.691 538.62 747.091 538.62C747.478 538.62 747.845 538.6 748.191 538.56C748.551 538.507 748.878 538.433 749.171 538.34ZM769.369 543.42C769.836 543.42 770.243 543.487 770.589 543.62C770.936 543.753 771.223 543.94 771.449 544.18C771.703 544.447 771.876 544.793 771.969 545.22C772.063 545.647 772.109 546.173 772.109 546.8V552.14C772.109 552.7 772.223 553.08 772.449 553.28C772.689 553.48 773.083 553.58 773.629 553.58V554C773.403 553.987 773.056 553.973 772.589 553.96C772.123 553.933 771.669 553.92 771.229 553.92C770.789 553.92 770.356 553.933 769.929 553.96C769.516 553.973 769.203 553.987 768.989 554V553.58C769.469 553.58 769.809 553.48 770.009 553.28C770.209 553.08 770.309 552.7 770.309 552.14V546.36C770.309 545.947 770.283 545.567 770.229 545.22C770.176 544.873 770.043 544.593 769.829 544.38C769.616 544.167 769.269 544.06 768.789 544.06C768.269 544.06 767.803 544.22 767.389 544.54C766.989 544.86 766.669 545.3 766.429 545.86C766.203 546.407 766.089 547.02 766.089 547.7V552.14C766.089 552.7 766.189 553.08 766.389 553.28C766.589 553.48 766.929 553.58 767.409 553.58V554C767.196 553.987 766.876 553.973 766.449 553.96C766.036 553.933 765.609 553.92 765.169 553.92C764.729 553.92 764.276 553.933 763.809 553.96C763.343 553.973 762.996 553.987 762.769 554V553.58C763.316 553.58 763.703 553.48 763.929 553.28C764.169 553.08 764.289 552.7 764.289 552.14V545.88C764.289 545.28 764.183 544.84 763.969 544.56C763.756 544.267 763.356 544.12 762.769 544.12V543.7C763.196 543.74 763.609 543.76 764.009 543.76C764.396 543.76 764.763 543.74 765.109 543.7C765.469 543.647 765.796 543.573 766.089 543.48V545.84C766.436 544.973 766.909 544.353 767.509 543.98C768.109 543.607 768.729 543.42 769.369 543.42ZM775.389 543.42C775.856 543.42 776.263 543.487 776.609 543.62C776.956 543.753 777.243 543.94 777.469 544.18C777.723 544.447 777.896 544.793 777.989 545.22C778.083 545.647 778.129 546.173 778.129 546.8V552.14C778.129 552.7 778.243 553.08 778.469 553.28C778.709 553.48 779.103 553.58 779.649 553.58V554C779.423 553.987 779.076 553.973 778.609 553.96C778.143 553.933 777.689 553.92 777.249 553.92C776.809 553.92 776.376 553.933 775.949 553.96C775.536 553.973 775.223 553.987 775.009 554V553.58C775.489 553.58 775.829 553.48 776.029 553.28C776.229 553.08 776.329 552.7 776.329 552.14V546.36C776.329 545.947 776.303 545.567 776.249 545.22C776.196 544.873 776.063 544.593 775.849 544.38C775.636 544.167 775.289 544.06 774.809 544.06C774.289 544.06 773.823 544.22 773.409 544.54C773.009 544.86 772.689 545.293 772.449 545.84C772.223 546.387 772.109 547 772.109 547.68L772.049 545.82C772.409 544.9 772.896 544.273 773.509 543.94C774.123 543.593 774.749 543.42 775.389 543.42ZM783.363 554.14C782.817 554.14 782.343 554.04 781.943 553.84C781.543 553.627 781.237 553.333 781.023 552.96C780.823 552.587 780.723 552.153 780.723 551.66C780.723 551.073 780.857 550.593 781.123 550.22C781.403 549.847 781.757 549.547 782.183 549.32C782.61 549.093 783.057 548.907 783.523 548.76C784.003 548.6 784.457 548.453 784.883 548.32C785.31 548.173 785.657 548.007 785.923 547.82C786.203 547.633 786.343 547.387 786.343 547.08V545.84C786.343 545.28 786.257 544.853 786.083 544.56C785.923 544.267 785.703 544.073 785.423 543.98C785.143 543.873 784.83 543.82 784.483 543.82C784.15 543.82 783.79 543.867 783.403 543.96C783.03 544.053 782.73 544.247 782.503 544.54C782.757 544.593 782.977 544.727 783.163 544.94C783.35 545.153 783.443 545.427 783.443 545.76C783.443 546.093 783.337 546.36 783.123 546.56C782.91 546.747 782.637 546.84 782.303 546.84C781.917 546.84 781.63 546.72 781.443 546.48C781.27 546.227 781.183 545.947 781.183 545.64C781.183 545.293 781.27 545.013 781.443 544.8C781.617 544.587 781.837 544.387 782.103 544.2C782.41 543.987 782.803 543.807 783.283 543.66C783.777 543.5 784.33 543.42 784.943 543.42C785.49 543.42 785.957 543.487 786.343 543.62C786.73 543.74 787.05 543.92 787.303 544.16C787.65 544.48 787.877 544.873 787.983 545.34C788.09 545.793 788.143 546.34 788.143 546.98V552.54C788.143 552.873 788.19 553.113 788.283 553.26C788.39 553.407 788.55 553.48 788.763 553.48C788.91 553.48 789.05 553.447 789.183 553.38C789.317 553.313 789.477 553.207 789.663 553.06L789.883 553.4C789.603 553.613 789.337 553.793 789.083 553.94C788.83 554.073 788.49 554.14 788.063 554.14C787.677 554.14 787.357 554.073 787.103 553.94C786.85 553.807 786.657 553.613 786.523 553.36C786.403 553.093 786.343 552.76 786.343 552.36C785.983 552.96 785.55 553.407 785.043 553.7C784.55 553.993 783.99 554.14 783.363 554.14ZM784.083 553.34C784.523 553.34 784.93 553.213 785.303 552.96C785.69 552.707 786.037 552.327 786.343 551.82V547.9C786.183 548.127 785.95 548.32 785.643 548.48C785.337 548.627 785.003 548.78 784.643 548.94C784.283 549.087 783.937 549.267 783.603 549.48C783.283 549.68 783.017 549.947 782.803 550.28C782.59 550.613 782.483 551.047 782.483 551.58C782.483 552.113 782.623 552.54 782.903 552.86C783.197 553.18 783.59 553.34 784.083 553.34ZM799.584 538.32V551.82C799.584 552.42 799.691 552.867 799.904 553.16C800.131 553.44 800.531 553.58 801.104 553.58V554C800.691 553.96 800.278 553.94 799.864 553.94C799.478 553.94 799.104 553.96 798.744 554C798.398 554.04 798.078 554.113 797.784 554.22V540.72C797.784 540.12 797.678 539.68 797.464 539.4C797.251 539.107 796.851 538.96 796.264 538.96V538.54C796.691 538.58 797.104 538.6 797.504 538.6C797.891 538.6 798.258 538.58 798.604 538.54C798.964 538.487 799.291 538.413 799.584 538.32ZM795.384 543.42C795.971 543.42 796.518 543.56 797.024 543.84C797.544 544.12 797.891 544.6 798.064 545.28L797.804 545.48C797.618 544.92 797.324 544.513 796.924 544.26C796.538 544.007 796.078 543.88 795.544 543.88C794.758 543.88 794.098 544.287 793.564 545.1C793.044 545.913 792.791 547.167 792.804 548.86C792.804 549.94 792.904 550.84 793.104 551.56C793.318 552.267 793.624 552.8 794.024 553.16C794.438 553.507 794.938 553.68 795.524 553.68C796.084 553.68 796.591 553.44 797.044 552.96C797.498 552.48 797.771 551.773 797.864 550.84L798.104 551.12C797.998 552.133 797.671 552.913 797.124 553.46C796.591 554.007 795.864 554.28 794.944 554.28C794.118 554.28 793.391 554.08 792.764 553.68C792.151 553.28 791.678 552.68 791.344 551.88C791.024 551.08 790.864 550.073 790.864 548.86C790.864 547.647 791.071 546.64 791.484 545.84C791.911 545.027 792.464 544.42 793.144 544.02C793.838 543.62 794.584 543.42 795.384 543.42ZM806.965 543.42C808.139 543.42 809.052 543.78 809.705 544.5C810.372 545.207 810.705 546.313 810.705 547.82H803.645L803.625 547.44H808.785C808.812 546.787 808.759 546.187 808.625 545.64C808.492 545.08 808.279 544.633 807.985 544.3C807.705 543.967 807.339 543.8 806.885 543.8C806.272 543.8 805.725 544.107 805.245 544.72C804.779 545.333 804.499 546.307 804.405 547.64L804.465 547.72C804.439 547.92 804.419 548.14 804.405 548.38C804.392 548.62 804.385 548.86 804.385 549.1C804.385 550.007 804.532 550.787 804.825 551.44C805.119 552.093 805.499 552.593 805.965 552.94C806.445 553.273 806.939 553.44 807.445 553.44C807.845 553.44 808.225 553.38 808.585 553.26C808.945 553.127 809.279 552.913 809.585 552.62C809.892 552.327 810.159 551.933 810.385 551.44L810.785 551.6C810.639 552.04 810.399 552.467 810.065 552.88C809.732 553.293 809.312 553.633 808.805 553.9C808.299 554.153 807.712 554.28 807.045 554.28C806.085 554.28 805.259 554.06 804.565 553.62C803.885 553.18 803.359 552.573 802.985 551.8C802.625 551.013 802.445 550.113 802.445 549.1C802.445 547.927 802.632 546.92 803.005 546.08C803.379 545.227 803.905 544.573 804.585 544.12C805.265 543.653 806.059 543.42 806.965 543.42ZM823.143 543.42C824.236 543.42 825.143 543.873 825.863 544.78C826.583 545.673 826.943 547.033 826.943 548.86C826.943 550.06 826.736 551.067 826.323 551.88C825.923 552.68 825.383 553.28 824.703 553.68C824.023 554.08 823.283 554.28 822.483 554.28C821.816 554.28 821.17 554.093 820.543 553.72C819.93 553.333 819.47 552.767 819.163 552.02L819.563 552.24C819.896 552.773 820.31 553.173 820.803 553.44C821.296 553.693 821.803 553.82 822.323 553.82C823.216 553.82 823.883 553.42 824.323 552.62C824.776 551.807 825.003 550.553 825.003 548.86C825.003 547.78 824.916 546.88 824.743 546.16C824.57 545.44 824.303 544.907 823.943 544.56C823.583 544.2 823.123 544.02 822.563 544.02C821.95 544.02 821.376 544.3 820.843 544.86C820.323 545.407 820.003 546.213 819.883 547.28L819.643 547C819.79 545.867 820.183 544.987 820.823 544.36C821.476 543.733 822.25 543.42 823.143 543.42ZM820.023 538.34V552.96C819.85 553.107 819.67 553.26 819.483 553.42C819.31 553.567 819.136 553.713 818.963 553.86C818.79 554.007 818.61 554.16 818.423 554.32L818.083 554.18C818.136 553.993 818.17 553.807 818.183 553.62C818.21 553.42 818.223 553.22 818.223 553.02V540.74C818.223 540.14 818.116 539.7 817.903 539.42C817.69 539.127 817.29 538.98 816.703 538.98V538.56C817.13 538.6 817.543 538.62 817.943 538.62C818.33 538.62 818.696 538.6 819.043 538.56C819.403 538.507 819.73 538.433 820.023 538.34ZM837.597 543.7V544.1C837.343 544.127 837.11 544.24 836.897 544.44C836.683 544.64 836.483 544.993 836.297 545.5L833.017 554.1H832.677L828.997 545.24C828.743 544.72 828.49 544.407 828.237 544.3C827.997 544.18 827.797 544.12 827.637 544.12V543.7C827.93 543.74 828.237 543.773 828.557 543.8C828.877 543.813 829.223 543.82 829.597 543.82C830.01 543.82 830.443 543.807 830.897 543.78C831.363 543.753 831.797 543.727 832.197 543.7V544.12C831.863 544.12 831.563 544.147 831.297 544.2C831.043 544.24 830.883 544.38 830.817 544.62C830.75 544.847 830.83 545.24 831.057 545.8L833.517 551.9L833.397 551.94L835.677 545.98C835.85 545.54 835.917 545.193 835.877 544.94C835.85 544.673 835.717 544.473 835.477 544.34C835.237 544.207 834.877 544.127 834.397 544.1V543.7C834.637 543.713 834.843 543.727 835.017 543.74C835.19 543.74 835.357 543.747 835.517 543.76C835.69 543.76 835.877 543.76 836.077 543.76C836.383 543.76 836.657 543.753 836.897 543.74C837.15 543.727 837.383 543.713 837.597 543.7ZM833.017 554.1L832.337 555.84C832.203 556.173 832.063 556.453 831.917 556.68C831.783 556.907 831.637 557.093 831.477 557.24C831.263 557.44 831.01 557.573 830.717 557.64C830.423 557.72 830.157 557.76 829.917 557.76C829.663 557.76 829.43 557.713 829.217 557.62C829.017 557.527 828.857 557.387 828.737 557.2C828.617 557.027 828.557 556.813 828.557 556.56C828.557 556.24 828.65 555.98 828.837 555.78C829.023 555.593 829.283 555.5 829.617 555.5C829.897 555.5 830.137 555.58 830.337 555.74C830.537 555.9 830.637 556.133 830.637 556.44C830.637 556.667 830.583 556.853 830.477 557C830.37 557.147 830.243 557.26 830.097 557.34C830.123 557.353 830.143 557.36 830.157 557.36C830.183 557.36 830.203 557.36 830.217 557.36C830.577 557.36 830.897 557.233 831.177 556.98C831.457 556.74 831.703 556.347 831.917 555.8L832.637 553.94L833.017 554.1ZM848.548 539.84C850.935 539.84 852.708 540.44 853.868 541.64C855.028 542.827 855.608 544.533 855.608 546.76C855.608 548.213 855.321 549.487 854.748 550.58C854.188 551.66 853.368 552.5 852.288 553.1C851.208 553.7 849.901 554 848.368 554C848.168 554 847.901 553.993 847.568 553.98C847.235 553.967 846.888 553.96 846.528 553.96C846.181 553.947 845.861 553.94 845.568 553.94C845.101 553.94 844.641 553.947 844.188 553.96C843.735 553.96 843.368 553.973 843.088 554V553.6C843.541 553.573 843.881 553.52 844.108 553.44C844.348 553.36 844.508 553.2 844.588 552.96C844.668 552.72 844.708 552.36 844.708 551.88V541.96C844.708 541.467 844.668 541.107 844.588 540.88C844.508 540.64 844.348 540.48 844.108 540.4C843.881 540.307 843.541 540.253 843.088 540.24V539.84C843.368 539.853 843.735 539.873 844.188 539.9C844.641 539.913 845.088 539.913 845.528 539.9C845.995 539.887 846.521 539.873 847.108 539.86C847.695 539.847 848.175 539.84 848.548 539.84ZM848.048 540.2C847.435 540.2 847.035 540.313 846.848 540.54C846.661 540.767 846.568 541.227 846.568 541.92V551.92C846.568 552.613 846.661 553.073 846.848 553.3C847.048 553.527 847.455 553.64 848.068 553.64C849.521 553.64 850.648 553.38 851.448 552.86C852.248 552.327 852.808 551.553 853.128 550.54C853.448 549.527 853.608 548.293 853.608 546.84C853.608 545.347 853.428 544.113 853.068 543.14C852.721 542.153 852.141 541.42 851.328 540.94C850.528 540.447 849.435 540.2 848.048 540.2ZM860.024 554.14C859.477 554.14 859.004 554.04 858.604 553.84C858.204 553.627 857.897 553.333 857.684 552.96C857.484 552.587 857.384 552.153 857.384 551.66C857.384 551.073 857.517 550.593 857.784 550.22C858.064 549.847 858.417 549.547 858.844 549.32C859.27 549.093 859.717 548.907 860.184 548.76C860.664 548.6 861.117 548.453 861.544 548.32C861.97 548.173 862.317 548.007 862.584 547.82C862.864 547.633 863.004 547.387 863.004 547.08V545.84C863.004 545.28 862.917 544.853 862.744 544.56C862.584 544.267 862.364 544.073 862.084 543.98C861.804 543.873 861.49 543.82 861.144 543.82C860.81 543.82 860.45 543.867 860.064 543.96C859.69 544.053 859.39 544.247 859.164 544.54C859.417 544.593 859.637 544.727 859.824 544.94C860.01 545.153 860.104 545.427 860.104 545.76C860.104 546.093 859.997 546.36 859.784 546.56C859.57 546.747 859.297 546.84 858.964 546.84C858.577 546.84 858.29 546.72 858.104 546.48C857.93 546.227 857.844 545.947 857.844 545.64C857.844 545.293 857.93 545.013 858.104 544.8C858.277 544.587 858.497 544.387 858.764 544.2C859.07 543.987 859.464 543.807 859.944 543.66C860.437 543.5 860.99 543.42 861.604 543.42C862.15 543.42 862.617 543.487 863.004 543.62C863.39 543.74 863.71 543.92 863.964 544.16C864.31 544.48 864.537 544.873 864.644 545.34C864.75 545.793 864.804 546.34 864.804 546.98V552.54C864.804 552.873 864.85 553.113 864.944 553.26C865.05 553.407 865.21 553.48 865.424 553.48C865.57 553.48 865.71 553.447 865.844 553.38C865.977 553.313 866.137 553.207 866.324 553.06L866.544 553.4C866.264 553.613 865.997 553.793 865.744 553.94C865.49 554.073 865.15 554.14 864.724 554.14C864.337 554.14 864.017 554.073 863.764 553.94C863.51 553.807 863.317 553.613 863.184 553.36C863.064 553.093 863.004 552.76 863.004 552.36C862.644 552.96 862.21 553.407 861.704 553.7C861.21 553.993 860.65 554.14 860.024 554.14ZM860.744 553.34C861.184 553.34 861.59 553.213 861.964 552.96C862.35 552.707 862.697 552.327 863.004 551.82V547.9C862.844 548.127 862.61 548.32 862.304 548.48C861.997 548.627 861.664 548.78 861.304 548.94C860.944 549.087 860.597 549.267 860.264 549.48C859.944 549.68 859.677 549.947 859.464 550.28C859.25 550.613 859.144 551.047 859.144 551.58C859.144 552.113 859.284 552.54 859.564 552.86C859.857 553.18 860.25 553.34 860.744 553.34ZM870.284 538.32V552.14C870.284 552.7 870.384 553.08 870.584 553.28C870.784 553.48 871.124 553.58 871.604 553.58V554C871.391 553.987 871.071 553.973 870.644 553.96C870.231 553.933 869.811 553.92 869.384 553.92C868.931 553.92 868.471 553.933 868.004 553.96C867.538 553.973 867.191 553.987 866.964 554V553.58C867.511 553.58 867.898 553.48 868.124 553.28C868.364 553.08 868.484 552.7 868.484 552.14V540.72C868.484 540.12 868.378 539.68 868.164 539.4C867.951 539.107 867.551 538.96 866.964 538.96V538.54C867.391 538.58 867.804 538.6 868.204 538.6C868.591 538.6 868.958 538.58 869.304 538.54C869.664 538.487 869.991 538.413 870.284 538.32ZM876.644 543.7V544.1C876.311 544.127 875.998 544.22 875.704 544.38C875.411 544.527 875.124 544.747 874.844 545.04L872.024 548L872.304 547.44L876.024 552.54C876.251 552.847 876.464 553.087 876.664 553.26C876.878 553.433 877.131 553.54 877.424 553.58V554C877.278 553.987 877.044 553.973 876.724 553.96C876.418 553.933 876.111 553.92 875.804 553.92C875.391 553.92 874.971 553.933 874.544 553.96C874.118 553.973 873.798 553.987 873.584 554V553.58C873.851 553.58 874.038 553.513 874.144 553.38C874.251 553.247 874.231 553.087 874.084 552.9L871.784 549.54C871.531 549.18 871.298 548.947 871.084 548.84C870.884 548.733 870.591 548.673 870.204 548.66V548.26C870.631 548.207 870.978 548.12 871.244 548C871.511 547.867 871.764 547.673 872.004 547.42L873.484 545.88C873.911 545.44 874.124 545.093 874.124 544.84C874.124 544.573 873.984 544.387 873.704 544.28C873.438 544.16 873.084 544.1 872.644 544.1V543.7C872.991 543.713 873.378 543.733 873.804 543.76C874.244 543.773 874.611 543.78 874.904 543.78C875.131 543.78 875.351 543.78 875.564 543.78C875.778 543.767 875.978 543.753 876.164 543.74C876.351 543.727 876.511 543.713 876.644 543.7ZM882.474 543.42C883.327 543.42 884.094 543.607 884.774 543.98C885.454 544.353 885.994 544.94 886.394 545.74C886.807 546.54 887.014 547.58 887.014 548.86C887.014 550.14 886.807 551.18 886.394 551.98C885.994 552.767 885.454 553.347 884.774 553.72C884.094 554.093 883.327 554.28 882.474 554.28C881.634 554.28 880.867 554.093 880.174 553.72C879.494 553.347 878.947 552.767 878.534 551.98C878.134 551.18 877.934 550.14 877.934 548.86C877.934 547.58 878.134 546.54 878.534 545.74C878.947 544.94 879.494 544.353 880.174 543.98C880.867 543.607 881.634 543.42 882.474 543.42ZM882.474 543.82C881.714 543.82 881.087 544.213 880.594 545C880.114 545.787 879.874 547.073 879.874 548.86C879.874 550.647 880.114 551.933 880.594 552.72C881.087 553.493 881.714 553.88 882.474 553.88C883.234 553.88 883.854 553.493 884.334 552.72C884.827 551.933 885.074 550.647 885.074 548.86C885.074 547.073 884.827 545.787 884.334 545C883.854 544.213 883.234 543.82 882.474 543.82ZM891.751 540.38V543.72H894.711V544.12H891.751V551.86C891.751 552.487 891.865 552.927 892.091 553.18C892.318 553.433 892.631 553.56 893.031 553.56C893.431 553.56 893.778 553.4 894.071 553.08C894.365 552.747 894.618 552.193 894.831 551.42L895.231 551.52C895.098 552.293 894.831 552.947 894.431 553.48C894.045 554.013 893.445 554.28 892.631 554.28C892.178 554.28 891.805 554.22 891.511 554.1C891.218 553.993 890.958 553.833 890.731 553.62C890.438 553.313 890.231 552.947 890.111 552.52C890.005 552.093 889.951 551.527 889.951 550.82V544.12H888.031V543.72H889.951V540.66C890.285 540.647 890.605 540.62 890.911 540.58C891.218 540.54 891.498 540.473 891.751 540.38ZM898.441 554.14C897.895 554.14 897.421 554.04 897.021 553.84C896.621 553.627 896.315 553.333 896.101 552.96C895.901 552.587 895.801 552.153 895.801 551.66C895.801 551.073 895.935 550.593 896.201 550.22C896.481 549.847 896.835 549.547 897.261 549.32C897.688 549.093 898.135 548.907 898.601 548.76C899.081 548.6 899.535 548.453 899.961 548.32C900.388 548.173 900.735 548.007 901.001 547.82C901.281 547.633 901.421 547.387 901.421 547.08V545.84C901.421 545.28 901.335 544.853 901.161 544.56C901.001 544.267 900.781 544.073 900.501 543.98C900.221 543.873 899.908 543.82 899.561 543.82C899.228 543.82 898.868 543.867 898.481 543.96C898.108 544.053 897.808 544.247 897.581 544.54C897.835 544.593 898.055 544.727 898.241 544.94C898.428 545.153 898.521 545.427 898.521 545.76C898.521 546.093 898.415 546.36 898.201 546.56C897.988 546.747 897.715 546.84 897.381 546.84C896.995 546.84 896.708 546.72 896.521 546.48C896.348 546.227 896.261 545.947 896.261 545.64C896.261 545.293 896.348 545.013 896.521 544.8C896.695 544.587 896.915 544.387 897.181 544.2C897.488 543.987 897.881 543.807 898.361 543.66C898.855 543.5 899.408 543.42 900.021 543.42C900.568 543.42 901.035 543.487 901.421 543.62C901.808 543.74 902.128 543.92 902.381 544.16C902.728 544.48 902.955 544.873 903.061 545.34C903.168 545.793 903.221 546.34 903.221 546.98V552.54C903.221 552.873 903.268 553.113 903.361 553.26C903.468 553.407 903.628 553.48 903.841 553.48C903.988 553.48 904.128 553.447 904.261 553.38C904.395 553.313 904.555 553.207 904.741 553.06L904.961 553.4C904.681 553.613 904.415 553.793 904.161 553.94C903.908 554.073 903.568 554.14 903.141 554.14C902.755 554.14 902.435 554.073 902.181 553.94C901.928 553.807 901.735 553.613 901.601 553.36C901.481 553.093 901.421 552.76 901.421 552.36C901.061 552.96 900.628 553.407 900.121 553.7C899.628 553.993 899.068 554.14 898.441 554.14ZM899.161 553.34C899.601 553.34 900.008 553.213 900.381 552.96C900.768 552.707 901.115 552.327 901.421 551.82V547.9C901.261 548.127 901.028 548.32 900.721 548.48C900.415 548.627 900.081 548.78 899.721 548.94C899.361 549.087 899.015 549.267 898.681 549.48C898.361 549.68 898.095 549.947 897.881 550.28C897.668 550.613 897.561 551.047 897.561 551.58C897.561 552.113 897.701 552.54 897.981 552.86C898.275 553.18 898.668 553.34 899.161 553.34ZM917.149 539.56C918.029 539.56 918.749 539.693 919.309 539.96C919.882 540.213 920.389 540.513 920.829 540.86C921.095 541.06 921.295 541.087 921.429 540.94C921.575 540.78 921.675 540.413 921.729 539.84H922.189C922.162 540.333 922.142 540.933 922.129 541.64C922.115 542.347 922.109 543.28 922.109 544.44H921.649C921.555 543.867 921.469 543.413 921.389 543.08C921.309 542.733 921.209 542.44 921.089 542.2C920.982 541.96 920.835 541.72 920.649 541.48C920.235 540.933 919.715 540.54 919.089 540.3C918.462 540.047 917.802 539.92 917.109 539.92C916.455 539.92 915.862 540.087 915.329 540.42C914.809 540.74 914.355 541.207 913.969 541.82C913.595 542.433 913.302 543.173 913.089 544.04C912.889 544.907 912.789 545.88 912.789 546.96C912.789 548.08 912.902 549.073 913.129 549.94C913.355 550.793 913.669 551.513 914.069 552.1C914.482 552.687 914.962 553.133 915.509 553.44C916.069 553.733 916.669 553.88 917.309 553.88C917.909 553.88 918.535 553.76 919.189 553.52C919.842 553.28 920.355 552.893 920.729 552.36C921.022 551.973 921.222 551.553 921.329 551.1C921.449 550.647 921.555 550.013 921.649 549.2H922.109C922.109 550.413 922.115 551.393 922.129 552.14C922.142 552.873 922.162 553.493 922.189 554H921.729C921.675 553.427 921.582 553.067 921.449 552.92C921.329 552.773 921.122 552.793 920.829 552.98C920.335 553.327 919.809 553.633 919.249 553.9C918.702 554.153 917.995 554.28 917.129 554.28C915.862 554.28 914.749 553.993 913.789 553.42C912.842 552.847 912.102 552.02 911.569 550.94C911.049 549.86 910.789 548.56 910.789 547.04C910.789 545.547 911.062 544.24 911.609 543.12C912.155 542 912.902 541.127 913.849 540.5C914.809 539.873 915.909 539.56 917.149 539.56ZM927.218 538.34V545.82C927.565 544.913 928.045 544.287 928.658 543.94C929.285 543.593 929.938 543.42 930.618 543.42C931.125 543.42 931.545 543.487 931.878 543.62C932.225 543.753 932.511 543.94 932.738 544.18C932.991 544.447 933.171 544.78 933.278 545.18C933.385 545.58 933.438 546.12 933.438 546.8V552.14C933.438 552.7 933.551 553.08 933.778 553.28C934.018 553.48 934.411 553.58 934.958 553.58V554C934.731 553.987 934.385 553.973 933.918 553.96C933.451 553.933 932.998 553.92 932.558 553.92C932.118 553.92 931.685 553.933 931.258 553.96C930.845 553.973 930.531 553.987 930.318 554V553.58C930.798 553.58 931.138 553.48 931.338 553.28C931.538 553.08 931.638 552.7 931.638 552.14V546.36C931.638 545.947 931.605 545.567 931.538 545.22C931.471 544.873 931.318 544.593 931.078 544.38C930.851 544.167 930.498 544.06 930.018 544.06C929.471 544.06 928.985 544.213 928.558 544.52C928.145 544.827 927.818 545.253 927.578 545.8C927.338 546.347 927.218 546.973 927.218 547.68V552.14C927.218 552.7 927.318 553.08 927.518 553.28C927.718 553.48 928.058 553.58 928.538 553.58V554C928.325 553.987 928.005 553.973 927.578 553.96C927.165 553.933 926.738 553.92 926.298 553.92C925.858 553.92 925.405 553.933 924.938 553.96C924.471 553.973 924.125 553.987 923.898 554V553.58C924.445 553.58 924.831 553.48 925.058 553.28C925.298 553.08 925.418 552.7 925.418 552.14V540.74C925.418 540.14 925.311 539.7 925.098 539.42C924.885 539.127 924.485 538.98 923.898 538.98V538.56C924.325 538.6 924.738 538.62 925.138 538.62C925.525 538.62 925.891 538.6 926.238 538.56C926.598 538.507 926.925 538.433 927.218 538.34ZM938.676 554.14C938.129 554.14 937.656 554.04 937.256 553.84C936.856 553.627 936.549 553.333 936.336 552.96C936.136 552.587 936.036 552.153 936.036 551.66C936.036 551.073 936.169 550.593 936.436 550.22C936.716 549.847 937.069 549.547 937.496 549.32C937.923 549.093 938.369 548.907 938.836 548.76C939.316 548.6 939.769 548.453 940.196 548.32C940.623 548.173 940.969 548.007 941.236 547.82C941.516 547.633 941.656 547.387 941.656 547.08V545.84C941.656 545.28 941.569 544.853 941.396 544.56C941.236 544.267 941.016 544.073 940.736 543.98C940.456 543.873 940.143 543.82 939.796 543.82C939.463 543.82 939.103 543.867 938.716 543.96C938.343 544.053 938.043 544.247 937.816 544.54C938.069 544.593 938.289 544.727 938.476 544.94C938.663 545.153 938.756 545.427 938.756 545.76C938.756 546.093 938.649 546.36 938.436 546.56C938.223 546.747 937.949 546.84 937.616 546.84C937.229 546.84 936.943 546.72 936.756 546.48C936.583 546.227 936.496 545.947 936.496 545.64C936.496 545.293 936.583 545.013 936.756 544.8C936.929 544.587 937.149 544.387 937.416 544.2C937.723 543.987 938.116 543.807 938.596 543.66C939.089 543.5 939.643 543.42 940.256 543.42C940.803 543.42 941.269 543.487 941.656 543.62C942.043 543.74 942.363 543.92 942.616 544.16C942.963 544.48 943.189 544.873 943.296 545.34C943.403 545.793 943.456 546.34 943.456 546.98V552.54C943.456 552.873 943.503 553.113 943.596 553.26C943.703 553.407 943.863 553.48 944.076 553.48C944.223 553.48 944.363 553.447 944.496 553.38C944.629 553.313 944.789 553.207 944.976 553.06L945.196 553.4C944.916 553.613 944.649 553.793 944.396 553.94C944.143 554.073 943.803 554.14 943.376 554.14C942.989 554.14 942.669 554.073 942.416 553.94C942.163 553.807 941.969 553.613 941.836 553.36C941.716 553.093 941.656 552.76 941.656 552.36C941.296 552.96 940.863 553.407 940.356 553.7C939.863 553.993 939.303 554.14 938.676 554.14ZM939.396 553.34C939.836 553.34 940.243 553.213 940.616 552.96C941.003 552.707 941.349 552.327 941.656 551.82V547.9C941.496 548.127 941.263 548.32 940.956 548.48C940.649 548.627 940.316 548.78 939.956 548.94C939.596 549.087 939.249 549.267 938.916 549.48C938.596 549.68 938.329 549.947 938.116 550.28C937.903 550.613 937.796 551.047 937.796 551.58C937.796 552.113 937.936 552.54 938.216 552.86C938.509 553.18 938.903 553.34 939.396 553.34ZM952.517 543.42C953.023 543.42 953.443 543.487 953.777 543.62C954.123 543.753 954.41 543.94 954.637 544.18C954.89 544.447 955.07 544.78 955.177 545.18C955.283 545.58 955.337 546.12 955.337 546.8V552.14C955.337 552.7 955.45 553.08 955.677 553.28C955.917 553.48 956.31 553.58 956.857 553.58V554C956.63 553.987 956.283 553.973 955.817 553.96C955.35 553.933 954.897 553.92 954.457 553.92C954.017 553.92 953.583 553.933 953.157 553.96C952.743 553.973 952.43 553.987 952.217 554V553.58C952.697 553.58 953.037 553.48 953.237 553.28C953.437 553.08 953.537 552.7 953.537 552.14V546.36C953.537 545.947 953.503 545.567 953.437 545.22C953.37 544.873 953.217 544.593 952.977 544.38C952.75 544.167 952.397 544.06 951.917 544.06C951.357 544.06 950.863 544.22 950.437 544.54C950.023 544.86 949.697 545.3 949.457 545.86C949.23 546.407 949.117 547.02 949.117 547.7V552.14C949.117 552.7 949.217 553.08 949.417 553.28C949.617 553.48 949.957 553.58 950.437 553.58V554C950.223 553.987 949.903 553.973 949.477 553.96C949.063 553.933 948.637 553.92 948.197 553.92C947.757 553.92 947.303 553.933 946.837 553.96C946.37 553.973 946.023 553.987 945.797 554V553.58C946.343 553.58 946.73 553.48 946.957 553.28C947.197 553.08 947.317 552.7 947.317 552.14V545.88C947.317 545.28 947.21 544.84 946.997 544.56C946.783 544.267 946.383 544.12 945.797 544.12V543.7C946.223 543.74 946.637 543.76 947.037 543.76C947.423 543.76 947.79 543.74 948.137 543.7C948.497 543.647 948.823 543.573 949.117 543.48V545.84C949.463 544.933 949.943 544.307 950.557 543.96C951.183 543.6 951.837 543.42 952.517 543.42ZM961.215 557.76C960.508 557.76 959.842 557.687 959.215 557.54C958.588 557.393 958.082 557.16 957.695 556.84C957.322 556.533 957.135 556.14 957.135 555.66C957.135 555.193 957.322 554.793 957.695 554.46C958.068 554.127 958.575 553.873 959.215 553.7L959.335 554.02C959.042 554.113 958.808 554.3 958.635 554.58C958.462 554.86 958.375 555.173 958.375 555.52C958.375 556.133 958.655 556.6 959.215 556.92C959.788 557.253 960.528 557.42 961.435 557.42C962.035 557.42 962.622 557.34 963.195 557.18C963.768 557.033 964.242 556.78 964.615 556.42C964.988 556.06 965.175 555.587 965.175 555C965.175 554.56 965.015 554.2 964.695 553.92C964.388 553.627 963.775 553.48 962.855 553.48H961.375C960.948 553.48 960.535 553.447 960.135 553.38C959.735 553.313 959.408 553.173 959.155 552.96C958.902 552.747 958.775 552.42 958.775 551.98C958.775 551.527 958.962 551.093 959.335 550.68C959.708 550.253 960.395 549.82 961.395 549.38L961.635 549.56C961.182 549.8 960.788 550.047 960.455 550.3C960.122 550.54 959.955 550.827 959.955 551.16C959.955 551.587 960.275 551.8 960.915 551.8H963.415C963.975 551.8 964.488 551.88 964.955 552.04C965.435 552.2 965.822 552.453 966.115 552.8C966.408 553.147 966.555 553.6 966.555 554.16C966.555 554.787 966.355 555.373 965.955 555.92C965.555 556.467 964.955 556.907 964.155 557.24C963.368 557.587 962.388 557.76 961.215 557.76ZM961.315 549.74C960.662 549.74 960.068 549.633 959.535 549.42C959.002 549.193 958.582 548.847 958.275 548.38C957.968 547.913 957.815 547.313 957.815 546.58C957.815 545.847 957.968 545.247 958.275 544.78C958.582 544.313 959.002 543.973 959.535 543.76C960.068 543.533 960.662 543.42 961.315 543.42C961.982 543.42 962.575 543.533 963.095 543.76C963.628 543.973 964.048 544.313 964.355 544.78C964.662 545.247 964.815 545.847 964.815 546.58C964.815 547.313 964.662 547.913 964.355 548.38C964.048 548.847 963.628 549.193 963.095 549.42C962.575 549.633 961.982 549.74 961.315 549.74ZM961.315 549.38C961.822 549.38 962.215 549.18 962.495 548.78C962.788 548.38 962.935 547.647 962.935 546.58C962.935 545.513 962.788 544.78 962.495 544.38C962.215 543.98 961.822 543.78 961.315 543.78C960.822 543.78 960.428 543.98 960.135 544.38C959.842 544.78 959.695 545.513 959.695 546.58C959.695 547.647 959.842 548.38 960.135 548.78C960.428 549.18 960.822 549.38 961.315 549.38ZM964.195 545.08L963.835 544.94C964.022 544.487 964.342 544.087 964.795 543.74C965.248 543.393 965.722 543.22 966.215 543.22C966.562 543.22 966.842 543.32 967.055 543.52C967.268 543.707 967.375 543.993 967.375 544.38C967.375 544.793 967.262 545.087 967.035 545.26C966.822 545.42 966.602 545.5 966.375 545.5C966.175 545.5 965.988 545.433 965.815 545.3C965.642 545.153 965.542 544.927 965.515 544.62C965.488 544.313 965.582 543.92 965.795 543.44L966.055 543.5C965.495 543.713 965.095 543.94 964.855 544.18C964.615 544.407 964.395 544.707 964.195 545.08ZM970.041 551.72C970.388 551.72 970.688 551.847 970.941 552.1C971.195 552.353 971.321 552.653 971.321 553C971.321 553.347 971.195 553.647 970.941 553.9C970.688 554.153 970.388 554.28 970.041 554.28C969.695 554.28 969.395 554.153 969.141 553.9C968.888 553.647 968.761 553.347 968.761 553C968.761 552.653 968.888 552.353 969.141 552.1C969.395 551.847 969.695 551.72 970.041 551.72Z" fill="black"/>
<defs>
<linearGradient id="paint0_linear_2_12" x1="720" y1="0" x2="720" y2="1024" gradientUnits="userSpaceOnUse">
<stop stop-color="#B1DEC8"/>
<stop offset="1" stop-color="#B1DEC8" stop-opacity="0"/>
</linearGradient>
</defs>
</svg>
