<svg width="1440" height="1024" viewBox="0 0 1440 1024" fill="none" xmlns="http://www.w3.org/2000/svg">
<rect width="1440" height="1024" fill="#DFBFB7"/>
<rect width="1440" height="1024" fill="url(#paint0_linear_2_12)"/>
<path d="M548.664 460.631V489.488L553.908 490.309V494H538.586V490.309L543.361 489.488V455.885L538.586 455.064V451.344H549.191L570.109 484.596L570.285 484.537V455.885L565.041 455.064V451.344H580.363V455.064L575.588 455.885V494H570.314L548.84 460.572L548.664 460.631ZM599.406 494.615C596.477 494.615 593.928 493.941 591.76 492.594C589.592 491.266 587.912 489.41 586.721 487.027C585.549 484.645 584.963 481.891 584.963 478.766V477.477C584.963 474.449 585.588 471.754 586.838 469.391C588.068 467.008 589.709 465.133 591.76 463.766C593.83 462.398 596.086 461.715 598.527 461.715C601.379 461.715 603.771 462.301 605.705 463.473C607.619 464.645 609.064 466.295 610.041 468.424C611.018 470.533 611.506 473.023 611.506 475.895V479.498H590.939L590.852 479.645C590.871 481.637 591.232 483.434 591.936 485.035C592.619 486.617 593.586 487.857 594.836 488.756C596.105 489.654 597.629 490.104 599.406 490.104C601.359 490.104 603.068 489.83 604.533 489.283C606.018 488.717 607.297 487.945 608.371 486.969L610.627 490.719C609.494 491.812 607.99 492.74 606.115 493.502C604.26 494.244 602.023 494.615 599.406 494.615ZM591.057 474.84L591.115 474.986H605.734V474.225C605.734 472.682 605.471 471.314 604.943 470.123C604.396 468.912 603.586 467.965 602.512 467.281C601.457 466.598 600.129 466.256 598.527 466.256C597.258 466.256 596.086 466.627 595.012 467.369C592.824 468.951 591.506 471.441 591.057 474.84ZM626.271 448.297V489.488L631.047 490.309V494H615.725V490.309L620.5 489.488V452.838L615.725 452.018V448.297H626.271ZM645.432 448.297V489.488L650.207 490.309V494H634.885V490.309L639.66 489.488V452.838L634.885 452.018V448.297H645.432ZM664.592 494.615C661.291 494.615 658.781 493.814 657.062 492.213C655.344 490.592 654.484 488.316 654.484 485.387C654.484 483.355 655.041 481.598 656.154 480.113C657.248 478.609 658.84 477.447 660.93 476.627C663.02 475.807 665.52 475.396 668.43 475.396H674.084V472.291C674.084 470.377 673.498 468.893 672.326 467.838C671.174 466.783 669.543 466.256 667.434 466.256C666.105 466.256 664.953 466.422 663.977 466.754C663 467.066 662.111 467.506 661.311 468.072L660.695 472.496H656.242V465.23C659.113 462.887 662.873 461.715 667.521 461.715C671.369 461.715 674.387 462.633 676.574 464.469C678.762 466.305 679.855 468.932 679.855 472.35V487.613C679.855 488.023 679.855 488.424 679.855 488.814C679.875 489.205 679.904 489.596 679.943 489.986L683.02 490.309V494H674.729C674.396 492.398 674.191 490.943 674.113 489.635C673 491.061 671.604 492.252 669.924 493.209C668.264 494.146 666.486 494.615 664.592 494.615ZM665.441 489.781C667.355 489.781 669.104 489.322 670.686 488.404C672.268 487.486 673.4 486.383 674.084 485.094V479.352H668.225C665.568 479.352 663.576 479.986 662.248 481.256C660.92 482.525 660.256 483.941 660.256 485.504C660.256 488.355 661.984 489.781 665.441 489.781ZM733.85 489.576L734.523 482.838H738.947V494H708.215V490.309L712.99 489.488V455.885L708.215 455.064V451.344H723.537V455.064L718.762 455.885V489.576H733.85ZM753.713 494.615C750.412 494.615 747.902 493.814 746.184 492.213C744.465 490.592 743.605 488.316 743.605 485.387C743.605 483.355 744.162 481.598 745.275 480.113C746.369 478.609 747.961 477.447 750.051 476.627C752.141 475.807 754.641 475.396 757.551 475.396H763.205V472.291C763.205 470.377 762.619 468.893 761.447 467.838C760.295 466.783 758.664 466.256 756.555 466.256C755.227 466.256 754.074 466.422 753.098 466.754C752.121 467.066 751.232 467.506 750.432 468.072L749.816 472.496H745.363V465.23C748.234 462.887 751.994 461.715 756.643 461.715C760.49 461.715 763.508 462.633 765.695 464.469C767.883 466.305 768.977 468.932 768.977 472.35V487.613C768.977 488.023 768.977 488.424 768.977 488.814C768.996 489.205 769.025 489.596 769.064 489.986L772.141 490.309V494H763.85C763.518 492.398 763.312 490.943 763.234 489.635C762.121 491.061 760.725 492.252 759.045 493.209C757.385 494.146 755.607 494.615 753.713 494.615ZM754.562 489.781C756.477 489.781 758.225 489.322 759.807 488.404C761.389 487.486 762.521 486.383 763.205 485.094V479.352H757.346C754.689 479.352 752.697 479.986 751.369 481.256C750.041 482.525 749.377 483.941 749.377 485.504C749.377 488.355 751.105 489.781 754.562 489.781ZM787.111 489.488L791.887 490.309V494H776.564V490.309L781.34 489.488V466.842L776.564 466.021V462.301H786.496L786.994 466.344L787.053 466.9C787.951 465.279 789.055 464.01 790.363 463.092C791.691 462.174 793.205 461.715 794.904 461.715C795.51 461.715 796.125 461.773 796.75 461.891C797.395 461.988 797.854 462.086 798.127 462.184L797.365 467.545L793.352 467.311C791.828 467.213 790.549 467.564 789.514 468.365C788.479 469.146 787.678 470.201 787.111 471.529V489.488ZM814.475 494.615C812.346 494.615 810.354 494.4 808.498 493.971C806.643 493.541 804.67 492.877 802.58 491.979L802.521 484.449H806.887L807.971 488.99C810.041 489.85 812.209 490.279 814.475 490.279C816.818 490.279 818.498 489.83 819.514 488.932C820.529 488.033 821.037 486.92 821.037 485.592C821.037 484.342 820.52 483.287 819.484 482.428C818.469 481.549 816.613 480.807 813.918 480.201C810.09 479.322 807.268 478.15 805.451 476.686C803.654 475.201 802.756 473.229 802.756 470.768C802.756 469.049 803.254 467.506 804.25 466.139C805.246 464.791 806.633 463.717 808.41 462.916C810.188 462.115 812.258 461.715 814.621 461.715C817.023 461.715 819.074 461.988 820.773 462.535C822.492 463.082 823.986 463.814 825.256 464.732L825.549 471.969H821.213L820.275 467.75C818.85 466.695 816.965 466.168 814.621 466.168C812.824 466.168 811.359 466.588 810.227 467.428C809.113 468.268 808.557 469.322 808.557 470.592C808.557 471.314 808.723 471.959 809.055 472.525C809.406 473.131 810.109 473.658 811.164 474.107C812.219 474.557 813.479 474.957 814.943 475.309C819.357 476.344 822.434 477.662 824.172 479.264C825.93 480.865 826.809 482.838 826.809 485.182C826.809 487.857 825.812 490.104 823.82 491.92C821.848 493.717 818.732 494.615 814.475 494.615ZM846.027 494.615C843.098 494.615 840.549 493.941 838.381 492.594C836.213 491.266 834.533 489.41 833.342 487.027C832.17 484.645 831.584 481.891 831.584 478.766V477.477C831.584 474.449 832.209 471.754 833.459 469.391C834.689 467.008 836.33 465.133 838.381 463.766C840.451 462.398 842.707 461.715 845.148 461.715C848 461.715 850.393 462.301 852.326 463.473C854.24 464.645 855.686 466.295 856.662 468.424C857.639 470.533 858.127 473.023 858.127 475.895V479.498H837.561L837.473 479.645C837.492 481.637 837.854 483.434 838.557 485.035C839.24 486.617 840.207 487.857 841.457 488.756C842.727 489.654 844.25 490.104 846.027 490.104C847.98 490.104 849.689 489.83 851.154 489.283C852.639 488.717 853.918 487.945 854.992 486.969L857.248 490.719C856.115 491.812 854.611 492.74 852.736 493.502C850.881 494.244 848.645 494.615 846.027 494.615ZM837.678 474.84L837.736 474.986H852.355V474.225C852.355 472.682 852.092 471.314 851.564 470.123C851.018 468.912 850.207 467.965 849.133 467.281C848.078 466.598 846.75 466.256 845.148 466.256C843.879 466.256 842.707 466.627 841.633 467.369C839.445 468.951 838.127 471.441 837.678 474.84ZM873.186 489.488L877.961 490.309V494H862.639V490.309L867.414 489.488V466.842L862.639 466.021V462.301H872.57L872.98 467.018C874.035 465.338 875.354 464.039 876.936 463.121C878.537 462.184 880.354 461.715 882.385 461.715C885.803 461.715 888.449 462.721 890.324 464.732C892.199 466.725 893.137 469.811 893.137 473.99V489.488L897.912 490.309V494H882.59V490.309L887.365 489.488V474.107C887.365 471.314 886.809 469.332 885.695 468.16C884.602 466.988 882.922 466.402 880.656 466.402C878.996 466.402 877.521 466.803 876.232 467.604C874.963 468.404 873.947 469.498 873.186 470.885V489.488Z" fill="black"/>
<path d="M536.154 497.662H899.816V499.127H536.154V497.662Z" fill="black"/>
<path d="M600.109 522.291V524H595.266V522.291L596.281 522.145L600.803 509.781H603.723L608.215 522.145L609.23 522.291V524H604.387V522.291L605.373 522.115L604.748 520.162H599.748L599.123 522.115L600.109 522.291ZM602.219 512.76L602.072 513.219L600.422 518.062H604.074L602.414 513.189L602.277 512.76H602.219ZM626.193 522.291V524H620.285V522.291L621.809 521.998V511.979H619.221L619.064 513.678H616.906V509.781H629.592V513.678H627.424L627.268 511.979H624.66V521.998L626.193 522.291ZM636.457 522.291V524H630.871V522.291L632.238 521.998V515.445L630.725 515.152V513.434H634.895L635.002 514.742L635.021 514.977C635.549 513.818 636.33 513.238 637.365 513.238C637.535 513.238 637.72 513.255 637.922 513.287C638.124 513.313 638.303 513.349 638.459 513.395L638.156 516.021L636.74 515.943C636.337 515.924 636.008 515.992 635.754 516.148C635.507 516.305 635.285 516.529 635.09 516.822V521.998L636.457 522.291ZM643.449 508.766V511.197H640.5V508.766H643.449ZM644.816 522.291V524H639.221V522.291L640.598 521.998V515.445L639.074 515.152V513.434H643.449V521.998L644.816 522.291ZM651.955 524.205C651.304 524.205 650.747 524.078 650.285 523.824C649.823 523.564 649.436 523.189 649.123 522.701L648.918 524H646.457V510.777L644.943 510.484V508.766H649.299V514.557C649.605 514.133 649.979 513.808 650.422 513.58C650.871 513.352 651.392 513.238 651.984 513.238C652.844 513.238 653.57 513.466 654.162 513.922C654.761 514.378 655.214 515.025 655.52 515.865C655.832 516.699 655.988 517.678 655.988 518.805V519.01C655.988 520.058 655.832 520.969 655.52 521.744C655.207 522.525 654.751 523.131 654.152 523.561C653.553 523.99 652.821 524.205 651.955 524.205ZM651.096 521.988C651.825 521.988 652.349 521.731 652.668 521.217C652.987 520.696 653.146 519.96 653.146 519.01V518.805C653.146 518.108 653.078 517.512 652.941 517.018C652.798 516.516 652.577 516.132 652.277 515.865C651.984 515.592 651.6 515.455 651.125 515.455C650.695 515.455 650.327 515.556 650.021 515.758C649.715 515.96 649.475 516.233 649.299 516.578V520.992C649.696 521.656 650.295 521.988 651.096 521.988ZM661.799 524.205C660.686 524.205 659.81 523.854 659.172 523.15C658.54 522.441 658.225 521.34 658.225 519.85V515.445L657.062 515.152V513.434H661.076V519.869C661.076 520.624 661.206 521.168 661.467 521.5C661.734 521.826 662.134 521.988 662.668 521.988C663.514 521.988 664.156 521.669 664.592 521.031V515.445L663.332 515.152V513.434H667.443V521.998L668.713 522.291V524H664.943L664.748 522.662C664.416 523.157 663.999 523.538 663.498 523.805C662.997 524.072 662.43 524.205 661.799 524.205ZM673.928 524.205C672.945 524.205 672.186 523.935 671.652 523.395C671.125 522.854 670.861 521.998 670.861 520.826V515.436H669.406V513.434H670.861V510.846H673.703V513.434H675.646V515.436H673.703V520.816C673.703 521.227 673.788 521.52 673.957 521.695C674.133 521.871 674.37 521.959 674.67 521.959C674.826 521.959 674.995 521.949 675.178 521.93C675.36 521.904 675.516 521.878 675.646 521.852L675.891 523.912C675.598 523.997 675.279 524.065 674.934 524.117C674.595 524.176 674.26 524.205 673.928 524.205ZM682.023 524.205C681.014 524.205 680.132 523.98 679.377 523.531C678.622 523.089 678.036 522.477 677.619 521.695C677.209 520.914 677.004 520.022 677.004 519.02V518.629C677.004 517.574 677.199 516.643 677.59 515.836C677.98 515.022 678.531 514.384 679.24 513.922C679.956 513.46 680.799 513.232 681.77 513.238C682.727 513.238 683.531 513.427 684.182 513.805C685.51 514.573 686.174 515.976 686.174 518.014V519.566H679.963L679.943 519.625C679.982 520.081 680.1 520.491 680.295 520.855C680.484 521.214 680.754 521.497 681.105 521.705C681.457 521.913 681.883 522.018 682.385 522.018C682.906 522.018 683.391 521.952 683.84 521.822C684.296 521.686 684.738 521.487 685.168 521.227L685.939 522.984C685.503 523.336 684.953 523.629 684.289 523.863C683.632 524.091 682.876 524.205 682.023 524.205ZM679.953 517.633L679.982 517.682H683.508V517.428C683.508 517.005 683.452 516.633 683.342 516.314C683.094 515.67 682.587 515.348 681.818 515.348C681.447 515.348 681.128 515.445 680.861 515.641C680.601 515.842 680.396 516.116 680.246 516.461C680.103 516.806 680.005 517.197 679.953 517.633ZM698.479 524.205C697.495 524.205 696.737 523.935 696.203 523.395C695.676 522.854 695.412 521.998 695.412 520.826V515.436H693.957V513.434H695.412V510.846H698.254V513.434H700.197V515.436H698.254V520.816C698.254 521.227 698.339 521.52 698.508 521.695C698.684 521.871 698.921 521.959 699.221 521.959C699.377 521.959 699.546 521.949 699.729 521.93C699.911 521.904 700.067 521.878 700.197 521.852L700.441 523.912C700.148 523.997 699.829 524.065 699.484 524.117C699.146 524.176 698.811 524.205 698.479 524.205ZM706.555 524.205C705.513 524.205 704.618 523.977 703.869 523.521C703.12 523.066 702.548 522.434 702.15 521.627C701.753 520.813 701.555 519.879 701.555 518.824V518.619C701.555 517.558 701.753 516.627 702.15 515.826C702.548 515.012 703.117 514.378 703.859 513.922C704.608 513.466 705.5 513.238 706.535 513.238C707.59 513.238 708.485 513.466 709.221 513.922C709.963 514.378 710.533 515.012 710.93 515.826C711.327 516.633 711.525 517.564 711.525 518.619V518.824C711.525 519.885 711.327 520.816 710.93 521.617C710.533 522.424 709.963 523.059 709.221 523.521C708.479 523.977 707.59 524.205 706.555 524.205ZM706.555 522.018C707.043 522.018 707.447 521.884 707.766 521.617C708.078 521.35 708.309 520.979 708.459 520.504C708.609 520.022 708.684 519.462 708.684 518.824V518.619C708.684 518.001 708.609 517.447 708.459 516.959C708.309 516.477 708.075 516.103 707.756 515.836C707.443 515.569 707.036 515.436 706.535 515.436C706.053 515.436 705.65 515.569 705.324 515.836C705.005 516.109 704.771 516.487 704.621 516.969C704.478 517.444 704.406 517.994 704.406 518.619V518.824C704.406 519.456 704.481 520.016 704.631 520.504C704.781 520.986 705.012 521.36 705.324 521.627C705.643 521.887 706.053 522.018 706.555 522.018ZM725.461 522.291V524H719.572V522.291L721.086 521.998V511.793L719.572 511.5V509.781H723.977L730.168 519.645L730.227 519.635V511.793L728.41 511.5V509.781H734.299V511.5L732.775 511.793V524H730.021L723.693 514.234L723.635 514.244V521.998L725.461 522.291ZM740.363 524.205C739.354 524.205 738.472 523.98 737.717 523.531C736.962 523.089 736.376 522.477 735.959 521.695C735.549 520.914 735.344 520.022 735.344 519.02V518.629C735.344 517.574 735.539 516.643 735.93 515.836C736.32 515.022 736.87 514.384 737.58 513.922C738.296 513.46 739.139 513.232 740.109 513.238C741.066 513.238 741.87 513.427 742.521 513.805C743.85 514.573 744.514 515.976 744.514 518.014V519.566H738.303L738.283 519.625C738.322 520.081 738.439 520.491 738.635 520.855C738.824 521.214 739.094 521.497 739.445 521.705C739.797 521.913 740.223 522.018 740.725 522.018C741.245 522.018 741.73 521.952 742.18 521.822C742.635 521.686 743.078 521.487 743.508 521.227L744.279 522.984C743.843 523.336 743.293 523.629 742.629 523.863C741.971 524.091 741.216 524.205 740.363 524.205ZM738.293 517.633L738.322 517.682H741.848V517.428C741.848 517.005 741.792 516.633 741.682 516.314C741.434 515.67 740.926 515.348 740.158 515.348C739.787 515.348 739.468 515.445 739.201 515.641C738.941 515.842 738.736 516.116 738.586 516.461C738.443 516.806 738.345 517.197 738.293 517.633ZM751.281 522.291V524H745.676V522.291L747.053 521.998V510.777L745.529 510.484V508.766H749.904V521.998L751.281 522.291ZM757.668 522.291V524H752.062V522.291L753.439 521.998V510.777L751.916 510.484V508.766H756.291V521.998L757.668 522.291ZM762.141 524.205C761.092 524.205 760.259 523.925 759.641 523.365C759.022 522.799 758.713 522.031 758.713 521.061C758.713 520.396 758.895 519.814 759.26 519.312C759.624 518.811 760.158 518.417 760.861 518.131C761.564 517.844 762.434 517.701 763.469 517.701H764.865V516.92C764.865 516.412 764.715 516.002 764.416 515.689C764.123 515.37 763.68 515.211 763.088 515.211C762.782 515.211 762.505 515.25 762.258 515.328C762.017 515.4 761.799 515.504 761.604 515.641L761.379 517.037H759.328L759.289 514.293C759.842 513.98 760.441 513.727 761.086 513.531C761.73 513.336 762.45 513.238 763.244 513.238C764.624 513.238 765.715 513.561 766.516 514.205C767.316 514.843 767.717 515.758 767.717 516.949V521.305C767.717 521.448 767.717 521.591 767.717 521.734C767.723 521.871 767.736 522.005 767.756 522.135L768.859 522.291V524H765.324C765.253 523.818 765.181 523.622 765.109 523.414C765.038 523.206 764.986 522.997 764.953 522.789C764.615 523.219 764.214 523.564 763.752 523.824C763.296 524.078 762.759 524.205 762.141 524.205ZM762.902 522.096C763.299 522.096 763.677 522.008 764.035 521.832C764.393 521.65 764.67 521.412 764.865 521.119V519.449H763.459C762.834 519.449 762.359 519.592 762.033 519.879C761.714 520.165 761.555 520.51 761.555 520.914C761.555 521.292 761.672 521.585 761.906 521.793C762.147 521.995 762.479 522.096 762.902 522.096ZM787.336 519.732V524H776.643V522.291L778.156 521.998V511.793L776.643 511.5V509.781H782.727V511.5L781.008 511.793V521.812H785.021L785.158 519.732H787.336ZM791.965 524.205C790.917 524.205 790.083 523.925 789.465 523.365C788.846 522.799 788.537 522.031 788.537 521.061C788.537 520.396 788.719 519.814 789.084 519.312C789.449 518.811 789.982 518.417 790.686 518.131C791.389 517.844 792.258 517.701 793.293 517.701H794.689V516.92C794.689 516.412 794.54 516.002 794.24 515.689C793.947 515.37 793.505 515.211 792.912 515.211C792.606 515.211 792.329 515.25 792.082 515.328C791.841 515.4 791.623 515.504 791.428 515.641L791.203 517.037H789.152L789.113 514.293C789.667 513.98 790.266 513.727 790.91 513.531C791.555 513.336 792.274 513.238 793.068 513.238C794.449 513.238 795.539 513.561 796.34 514.205C797.141 514.843 797.541 515.758 797.541 516.949V521.305C797.541 521.448 797.541 521.591 797.541 521.734C797.548 521.871 797.561 522.005 797.58 522.135L798.684 522.291V524H795.148C795.077 523.818 795.005 523.622 794.934 523.414C794.862 523.206 794.81 522.997 794.777 522.789C794.439 523.219 794.038 523.564 793.576 523.824C793.12 524.078 792.583 524.205 791.965 524.205ZM792.727 522.096C793.124 522.096 793.501 522.008 793.859 521.832C794.217 521.65 794.494 521.412 794.689 521.119V519.449H793.283C792.658 519.449 792.183 519.592 791.857 519.879C791.538 520.165 791.379 520.51 791.379 520.914C791.379 521.292 791.496 521.585 791.73 521.793C791.971 521.995 792.303 522.096 792.727 522.096ZM805.5 522.291V524H799.914V522.291L801.281 521.998V515.445L799.768 515.152V513.434H803.938L804.045 514.742L804.064 514.977C804.592 513.818 805.373 513.238 806.408 513.238C806.577 513.238 806.763 513.255 806.965 513.287C807.167 513.313 807.346 513.349 807.502 513.395L807.199 516.021L805.783 515.943C805.38 515.924 805.051 515.992 804.797 516.148C804.549 516.305 804.328 516.529 804.133 516.822V521.998L805.5 522.291ZM812.883 524.205C812.095 524.205 811.359 524.13 810.676 523.98C809.999 523.831 809.348 523.616 808.723 523.336L808.693 520.348H810.676L811.057 521.871C811.278 521.982 811.519 522.07 811.779 522.135C812.046 522.2 812.349 522.232 812.688 522.232C813.326 522.232 813.775 522.128 814.035 521.92C814.296 521.712 814.426 521.451 814.426 521.139C814.426 520.839 814.289 520.579 814.016 520.357C813.729 520.13 813.176 519.934 812.355 519.771C811.105 519.511 810.184 519.107 809.592 518.561C808.999 518.014 808.703 517.314 808.703 516.461C808.703 515.868 808.853 515.335 809.152 514.859C809.445 514.378 809.895 513.99 810.5 513.697C811.112 513.404 811.893 513.258 812.844 513.258C813.638 513.258 814.364 513.336 815.021 513.492C815.686 513.642 816.242 513.84 816.691 514.088L816.721 516.979H814.748L814.445 515.592C814.1 515.331 813.625 515.201 813.02 515.201C812.518 515.201 812.134 515.302 811.867 515.504C811.6 515.706 811.467 515.966 811.467 516.285C811.467 516.467 811.516 516.637 811.613 516.793C811.717 516.969 811.929 517.125 812.248 517.262C812.574 517.398 812.954 517.519 813.391 517.623C814.699 517.923 815.653 518.323 816.252 518.824C816.851 519.319 817.15 520.016 817.15 520.914C817.15 521.897 816.792 522.691 816.076 523.297C815.367 523.902 814.302 524.205 812.883 524.205ZM823.508 524.205C822.499 524.205 821.617 523.98 820.861 523.531C820.106 523.089 819.52 522.477 819.104 521.695C818.693 520.914 818.488 520.022 818.488 519.02V518.629C818.488 517.574 818.684 516.643 819.074 515.836C819.465 515.022 820.015 514.384 820.725 513.922C821.441 513.46 822.284 513.232 823.254 513.238C824.211 513.238 825.015 513.427 825.666 513.805C826.994 514.573 827.658 515.976 827.658 518.014V519.566H821.447L821.428 519.625C821.467 520.081 821.584 520.491 821.779 520.855C821.968 521.214 822.238 521.497 822.59 521.705C822.941 521.913 823.368 522.018 823.869 522.018C824.39 522.018 824.875 521.952 825.324 521.822C825.78 521.686 826.223 521.487 826.652 521.227L827.424 522.984C826.988 523.336 826.438 523.629 825.773 523.863C825.116 524.091 824.361 524.205 823.508 524.205ZM821.438 517.633L821.467 517.682H824.992V517.428C824.992 517.005 824.937 516.633 824.826 516.314C824.579 515.67 824.071 515.348 823.303 515.348C822.932 515.348 822.613 515.445 822.346 515.641C822.085 515.842 821.88 516.116 821.73 516.461C821.587 516.806 821.49 517.197 821.438 517.633ZM834.24 522.291V524H828.869V522.291L830.236 521.998V515.445L828.723 515.152V513.434H832.893L833.02 514.947C833.371 514.407 833.804 513.987 834.318 513.688C834.839 513.388 835.432 513.238 836.096 513.238C837.144 513.238 837.964 513.574 838.557 514.244C839.149 514.915 839.445 515.966 839.445 517.398V521.998L840.812 522.291V524H835.363V522.291L836.584 521.998V517.408C836.584 516.699 836.444 516.197 836.164 515.904C835.884 515.605 835.467 515.455 834.914 515.455C834.113 515.455 833.505 515.787 833.088 516.451V521.998L834.24 522.291ZM446.242 548.967L445.275 551.584L446.35 551.77V553H442.277V551.77L443.332 551.623L448.303 538.781H449.953L454.836 551.623L455.881 551.77V553H451.799V551.77L452.873 551.584L451.936 548.967H446.242ZM449.26 541.574L449.143 541.252H449.084L448.967 541.574L446.838 547.355H451.35L449.26 541.574ZM467.629 551.496L469.221 551.77V553H464.113V551.77L465.705 551.496V543.947L464.113 543.674V542.434H467.424L467.59 543.781L467.609 543.967C467.909 543.426 468.277 543.003 468.713 542.697C469.156 542.391 469.66 542.238 470.227 542.238C470.428 542.238 470.633 542.258 470.842 542.297C471.057 542.329 471.21 542.362 471.301 542.395L471.047 544.182L469.709 544.104C469.201 544.071 468.775 544.188 468.43 544.455C468.085 544.715 467.818 545.067 467.629 545.51V551.496ZM477.287 553.205C476.311 553.205 475.461 552.98 474.738 552.531C474.016 552.089 473.456 551.47 473.059 550.676C472.668 549.882 472.473 548.964 472.473 547.922V547.492C472.473 546.483 472.681 545.585 473.098 544.797C473.508 544.003 474.055 543.378 474.738 542.922C475.428 542.466 476.18 542.238 476.994 542.238C477.945 542.238 478.742 542.434 479.387 542.824C480.025 543.215 480.507 543.765 480.832 544.475C481.158 545.178 481.32 546.008 481.32 546.965V548.166H474.465L474.436 548.215C474.442 548.879 474.562 549.478 474.797 550.012C475.025 550.539 475.347 550.952 475.764 551.252C476.187 551.551 476.695 551.701 477.287 551.701C477.938 551.701 478.508 551.61 478.996 551.428C479.491 551.239 479.917 550.982 480.275 550.656L481.027 551.906C480.65 552.271 480.148 552.58 479.523 552.834C478.905 553.081 478.16 553.205 477.287 553.205ZM474.504 546.613L474.523 546.662H479.396V546.408C479.396 545.894 479.309 545.438 479.133 545.041C478.951 544.637 478.68 544.322 478.322 544.094C477.971 543.866 477.528 543.752 476.994 543.752C476.571 543.752 476.18 543.876 475.822 544.123C475.093 544.65 474.654 545.48 474.504 546.613ZM485.949 555.549L487.629 555.822V557.062H482.531V555.822L484.025 555.549V543.947L482.434 543.674V542.434H485.676L485.852 543.723C486.574 542.733 487.587 542.238 488.889 542.238C489.768 542.238 490.513 542.473 491.125 542.941C491.743 543.417 492.215 544.081 492.541 544.934C492.867 545.78 493.029 546.773 493.029 547.912V548.117C493.029 549.126 492.867 550.015 492.541 550.783C492.209 551.545 491.737 552.141 491.125 552.57C490.513 552.993 489.777 553.205 488.918 553.205C487.635 553.205 486.646 552.772 485.949 551.906V555.549ZM488.322 551.701C489.234 551.701 489.924 551.369 490.393 550.705C490.861 550.041 491.096 549.178 491.096 548.117V547.912C491.096 547.111 490.992 546.398 490.783 545.773C490.575 545.155 490.262 544.673 489.846 544.328C489.436 543.977 488.921 543.801 488.303 543.801C487.756 543.801 487.287 543.924 486.896 544.172C486.506 544.419 486.19 544.758 485.949 545.188V550.334C486.19 550.77 486.503 551.109 486.887 551.35C487.277 551.584 487.756 551.701 488.322 551.701ZM499.299 553.205C498.329 553.205 497.489 552.974 496.779 552.512C496.07 552.049 495.523 551.415 495.139 550.607C494.755 549.8 494.562 548.876 494.562 547.834V547.619C494.562 546.584 494.755 545.656 495.139 544.836C495.523 544.022 496.066 543.387 496.77 542.932C497.479 542.469 498.316 542.238 499.279 542.238C500.249 542.238 501.092 542.469 501.809 542.932C502.512 543.394 503.055 544.029 503.439 544.836C503.824 545.643 504.016 546.571 504.016 547.619V547.834C504.016 548.869 503.824 549.797 503.439 550.617C503.055 551.424 502.512 552.059 501.809 552.521C501.105 552.977 500.269 553.205 499.299 553.205ZM499.299 551.701C499.911 551.701 500.425 551.532 500.842 551.193C501.252 550.861 501.561 550.406 501.77 549.826C501.984 549.24 502.092 548.576 502.092 547.834V547.619C502.092 546.883 501.988 546.219 501.779 545.627C501.564 545.048 501.249 544.592 500.832 544.26C500.415 543.921 499.898 543.752 499.279 543.752C498.674 543.752 498.16 543.918 497.736 544.25C497.32 544.589 497.007 545.051 496.799 545.637C496.59 546.216 496.486 546.877 496.486 547.619V547.834C496.486 548.57 496.59 549.23 496.799 549.816C497.007 550.402 497.32 550.865 497.736 551.203C498.16 551.535 498.68 551.701 499.299 551.701ZM508.996 551.496L510.588 551.77V553H505.48V551.77L507.072 551.496V543.947L505.48 543.674V542.434H508.791L508.957 543.781L508.977 543.967C509.276 543.426 509.644 543.003 510.08 542.697C510.523 542.391 511.027 542.238 511.594 542.238C511.796 542.238 512.001 542.258 512.209 542.297C512.424 542.329 512.577 542.362 512.668 542.395L512.414 544.182L511.076 544.104C510.568 544.071 510.142 544.188 509.797 544.455C509.452 544.715 509.185 545.067 508.996 545.51V551.496ZM517.57 553.166C516.789 553.166 516.167 552.938 515.705 552.482C515.249 552.02 515.021 551.285 515.021 550.275V543.859H513.352V542.434H515.021V539.885H516.945V542.434H519.24V543.859H516.945V550.275C516.945 550.783 517.046 551.158 517.248 551.398C517.45 551.639 517.72 551.76 518.059 551.76C518.286 551.76 518.54 551.74 518.82 551.701C519.1 551.656 519.318 551.617 519.475 551.584L519.738 552.844C519.458 552.928 519.113 553.003 518.703 553.068C518.299 553.133 517.922 553.166 517.57 553.166ZM531.281 551.496L533.098 551.77V553H527.766V551.77L529.357 551.496V543.859H527.707V542.434H529.357V541.096C529.357 539.969 529.65 539.1 530.236 538.488C530.829 537.87 531.652 537.561 532.707 537.561C532.928 537.561 533.166 537.58 533.42 537.619C533.68 537.652 533.947 537.701 534.221 537.766L533.986 539.23C533.869 539.204 533.71 539.182 533.508 539.162C533.312 539.143 533.127 539.133 532.951 539.133C531.838 539.133 531.281 539.787 531.281 541.096V542.434H533.586V543.859H531.281V551.496ZM539.67 553.205C538.7 553.205 537.86 552.974 537.15 552.512C536.441 552.049 535.894 551.415 535.51 550.607C535.126 549.8 534.934 548.876 534.934 547.834V547.619C534.934 546.584 535.126 545.656 535.51 544.836C535.894 544.022 536.438 543.387 537.141 542.932C537.85 542.469 538.687 542.238 539.65 542.238C540.62 542.238 541.464 542.469 542.18 542.932C542.883 543.394 543.426 544.029 543.811 544.836C544.195 545.643 544.387 546.571 544.387 547.619V547.834C544.387 548.869 544.195 549.797 543.811 550.617C543.426 551.424 542.883 552.059 542.18 552.521C541.477 552.977 540.64 553.205 539.67 553.205ZM539.67 551.701C540.282 551.701 540.796 551.532 541.213 551.193C541.623 550.861 541.932 550.406 542.141 549.826C542.355 549.24 542.463 548.576 542.463 547.834V547.619C542.463 546.883 542.359 546.219 542.15 545.627C541.936 545.048 541.62 544.592 541.203 544.26C540.786 543.921 540.269 543.752 539.65 543.752C539.045 543.752 538.531 543.918 538.107 544.25C537.691 544.589 537.378 545.051 537.17 545.637C536.962 546.216 536.857 546.877 536.857 547.619V547.834C536.857 548.57 536.962 549.23 537.17 549.816C537.378 550.402 537.691 550.865 538.107 551.203C538.531 551.535 539.051 551.701 539.67 551.701ZM549.367 551.496L550.959 551.77V553H545.852V551.77L547.443 551.496V543.947L545.852 543.674V542.434H549.162L549.328 543.781L549.348 543.967C549.647 543.426 550.015 543.003 550.451 542.697C550.894 542.391 551.398 542.238 551.965 542.238C552.167 542.238 552.372 542.258 552.58 542.297C552.795 542.329 552.948 542.362 553.039 542.395L552.785 544.182L551.447 544.104C550.939 544.071 550.513 544.188 550.168 544.455C549.823 544.715 549.556 545.067 549.367 545.51V551.496ZM567.854 553H561.115V551.77L562.707 551.496V540.295L561.115 540.021V538.781H567.248C568.732 538.781 569.891 539.104 570.725 539.748C571.564 540.386 571.984 541.346 571.984 542.629C571.984 543.26 571.783 543.827 571.379 544.328C570.982 544.823 570.454 545.191 569.797 545.432C570.376 545.549 570.868 545.777 571.271 546.115C572.131 546.831 572.561 547.788 572.561 548.986C572.561 550.288 572.137 551.285 571.291 551.975C570.445 552.658 569.299 553 567.854 553ZM567.248 540.295H564.631V544.826H567.746C568.436 544.826 568.993 544.628 569.416 544.23C569.846 543.827 570.061 543.28 570.061 542.59C570.061 541.822 569.82 541.249 569.338 540.871C568.856 540.487 568.16 540.295 567.248 540.295ZM568.146 546.33H564.631V551.496H567.854C568.732 551.496 569.413 551.281 569.895 550.852C570.383 550.415 570.627 549.8 570.627 549.006C570.627 548.446 570.539 547.967 570.363 547.57C570.181 547.173 569.904 546.867 569.533 546.652C569.169 546.438 568.706 546.33 568.146 546.33ZM577.375 537.766V551.496L578.967 551.77V553H573.859V551.77L575.451 551.496V539.279L573.859 539.006V537.766H577.375ZM583.762 553.205C582.661 553.205 581.825 552.938 581.252 552.404C580.679 551.864 580.393 551.105 580.393 550.129C580.393 549.452 580.578 548.866 580.949 548.371C581.314 547.87 581.844 547.482 582.541 547.209C583.238 546.936 584.071 546.799 585.041 546.799H586.926V545.764C586.926 545.126 586.73 544.631 586.34 544.279C585.956 543.928 585.412 543.752 584.709 543.752C584.266 543.752 583.882 543.807 583.557 543.918C583.231 544.022 582.935 544.169 582.668 544.357L582.463 545.832H580.979V543.41C581.936 542.629 583.189 542.238 584.738 542.238C586.021 542.238 587.027 542.544 587.756 543.156C588.485 543.768 588.85 544.644 588.85 545.783V550.871C588.85 551.008 588.85 551.141 588.85 551.271C588.856 551.402 588.866 551.532 588.879 551.662L589.904 551.77V553H587.141C587.03 552.466 586.962 551.981 586.936 551.545C586.564 552.02 586.099 552.417 585.539 552.736C584.986 553.049 584.393 553.205 583.762 553.205ZM584.045 551.594C584.683 551.594 585.266 551.441 585.793 551.135C586.32 550.829 586.698 550.461 586.926 550.031V548.117H584.973C584.087 548.117 583.423 548.329 582.98 548.752C582.538 549.175 582.316 549.647 582.316 550.168C582.316 551.118 582.893 551.594 584.045 551.594ZM596.174 553.205C595.223 553.205 594.39 552.98 593.674 552.531C592.964 552.089 592.414 551.47 592.023 550.676C591.633 549.882 591.438 548.964 591.438 547.922V547.512C591.438 546.496 591.626 545.598 592.004 544.816C592.382 544.022 592.925 543.394 593.635 542.932C594.344 542.469 595.191 542.238 596.174 542.238C597.027 542.238 597.772 542.378 598.41 542.658C599.055 542.938 599.595 543.322 600.031 543.811L600.08 546.35H598.576L598.244 544.504C598.023 544.276 597.746 544.094 597.414 543.957C597.082 543.82 596.691 543.752 596.242 543.752C595.663 543.752 595.161 543.921 594.738 544.26C594.302 544.598 593.964 545.051 593.723 545.617C593.482 546.184 593.361 546.815 593.361 547.512V547.922C593.361 548.684 593.475 549.351 593.703 549.924C593.931 550.49 594.253 550.93 594.67 551.242C595.087 551.548 595.585 551.701 596.164 551.701C596.815 551.701 597.355 551.522 597.785 551.164C598.215 550.806 598.479 550.314 598.576 549.689H600.305L600.324 549.748C600.298 550.34 600.119 550.907 599.787 551.447C599.462 551.975 598.996 552.401 598.391 552.727C597.792 553.046 597.053 553.205 596.174 553.205ZM612.453 543.674L611.096 543.928L608.127 546.916L611.77 551.535L613.293 551.77V553H608.518V551.77L609.592 551.643L609.562 551.604L606.887 548.156L605.246 549.807V551.496L606.838 551.77V553H601.73V551.77L603.322 551.496V539.279L601.73 539.006V537.766H605.246V547.58L608.986 543.859L609.035 543.801L607.902 543.674V542.434H612.453V543.674ZM624.826 546.721V551.496L626.418 551.77V553H621.311V551.77L622.902 551.496V540.295L621.311 540.021V538.781H626.418V540.021L624.826 540.295V545.207H631.623V540.295L630.031 540.021V538.781H635.139V540.021L633.547 540.295V551.496L635.139 551.77V553H630.031V551.77L631.623 551.496V546.721H624.826ZM638.078 539.826V537.766H640.1V539.826H638.078ZM640.1 542.434V551.496L641.691 551.77V553H636.584V551.77L638.176 551.496V543.947L636.584 543.674V542.434H640.1ZM647.297 553.205C646.587 553.205 645.923 553.133 645.305 552.99C644.686 552.847 644.029 552.626 643.332 552.326L643.312 549.816H644.768L645.129 551.33C645.819 551.617 646.542 551.76 647.297 551.76C648.078 551.76 648.638 551.61 648.977 551.311C649.315 551.011 649.484 550.64 649.484 550.197C649.484 549.781 649.312 549.429 648.967 549.143C648.628 548.85 648.01 548.602 647.111 548.4C645.835 548.107 644.895 547.717 644.289 547.229C643.69 546.734 643.391 546.076 643.391 545.256C643.391 544.683 643.557 544.169 643.889 543.713C644.221 543.264 644.683 542.906 645.275 542.639C645.868 542.372 646.558 542.238 647.346 542.238C648.146 542.238 648.83 542.329 649.396 542.512C649.969 542.694 650.467 542.938 650.891 543.244L650.988 545.656H649.543L649.23 544.25C648.755 543.898 648.127 543.723 647.346 543.723C646.747 543.723 646.258 543.863 645.881 544.143C645.51 544.423 645.324 544.774 645.324 545.197C645.324 545.438 645.38 545.653 645.49 545.842C645.607 546.044 645.842 546.219 646.193 546.369C646.545 546.519 646.965 546.652 647.453 546.77C648.924 547.115 649.95 547.554 650.529 548.088C651.115 548.622 651.408 549.279 651.408 550.061C651.408 550.952 651.076 551.701 650.412 552.307C649.755 552.906 648.716 553.205 647.297 553.205ZM656.73 553.166C655.949 553.166 655.327 552.938 654.865 552.482C654.41 552.02 654.182 551.285 654.182 550.275V543.859H652.512V542.434H654.182V539.885H656.105V542.434H658.4V543.859H656.105V550.275C656.105 550.783 656.206 551.158 656.408 551.398C656.61 551.639 656.88 551.76 657.219 551.76C657.447 551.76 657.701 551.74 657.98 551.701C658.26 551.656 658.479 551.617 658.635 551.584L658.898 552.844C658.618 552.928 658.273 553.003 657.863 553.068C657.46 553.133 657.082 553.166 656.73 553.166ZM664.904 553.205C663.934 553.205 663.094 552.974 662.385 552.512C661.675 552.049 661.128 551.415 660.744 550.607C660.36 549.8 660.168 548.876 660.168 547.834V547.619C660.168 546.584 660.36 545.656 660.744 544.836C661.128 544.022 661.672 543.387 662.375 542.932C663.085 542.469 663.921 542.238 664.885 542.238C665.855 542.238 666.698 542.469 667.414 542.932C668.117 543.394 668.661 544.029 669.045 544.836C669.429 545.643 669.621 546.571 669.621 547.619V547.834C669.621 548.869 669.429 549.797 669.045 550.617C668.661 551.424 668.117 552.059 667.414 552.521C666.711 552.977 665.874 553.205 664.904 553.205ZM664.904 551.701C665.516 551.701 666.031 551.532 666.447 551.193C666.857 550.861 667.167 550.406 667.375 549.826C667.59 549.24 667.697 548.576 667.697 547.834V547.619C667.697 546.883 667.593 546.219 667.385 545.627C667.17 545.048 666.854 544.592 666.438 544.26C666.021 543.921 665.503 543.752 664.885 543.752C664.279 543.752 663.765 543.918 663.342 544.25C662.925 544.589 662.613 545.051 662.404 545.637C662.196 546.216 662.092 546.877 662.092 547.619V547.834C662.092 548.57 662.196 549.23 662.404 549.816C662.613 550.402 662.925 550.865 663.342 551.203C663.765 551.535 664.286 551.701 664.904 551.701ZM674.602 551.496L676.193 551.77V553H671.086V551.77L672.678 551.496V543.947L671.086 543.674V542.434H674.396L674.562 543.781L674.582 543.967C674.882 543.426 675.249 543.003 675.686 542.697C676.128 542.391 676.633 542.238 677.199 542.238C677.401 542.238 677.606 542.258 677.814 542.297C678.029 542.329 678.182 542.362 678.273 542.395L678.02 544.182L676.682 544.104C676.174 544.071 675.747 544.188 675.402 544.455C675.057 544.715 674.79 545.067 674.602 545.51V551.496ZM681.74 557.268C681.59 557.268 681.395 557.248 681.154 557.209C680.913 557.176 680.728 557.144 680.598 557.111L680.793 555.598C680.904 555.611 681.057 555.62 681.252 555.627C681.447 555.64 681.581 555.646 681.652 555.646C682.062 555.646 682.395 555.49 682.648 555.178C682.909 554.865 683.15 554.439 683.371 553.898L683.83 552.785L680.09 543.83L678.957 543.674V542.434H683.391V543.674L682.111 543.869L684.172 549.152L684.67 550.529H684.729L687.17 543.869L685.822 543.674V542.434H690.168V543.674L689.074 543.83L684.914 554.621C684.719 555.135 684.484 555.591 684.211 555.988C683.931 556.385 683.589 556.698 683.186 556.926C682.788 557.154 682.307 557.268 681.74 557.268ZM701.506 547.375V551.496L703.225 551.77V553H698.117V551.77L699.709 551.496V540.295L698.117 540.021V538.781H702.277L706.857 549.572H706.916L711.35 538.781H715.637V540.021L714.045 540.295V551.496L715.637 551.77V553H710.529V551.77L712.209 551.496V541.408L712.16 541.398L707.541 552.492H706.262L701.486 541.418L701.438 541.428L701.506 547.375ZM722.053 553.205C721.083 553.205 720.243 552.974 719.533 552.512C718.824 552.049 718.277 551.415 717.893 550.607C717.508 549.8 717.316 548.876 717.316 547.834V547.619C717.316 546.584 717.508 545.656 717.893 544.836C718.277 544.022 718.82 543.387 719.523 542.932C720.233 542.469 721.07 542.238 722.033 542.238C723.003 542.238 723.846 542.469 724.562 542.932C725.266 543.394 725.809 544.029 726.193 544.836C726.577 545.643 726.77 546.571 726.77 547.619V547.834C726.77 548.869 726.577 549.797 726.193 550.617C725.809 551.424 725.266 552.059 724.562 552.521C723.859 552.977 723.023 553.205 722.053 553.205ZM722.053 551.701C722.665 551.701 723.179 551.532 723.596 551.193C724.006 550.861 724.315 550.406 724.523 549.826C724.738 549.24 724.846 548.576 724.846 547.834V547.619C724.846 546.883 724.742 546.219 724.533 545.627C724.318 545.048 724.003 544.592 723.586 544.26C723.169 543.921 722.652 543.752 722.033 543.752C721.428 543.752 720.913 543.918 720.49 544.25C720.074 544.589 719.761 545.051 719.553 545.637C719.344 546.216 719.24 546.877 719.24 547.619V547.834C719.24 548.57 719.344 549.23 719.553 549.816C719.761 550.402 720.074 550.865 720.49 551.203C720.913 551.535 721.434 551.701 722.053 551.701ZM731.77 551.496L733.361 551.77V553H728.254V551.77L729.846 551.496V543.947L728.254 543.674V542.434H731.564L731.701 544.006C732.053 543.446 732.492 543.013 733.02 542.707C733.553 542.395 734.159 542.238 734.836 542.238C735.975 542.238 736.857 542.574 737.482 543.244C738.107 543.908 738.42 544.937 738.42 546.33V551.496L740.012 551.77V553H734.904V551.77L736.496 551.496V546.369C736.496 545.438 736.311 544.777 735.939 544.387C735.575 543.996 735.015 543.801 734.26 543.801C733.706 543.801 733.215 543.934 732.785 544.201C732.362 544.468 732.023 544.833 731.77 545.295V551.496ZM745.109 553.166C744.328 553.166 743.706 552.938 743.244 552.482C742.788 552.02 742.561 551.285 742.561 550.275V543.859H740.891V542.434H742.561V539.885H744.484V542.434H746.779V543.859H744.484V550.275C744.484 550.783 744.585 551.158 744.787 551.398C744.989 551.639 745.259 551.76 745.598 551.76C745.826 551.76 746.079 551.74 746.359 551.701C746.639 551.656 746.857 551.617 747.014 551.584L747.277 552.844C746.997 552.928 746.652 553.003 746.242 553.068C745.839 553.133 745.461 553.166 745.109 553.166ZM751.779 551.496L753.371 551.77V553H748.264V551.77L749.855 551.496V539.279L748.264 539.006V537.766H751.779V543.84C752.144 543.332 752.59 542.938 753.117 542.658C753.645 542.378 754.23 542.238 754.875 542.238C756.008 542.238 756.887 542.577 757.512 543.254C758.137 543.931 758.449 544.973 758.449 546.379V551.496L760.041 551.77V553H754.934V551.77L756.525 551.496V546.359C756.525 544.654 755.78 543.801 754.289 543.801C753.762 543.801 753.28 543.928 752.844 544.182C752.414 544.429 752.059 544.768 751.779 545.197V551.496ZM771.711 551.496L773.303 551.77V553H768.195V551.77L769.787 551.496V543.947L768.195 543.674V542.434H771.516L771.643 543.811C771.981 543.309 772.417 542.922 772.951 542.648C773.485 542.375 774.104 542.238 774.807 542.238C775.51 542.238 776.112 542.401 776.613 542.727C777.121 543.052 777.502 543.54 777.756 544.191C778.088 543.592 778.527 543.117 779.074 542.766C779.621 542.414 780.259 542.238 780.988 542.238C782.069 542.238 782.922 542.609 783.547 543.352C784.172 544.087 784.484 545.197 784.484 546.682V551.496L786.076 551.77V553H780.959V551.77L782.551 551.496V546.662C782.551 545.62 782.372 544.885 782.014 544.455C781.656 544.019 781.125 543.801 780.422 543.801C779.751 543.801 779.211 544.038 778.801 544.514C778.397 544.982 778.163 545.575 778.098 546.291V551.496L779.689 551.77V553H774.582V551.77L776.174 551.496V546.662C776.174 545.673 775.988 544.95 775.617 544.494C775.253 544.032 774.722 543.801 774.025 543.801C773.439 543.801 772.958 543.921 772.58 544.162C772.202 544.403 771.913 544.742 771.711 545.178V551.496ZM790.93 553.205C789.829 553.205 788.993 552.938 788.42 552.404C787.847 551.864 787.561 551.105 787.561 550.129C787.561 549.452 787.746 548.866 788.117 548.371C788.482 547.87 789.012 547.482 789.709 547.209C790.406 546.936 791.239 546.799 792.209 546.799H794.094V545.764C794.094 545.126 793.898 544.631 793.508 544.279C793.124 543.928 792.58 543.752 791.877 543.752C791.434 543.752 791.05 543.807 790.725 543.918C790.399 544.022 790.103 544.169 789.836 544.357L789.631 545.832H788.146V543.41C789.104 542.629 790.357 542.238 791.906 542.238C793.189 542.238 794.195 542.544 794.924 543.156C795.653 543.768 796.018 544.644 796.018 545.783V550.871C796.018 551.008 796.018 551.141 796.018 551.271C796.024 551.402 796.034 551.532 796.047 551.662L797.072 551.77V553H794.309C794.198 552.466 794.13 551.981 794.104 551.545C793.732 552.02 793.267 552.417 792.707 552.736C792.154 553.049 791.561 553.205 790.93 553.205ZM791.213 551.594C791.851 551.594 792.434 551.441 792.961 551.135C793.488 550.829 793.866 550.461 794.094 550.031V548.117H792.141C791.255 548.117 790.591 548.329 790.148 548.752C789.706 549.175 789.484 549.647 789.484 550.168C789.484 551.118 790.061 551.594 791.213 551.594ZM802.717 553.205C801.864 553.205 801.128 552.99 800.51 552.561C799.898 552.137 799.426 551.545 799.094 550.783C798.768 550.021 798.605 549.133 798.605 548.117V547.912C798.605 546.786 798.768 545.793 799.094 544.934C799.419 544.081 799.891 543.42 800.51 542.951C801.128 542.476 801.87 542.238 802.736 542.238C803.361 542.238 803.911 542.355 804.387 542.59C804.868 542.818 805.279 543.15 805.617 543.586V539.279L804.025 539.006V537.766H807.541V551.496L809.133 551.77V553H805.871L805.715 551.74C805.012 552.717 804.012 553.205 802.717 553.205ZM803.205 551.643C803.778 551.643 804.26 551.512 804.65 551.252C805.041 550.992 805.363 550.624 805.617 550.148V545.246C805.37 544.803 805.048 544.452 804.65 544.191C804.253 543.931 803.778 543.801 803.225 543.801C802.619 543.801 802.115 543.973 801.711 544.318C801.314 544.67 801.018 545.155 800.822 545.773C800.627 546.385 800.529 547.098 800.529 547.912V548.117C800.529 549.178 800.747 550.031 801.184 550.676C801.62 551.32 802.294 551.643 803.205 551.643ZM815.275 553.205C814.299 553.205 813.449 552.98 812.727 552.531C812.004 552.089 811.444 551.47 811.047 550.676C810.656 549.882 810.461 548.964 810.461 547.922V547.492C810.461 546.483 810.669 545.585 811.086 544.797C811.496 544.003 812.043 543.378 812.727 542.922C813.417 542.466 814.169 542.238 814.982 542.238C815.933 542.238 816.73 542.434 817.375 542.824C818.013 543.215 818.495 543.765 818.82 544.475C819.146 545.178 819.309 546.008 819.309 546.965V548.166H812.453L812.424 548.215C812.43 548.879 812.551 549.478 812.785 550.012C813.013 550.539 813.335 550.952 813.752 551.252C814.175 551.551 814.683 551.701 815.275 551.701C815.926 551.701 816.496 551.61 816.984 551.428C817.479 551.239 817.906 550.982 818.264 550.656L819.016 551.906C818.638 552.271 818.137 552.58 817.512 552.834C816.893 553.081 816.148 553.205 815.275 553.205ZM812.492 546.613L812.512 546.662H817.385V546.408C817.385 545.894 817.297 545.438 817.121 545.041C816.939 544.637 816.669 544.322 816.311 544.094C815.959 543.866 815.516 543.752 814.982 543.752C814.559 543.752 814.169 543.876 813.811 544.123C813.081 544.65 812.642 545.48 812.492 546.613ZM833.264 553.205C831.903 553.205 830.881 552.684 830.197 551.643L830.021 553H828.361V539.279L826.77 539.006V537.766H830.285V543.684C830.617 543.215 831.027 542.857 831.516 542.609C832.01 542.362 832.587 542.238 833.244 542.238C834.123 542.238 834.868 542.473 835.48 542.941C836.099 543.417 836.571 544.081 836.896 544.934C837.222 545.786 837.385 546.779 837.385 547.912V548.117C837.385 549.126 837.222 550.015 836.896 550.783C836.564 551.545 836.089 552.141 835.471 552.57C834.859 552.993 834.123 553.205 833.264 553.205ZM832.775 551.643C833.68 551.643 834.351 551.32 834.787 550.676C835.23 550.031 835.451 549.178 835.451 548.117V547.912C835.451 547.092 835.354 546.376 835.158 545.764C834.963 545.145 834.667 544.663 834.27 544.318C833.872 543.973 833.368 543.801 832.756 543.801C832.163 543.801 831.662 543.944 831.252 544.23C830.848 544.517 830.526 544.901 830.285 545.383V550.051C830.526 550.539 830.852 550.926 831.262 551.213C831.678 551.499 832.183 551.643 832.775 551.643ZM840.725 557.268C840.575 557.268 840.38 557.248 840.139 557.209C839.898 557.176 839.712 557.144 839.582 557.111L839.777 555.598C839.888 555.611 840.041 555.62 840.236 555.627C840.432 555.64 840.565 555.646 840.637 555.646C841.047 555.646 841.379 555.49 841.633 555.178C841.893 554.865 842.134 554.439 842.355 553.898L842.814 552.785L839.074 543.83L837.941 543.674V542.434H842.375V543.674L841.096 543.869L843.156 549.152L843.654 550.529H843.713L846.154 543.869L844.807 543.674V542.434H849.152V543.674L848.059 543.83L843.898 554.621C843.703 555.135 843.469 555.591 843.195 555.988C842.915 556.385 842.574 556.698 842.17 556.926C841.773 557.154 841.291 557.268 840.725 557.268ZM862.639 553H856.975V551.77L858.566 551.496V540.295L856.975 540.021V538.781H862.541C863.791 538.781 864.888 539.081 865.832 539.68C866.763 540.279 867.489 541.102 868.01 542.15C868.531 543.199 868.791 544.396 868.791 545.744V546.047C868.791 547.355 868.54 548.537 868.039 549.592C867.538 550.646 866.825 551.48 865.9 552.092C864.982 552.697 863.895 553 862.639 553ZM862.541 540.295H860.49V551.496H862.541C863.446 551.496 864.217 551.249 864.855 550.754C865.5 550.266 865.995 549.611 866.34 548.791C866.691 547.964 866.867 547.049 866.867 546.047V545.725C866.867 544.696 866.695 543.768 866.35 542.941C865.998 542.128 865.5 541.483 864.855 541.008C864.211 540.533 863.439 540.295 862.541 540.295ZM873.566 553.205C872.466 553.205 871.63 552.938 871.057 552.404C870.484 551.864 870.197 551.105 870.197 550.129C870.197 549.452 870.383 548.866 870.754 548.371C871.118 547.87 871.649 547.482 872.346 547.209C873.042 546.936 873.876 546.799 874.846 546.799H876.73V545.764C876.73 545.126 876.535 544.631 876.145 544.279C875.76 543.928 875.217 543.752 874.514 543.752C874.071 543.752 873.687 543.807 873.361 543.918C873.036 544.022 872.74 544.169 872.473 544.357L872.268 545.832H870.783V543.41C871.74 542.629 872.993 542.238 874.543 542.238C875.826 542.238 876.831 542.544 877.561 543.156C878.29 543.768 878.654 544.644 878.654 545.783V550.871C878.654 551.008 878.654 551.141 878.654 551.271C878.661 551.402 878.671 551.532 878.684 551.662L879.709 551.77V553H876.945C876.835 552.466 876.766 551.981 876.74 551.545C876.369 552.02 875.904 552.417 875.344 552.736C874.79 553.049 874.198 553.205 873.566 553.205ZM873.85 551.594C874.488 551.594 875.07 551.441 875.598 551.135C876.125 550.829 876.503 550.461 876.73 550.031V548.117H874.777C873.892 548.117 873.228 548.329 872.785 548.752C872.342 549.175 872.121 549.647 872.121 550.168C872.121 551.118 872.697 551.594 873.85 551.594ZM891.828 543.674L890.471 543.928L887.502 546.916L891.145 551.535L892.668 551.77V553H887.893V551.77L888.967 551.643L888.938 551.604L886.262 548.156L884.621 549.807V551.496L886.213 551.77V553H881.105V551.77L882.697 551.496V539.279L881.105 539.006V537.766H884.621V547.58L888.361 543.859L888.41 543.801L887.277 543.674V542.434H891.828V543.674ZM898.146 553.205C897.176 553.205 896.337 552.974 895.627 552.512C894.917 552.049 894.37 551.415 893.986 550.607C893.602 549.8 893.41 548.876 893.41 547.834V547.619C893.41 546.584 893.602 545.656 893.986 544.836C894.37 544.022 894.914 543.387 895.617 542.932C896.327 542.469 897.163 542.238 898.127 542.238C899.097 542.238 899.94 542.469 900.656 542.932C901.359 543.394 901.903 544.029 902.287 544.836C902.671 545.643 902.863 546.571 902.863 547.619V547.834C902.863 548.869 902.671 549.797 902.287 550.617C901.903 551.424 901.359 552.059 900.656 552.521C899.953 552.977 899.117 553.205 898.146 553.205ZM898.146 551.701C898.758 551.701 899.273 551.532 899.689 551.193C900.1 550.861 900.409 550.406 900.617 549.826C900.832 549.24 900.939 548.576 900.939 547.834V547.619C900.939 546.883 900.835 546.219 900.627 545.627C900.412 545.048 900.096 544.592 899.68 544.26C899.263 543.921 898.745 543.752 898.127 543.752C897.521 543.752 897.007 543.918 896.584 544.25C896.167 544.589 895.855 545.051 895.646 545.637C895.438 546.216 895.334 546.877 895.334 547.619V547.834C895.334 548.57 895.438 549.23 895.646 549.816C895.855 550.402 896.167 550.865 896.584 551.203C897.007 551.535 897.528 551.701 898.146 551.701ZM908.078 553.166C907.297 553.166 906.675 552.938 906.213 552.482C905.757 552.02 905.529 551.285 905.529 550.275V543.859H903.859V542.434H905.529V539.885H907.453V542.434H909.748V543.859H907.453V550.275C907.453 550.783 907.554 551.158 907.756 551.398C907.958 551.639 908.228 551.76 908.566 551.76C908.794 551.76 909.048 551.74 909.328 551.701C909.608 551.656 909.826 551.617 909.982 551.584L910.246 552.844C909.966 552.928 909.621 553.003 909.211 553.068C908.807 553.133 908.43 553.166 908.078 553.166ZM914.895 553.205C913.794 553.205 912.958 552.938 912.385 552.404C911.812 551.864 911.525 551.105 911.525 550.129C911.525 549.452 911.711 548.866 912.082 548.371C912.447 547.87 912.977 547.482 913.674 547.209C914.37 546.936 915.204 546.799 916.174 546.799H918.059V545.764C918.059 545.126 917.863 544.631 917.473 544.279C917.089 543.928 916.545 543.752 915.842 543.752C915.399 543.752 915.015 543.807 914.689 543.918C914.364 544.022 914.068 544.169 913.801 544.357L913.596 545.832H912.111V543.41C913.068 542.629 914.322 542.238 915.871 542.238C917.154 542.238 918.16 542.544 918.889 543.156C919.618 543.768 919.982 544.644 919.982 545.783V550.871C919.982 551.008 919.982 551.141 919.982 551.271C919.989 551.402 919.999 551.532 920.012 551.662L921.037 551.77V553H918.273C918.163 552.466 918.094 551.981 918.068 551.545C917.697 552.02 917.232 552.417 916.672 552.736C916.118 553.049 915.526 553.205 914.895 553.205ZM915.178 551.594C915.816 551.594 916.398 551.441 916.926 551.135C917.453 550.829 917.831 550.461 918.059 550.031V548.117H916.105C915.22 548.117 914.556 548.329 914.113 548.752C913.671 549.175 913.449 549.647 913.449 550.168C913.449 551.118 914.025 551.594 915.178 551.594ZM935.861 553.205C934.436 553.205 933.247 552.893 932.297 552.268C931.34 551.643 930.62 550.786 930.139 549.699C929.663 548.612 929.426 547.378 929.426 545.998V545.793C929.426 544.406 929.676 543.166 930.178 542.072C930.679 540.985 931.398 540.132 932.336 539.514C933.273 538.889 934.393 538.576 935.695 538.576C936.613 538.576 937.453 538.719 938.215 539.006C938.977 539.292 939.608 539.657 940.109 540.1V543.166H938.576L938.371 540.92C938.176 540.757 937.938 540.62 937.658 540.51C937.105 540.282 936.447 540.168 935.686 540.168C934.748 540.168 933.96 540.406 933.322 540.881C932.678 541.356 932.189 542.017 931.857 542.863C931.525 543.703 931.359 544.673 931.359 545.773V545.998C931.359 547.196 931.538 548.212 931.896 549.045C932.619 550.777 933.964 551.643 935.93 551.643C936.385 551.643 936.831 551.587 937.268 551.477C937.704 551.366 938.065 551.223 938.352 551.047L938.566 549.064H940.07V552.15C939.536 552.482 938.898 552.743 938.156 552.932C937.414 553.114 936.649 553.205 935.861 553.205ZM945.236 551.496L946.828 551.77V553H941.721V551.77L943.312 551.496V539.279L941.721 539.006V537.766H945.236V543.84C945.601 543.332 946.047 542.938 946.574 542.658C947.102 542.378 947.688 542.238 948.332 542.238C949.465 542.238 950.344 542.577 950.969 543.254C951.594 543.931 951.906 544.973 951.906 546.379V551.496L953.498 551.77V553H948.391V551.77L949.982 551.496V546.359C949.982 544.654 949.237 543.801 947.746 543.801C947.219 543.801 946.737 543.928 946.301 544.182C945.871 544.429 945.516 544.768 945.236 545.197V551.496ZM958.234 553.205C957.134 553.205 956.298 552.938 955.725 552.404C955.152 551.864 954.865 551.105 954.865 550.129C954.865 549.452 955.051 548.866 955.422 548.371C955.786 547.87 956.317 547.482 957.014 547.209C957.71 546.936 958.544 546.799 959.514 546.799H961.398V545.764C961.398 545.126 961.203 544.631 960.812 544.279C960.428 543.928 959.885 543.752 959.182 543.752C958.739 543.752 958.355 543.807 958.029 543.918C957.704 544.022 957.408 544.169 957.141 544.357L956.936 545.832H955.451V543.41C956.408 542.629 957.661 542.238 959.211 542.238C960.493 542.238 961.499 542.544 962.229 543.156C962.958 543.768 963.322 544.644 963.322 545.783V550.871C963.322 551.008 963.322 551.141 963.322 551.271C963.329 551.402 963.339 551.532 963.352 551.662L964.377 551.77V553H961.613C961.503 552.466 961.434 551.981 961.408 551.545C961.037 552.02 960.572 552.417 960.012 552.736C959.458 553.049 958.866 553.205 958.234 553.205ZM958.518 551.594C959.156 551.594 959.738 551.441 960.266 551.135C960.793 550.829 961.171 550.461 961.398 550.031V548.117H959.445C958.56 548.117 957.896 548.329 957.453 548.752C957.01 549.175 956.789 549.647 956.789 550.168C956.789 551.118 957.365 551.594 958.518 551.594ZM969.387 551.496L970.979 551.77V553H965.871V551.77L967.463 551.496V543.947L965.871 543.674V542.434H969.182L969.318 544.006C969.67 543.446 970.109 543.013 970.637 542.707C971.171 542.395 971.776 542.238 972.453 542.238C973.592 542.238 974.475 542.574 975.1 543.244C975.725 543.908 976.037 544.937 976.037 546.33V551.496L977.629 551.77V553H972.521V551.77L974.113 551.496V546.369C974.113 545.438 973.928 544.777 973.557 544.387C973.192 543.996 972.632 543.801 971.877 543.801C971.324 543.801 970.832 543.934 970.402 544.201C969.979 544.468 969.641 544.833 969.387 545.295V551.496ZM989.338 542.434V543.664L988.029 543.947V552.863C988.029 553.781 987.86 554.566 987.521 555.217C987.183 555.874 986.685 556.379 986.027 556.73C985.37 557.089 984.572 557.268 983.635 557.268C983.127 557.268 982.577 557.196 981.984 557.053C981.392 556.916 980.871 556.727 980.422 556.486L980.92 554.992C981.278 555.181 981.701 555.337 982.189 555.461C982.678 555.585 983.153 555.646 983.615 555.646C984.475 555.646 985.103 555.406 985.5 554.924C985.904 554.442 986.105 553.755 986.105 552.863V551.857C985.402 552.756 984.436 553.205 983.205 553.205C982.346 553.205 981.604 552.99 980.979 552.561C980.354 552.137 979.872 551.545 979.533 550.783C979.201 550.015 979.035 549.126 979.035 548.117V547.912C979.035 546.766 979.204 545.773 979.543 544.934C979.875 544.081 980.354 543.42 980.979 542.951C981.604 542.476 982.352 542.238 983.225 542.238C984.533 542.238 985.536 542.746 986.232 543.762L986.408 542.434H989.338ZM986.105 550.129V545.266C985.858 544.816 985.536 544.462 985.139 544.201C984.742 543.934 984.263 543.801 983.703 543.801C983.091 543.801 982.583 543.977 982.18 544.328C981.77 544.68 981.464 545.165 981.262 545.783C981.06 546.395 980.959 547.105 980.959 547.912V548.117C980.959 549.178 981.184 550.031 981.633 550.676C982.082 551.32 982.766 551.643 983.684 551.643C984.263 551.643 984.748 551.512 985.139 551.252C985.529 550.985 985.852 550.611 986.105 550.129ZM990.998 553V551.027H992.922V553H990.998Z" fill="black"/>
<defs>
<linearGradient id="paint0_linear_2_12" x1="720" y1="0" x2="720" y2="1024" gradientUnits="userSpaceOnUse">
<stop stop-color="#B1DEC8"/>
<stop offset="1" stop-color="#B1DEC8" stop-opacity="0"/>
</linearGradient>
</defs>
</svg>
