<svg width="117" height="26" viewBox="0 0 117 26" fill="none" xmlns="http://www.w3.org/2000/svg">
<path d="M0.93934 12.9393C0.353553 13.5251 0.353553 14.4749 0.93934 15.0607L10.4853 24.6066C11.0711 25.1924 12.0208 25.1924 12.6066 24.6066C13.1924 24.0208 13.1924 23.0711 12.6066 22.4853L4.12132 14L12.6066 5.51472C13.1924 4.92893 13.1924 3.97918 12.6066 3.3934C12.0208 2.80761 11.0711 2.80761 10.4853 3.3934L0.93934 12.9393ZM35 12.5L2 12.5L2 15.5L35 15.5L35 12.5Z" fill="black"/>
<path d="M45.063 23V5.22656H50.8735C52.8022 5.22656 54.2508 5.62533 55.2192 6.42285C56.1958 7.22038 56.6841 8.40039 56.6841 9.96289C56.6841 10.793 56.4481 11.5295 55.9761 12.1724C55.5041 12.8071 54.8612 13.2995 54.0474 13.6494C55.0076 13.918 55.7645 14.4307 56.3179 15.1875C56.8794 15.9362 57.1602 16.8314 57.1602 17.873C57.1602 19.4681 56.6434 20.7214 55.6099 21.6328C54.5763 22.5443 53.1156 23 51.2275 23H45.063ZM47.4067 14.687V21.0835H51.2764C52.3669 21.0835 53.2254 20.8027 53.8521 20.2412C54.4868 19.6715 54.8042 18.8903 54.8042 17.8975C54.8042 15.7572 53.6405 14.687 51.313 14.687H47.4067ZM47.4067 12.8071H50.9468C51.9722 12.8071 52.79 12.5508 53.4004 12.0381C54.0189 11.5254 54.3281 10.8296 54.3281 9.95068C54.3281 8.97412 54.0433 8.26611 53.4736 7.82666C52.904 7.37907 52.0373 7.15527 50.8735 7.15527H47.4067V12.8071ZM68.4395 23C68.3092 22.7396 68.2035 22.2757 68.1221 21.6084C67.0723 22.6989 65.819 23.2441 64.3623 23.2441C63.0602 23.2441 61.9901 22.8779 61.1519 22.1455C60.3218 21.4049 59.9067 20.4691 59.9067 19.3379C59.9067 17.9626 60.4276 16.8965 61.4692 16.1396C62.519 15.3747 63.992 14.9922 65.8882 14.9922H68.0854V13.9546C68.0854 13.1652 67.8494 12.5386 67.3774 12.0747C66.9054 11.6027 66.2096 11.3667 65.29 11.3667C64.4844 11.3667 63.8089 11.5701 63.2637 11.9771C62.7184 12.384 62.4458 12.8763 62.4458 13.4541H60.1753C60.1753 12.7949 60.4072 12.1602 60.8711 11.5498C61.3431 10.9313 61.9779 10.443 62.7754 10.085C63.5811 9.72689 64.464 9.54785 65.4243 9.54785C66.9461 9.54785 68.1383 9.93034 69.001 10.6953C69.8636 11.4521 70.3112 12.4979 70.3438 13.8325V19.9116C70.3438 21.1242 70.4984 22.0885 70.8076 22.8047V23H68.4395ZM64.6919 21.2788C65.3999 21.2788 66.0713 21.0957 66.7061 20.7295C67.3408 20.3633 67.8006 19.8872 68.0854 19.3013V16.5913H66.3154C63.5485 16.5913 62.165 17.401 62.165 19.0205C62.165 19.7285 62.401 20.2819 62.873 20.6807C63.3451 21.0794 63.9513 21.2788 64.6919 21.2788ZM79.1816 21.4009C79.9873 21.4009 80.6912 21.1567 81.2935 20.6685C81.8957 20.1802 82.2293 19.5698 82.2944 18.8374H84.4307C84.39 19.5942 84.1296 20.3145 83.6494 20.998C83.1693 21.6816 82.5264 22.2269 81.7207 22.6338C80.9232 23.0407 80.0768 23.2441 79.1816 23.2441C77.3831 23.2441 75.9508 22.646 74.8848 21.4497C73.8268 20.2453 73.2979 18.6014 73.2979 16.5181V16.1396C73.2979 14.8538 73.5339 13.7104 74.0059 12.7095C74.4779 11.7085 75.1533 10.9313 76.0322 10.3779C76.9193 9.82454 77.965 9.54785 79.1694 9.54785C80.6506 9.54785 81.8794 9.99137 82.856 10.8784C83.8407 11.7655 84.3656 12.917 84.4307 14.333H82.2944C82.2293 13.4785 81.9038 12.7786 81.3179 12.2334C80.7401 11.68 80.0239 11.4033 79.1694 11.4033C78.022 11.4033 77.1309 11.8184 76.4961 12.6484C75.8695 13.4704 75.5562 14.6626 75.5562 16.2251V16.6523C75.5562 18.1742 75.8695 19.346 76.4961 20.168C77.1227 20.9899 78.0179 21.4009 79.1816 21.4009ZM90.6562 16.8843L89.2402 18.3613V23H86.9819V4.25H89.2402V15.5903L90.4487 14.1377L94.5625 9.79199H97.3091L92.1699 15.3096L97.9072 23H95.2583L90.6562 16.8843Z" fill="black"/>
</svg>
