<svg xmlns="http://www.w3.org/2000/svg" xmlns:xlink="http://www.w3.org/1999/xlink" version="1.1" class="marks" width="774" height="538" viewBox="0 0 774 538"><rect width="774" height="538" fill="#fffeda"/><g fill="none" stroke-miterlimit="10" transform="translate(187,33)"><g class="mark-group role-frame root" role="graphics-object" aria-roledescription="group mark container"><g transform="translate(0,0)"><path class="background" aria-hidden="true" d="M0.5,0.5h400v500h-400Z"/><g><g class="mark-arc role-mark layer_0_marks" role="graphics-object" aria-roledescription="arc mark container"><path aria-label="Classes: MTH590; Hours/Week: 8" role="graphics-symbol" aria-roledescription="arc mark" transform="translate(200,250)" d="M-119.3230645171632,134.68789700649646A179.94116628998404,179.94116628998404,0,0,0,96.17240409557638,152.0844897294818L26.723291306390063,42.259504277189734A50,50,0,0,1,-33.156132912039766,37.42553740855505Z" fill="#7CDC97" stroke="#FFFFFF"/><path aria-label="Classes: ENG300; Hours/Week: 7" role="graphics-symbol" aria-roledescription="arc mark" transform="translate(200,250)" d="M90.30623479251014,142.80788514094564A168.96540504147436,168.96540504147436,0,0,0,167.73345700024365,-20.366529001695326L49.6354437049027,-6.026834012766147A50,50,0,0,1,26.723291306390063,42.259504277189734Z" fill="#F6BE00" stroke="#FFFFFF"/><path aria-label="Classes: PHY552; Hours/Week: 10" role="graphics-symbol" aria-roledescription="arc mark" transform="translate(200,250)" d="M-144.24048946876292,-138.54487070191988A200,200,0,0,0,-132.62453164815906,149.7021496342202L-33.156132912039766,37.42553740855505A50,50,0,0,1,-36.06012236719073,-34.63621767547997Z" fill="#F1849A" stroke="#FFFFFF"/><path aria-label="Classes: SPA300; Hours/Week: 5" role="graphics-symbol" aria-roledescription="arc mark" transform="translate(200,250)" d="M-2.6516717801432582e-14,-144.350288425444A144.350288425444,144.350288425444,0,0,0,-104.10578128721572,-99.99496022843991L-36.06012236719073,-34.63621767547997A50,50,0,0,1,-9.184850993605149e-15,-50Z" fill="#DC9FFF" stroke="#FFFFFF"/><path aria-label="Classes: CSC630; Hours/Week: 9" role="graphics-symbol" aria-roledescription="arc mark" transform="translate(200,250)" d="M188.8626911908178,-22.93208252108243A190.2498266295976,190.2498266295976,0,0,0,1.164944206101378e-14,-190.2498266295976L3.061616997868383e-15,-50A50,50,0,0,1,49.6354437049027,-6.026834012766147Z" fill="#5D8ED4" stroke="#FFFFFF"/></g><g class="mark-text role-mark layer_1_marks" role="graphics-object" aria-roledescription="text mark container"><text aria-label="Classes: MTH590; Hours/Week: 8" role="graphics-symbol" aria-roledescription="text mark" text-anchor="start" transform="translate(152.30208902909027,473.22796485910317)" font-family="Futura" font-size="14px" font-weight="300" fill="#7CDC97">MTH590</text><text aria-label="Classes: ENG300; Hours/Week: 7" role="graphics-symbol" aria-roledescription="text mark" text-anchor="start" transform="translate(358.78988600325454,343.5819147318564)" font-family="Futura" font-size="14px" font-weight="300" fill="#F6BE00">ENG300</text><text aria-label="Classes: PHY552; Hours/Week: 10" role="graphics-symbol" aria-roledescription="text mark" text-anchor="start" transform="translate(-69.80535956117672,263.6638256262596)" font-family="Futura" font-size="14px" font-weight="300" fill="#F1849A">PHY552</text><text aria-label="Classes: SPA300; Hours/Week: 5" role="graphics-symbol" aria-roledescription="text mark" text-anchor="start" transform="translate(97.74084241915165,84.40152421601627)" font-family="Futura" font-size="14px" font-weight="300" fill="#DC9FFF">SPA300</text><text aria-label="Classes: CSC630; Hours/Week: 9" role="graphics-symbol" aria-roledescription="text mark" text-anchor="start" transform="translate(322.68387709410104,81.65553000321358)" font-family="Futura" font-size="14px" font-weight="300" fill="#5D8ED4">CSC630</text></g><g class="mark-group role-legend" role="graphics-symbol" aria-roledescription="legend" aria-label="Symbol legend for fill color with 5 values: CSC630, ENG300, MTH590, PHY552, SPA300"><g transform="translate(-36,0)"><path class="background" aria-hidden="true" d="M0,0h66v77h-66Z" pointer-events="none"/><g><g class="mark-group role-legend-entry"><g transform="translate(0,0)"><path class="background" aria-hidden="true" d="M0,0h0v0h0Z" pointer-events="none"/><g><g class="mark-group role-scope" role="graphics-object" aria-roledescription="group mark container"><g transform="translate(0,0)"><path class="background" aria-hidden="true" d="M0,0h65.3359375v12.5h-65.3359375Z" pointer-events="none" opacity="1"/><g><g class="mark-symbol role-legend-symbol" pointer-events="none"><path transform="translate(6,6)" d="M-5,-5h10v10h-10Z" fill="#5D8ED4" stroke="#FFFFFF" stroke-width="1.5" opacity="1"/></g><g class="mark-text role-legend-label" pointer-events="none"><text text-anchor="start" transform="translate(16,10)" font-family="Futura" font-size="12px" fill="#000" opacity="1">CSC630</text></g></g><path class="foreground" aria-hidden="true" d="" pointer-events="none" display="none"/></g><g transform="translate(0,16)"><path class="background" aria-hidden="true" d="M0,0h65.3359375v12.5h-65.3359375Z" pointer-events="none" opacity="1"/><g><g class="mark-symbol role-legend-symbol" pointer-events="none"><path transform="translate(6,6)" d="M-5,-5h10v10h-10Z" fill="#F6BE00" stroke="#FFFFFF" stroke-width="1.5" opacity="1"/></g><g class="mark-text role-legend-label" pointer-events="none"><text text-anchor="start" transform="translate(16,10)" font-family="Futura" font-size="12px" fill="#000" opacity="1">ENG300</text></g></g><path class="foreground" aria-hidden="true" d="" pointer-events="none" display="none"/></g><g transform="translate(0,32)"><path class="background" aria-hidden="true" d="M0,0h65.3359375v12.5h-65.3359375Z" pointer-events="none" opacity="1"/><g><g class="mark-symbol role-legend-symbol" pointer-events="none"><path transform="translate(6,6)" d="M-5,-5h10v10h-10Z" fill="#7CDC97" stroke="#FFFFFF" stroke-width="1.5" opacity="1"/></g><g class="mark-text role-legend-label" pointer-events="none"><text text-anchor="start" transform="translate(16,10)" font-family="Futura" font-size="12px" fill="#000" opacity="1">MTH590</text></g></g><path class="foreground" aria-hidden="true" d="" pointer-events="none" display="none"/></g><g transform="translate(0,48)"><path class="background" aria-hidden="true" d="M0,0h65.3359375v12.5h-65.3359375Z" pointer-events="none" opacity="1"/><g><g class="mark-symbol role-legend-symbol" pointer-events="none"><path transform="translate(6,6)" d="M-5,-5h10v10h-10Z" fill="#F1849A" stroke="#FFFFFF" stroke-width="1.5" opacity="1"/></g><g class="mark-text role-legend-label" pointer-events="none"><text text-anchor="start" transform="translate(16,10)" font-family="Futura" font-size="12px" fill="#000" opacity="1">PHY552</text></g></g><path class="foreground" aria-hidden="true" d="" pointer-events="none" display="none"/></g><g transform="translate(0,64)"><path class="background" aria-hidden="true" d="M0,0h65.3359375v12.5h-65.3359375Z" pointer-events="none" opacity="1"/><g><g class="mark-symbol role-legend-symbol" pointer-events="none"><path transform="translate(6,6)" d="M-5,-5h10v10h-10Z" fill="#DC9FFF" stroke="#FFFFFF" stroke-width="1.5" opacity="1"/></g><g class="mark-text role-legend-label" pointer-events="none"><text text-anchor="start" transform="translate(16,10)" font-family="Futura" font-size="12px" fill="#000" opacity="1">SPA300</text></g></g><path class="foreground" aria-hidden="true" d="" pointer-events="none" display="none"/></g></g></g><path class="foreground" aria-hidden="true" d="" pointer-events="none" display="none"/></g></g></g><path class="foreground" aria-hidden="true" d="" pointer-events="none" display="none"/></g></g><g class="mark-group role-title"><g transform="translate(200,-28)"><path class="background" aria-hidden="true" d="M0,0h0v0h0Z" pointer-events="none"/><g><g class="mark-text role-title-text" role="graphics-symbol" aria-roledescription="title" aria-label="Title text 'Hours Per Week I Spend on my Classes (not accurate at all)'" pointer-events="none"><text text-anchor="middle" transform="translate(0,19)" font-family="Futura" font-size="24px" font-weight="bold" fill="#000" opacity="1">Hours Per Week I Spend on my Classes (not accurate at all)</text></g></g><path class="foreground" aria-hidden="true" d="" pointer-events="none" display="none"/></g></g></g><path class="foreground" aria-hidden="true" d="" display="none"/></g></g></g></svg>